<?xml version="1.0" encoding="UTF-8"?><svg id="a" xmlns="http://www.w3.org/2000/svg" xmlns:xlink="http://www.w3.org/1999/xlink" viewBox="0 0 1280 329.68"><defs><style>.d{fill:url(#c);}.e{fill:none;}.f{fill:#004fd8;stroke:#fff;stroke-miterlimit:10;stroke-width:.5px;}.g{opacity:.3;}.h{opacity:.6;}.i{clip-path:url(#b);}</style><clipPath id="b"><rect class="e" width="1280" height="329.68"/></clipPath><linearGradient id="c" x1="-2.32" y1="326.67" x2="1279.38" y2="3.75" gradientTransform="matrix(1, 0, 0, 1, 0, 0)" gradientUnits="userSpaceOnUse"><stop offset="0" stop-color="#003c84"/><stop offset="1" stop-color="#005fe8"/></linearGradient></defs><g class="i"><rect class="d" width="1280" height="329.68"/><g><g class="g"><path class="f" d="M756.97,72.33c-15.92-5.69-20.77-9.83-20.77-17.74,0-7.36,3.86-11.75,10.32-11.75,8.84,0,13.82,7.37,14.8,21.91l.08,1.24,27.81-6.42-.13-.96c-3.22-24.25-17.93-37.6-41.41-37.6s-38.83,14.83-38.83,38.7c0,18.48,9.77,30.54,31.67,39.11,18.05,7.01,21.95,10.28,21.95,18.39,0,6.86-3.92,10.79-10.76,10.79-10.76,0-16.66-6.63-18.55-20.86l-.14-1.06-28.61,3.97,.12,1.03c3.1,26.77,18.44,40.34,45.59,40.34,25.64,0,41.57-15.01,41.57-39.18,0-20.12-9.41-30.94-34.72-39.92Z"/><path class="f" d="M862.36,102.48c0,16.8-6.11,25.68-17.68,25.68s-17.68-8.88-17.68-25.68V22.62h-28.79V103.76c0,30.19,16.94,47.51,46.47,47.51s46.47-17.32,46.47-47.51V22.62h-28.79V102.48Z"/><path class="f" d="M968.18,72.95c-2.26,10.76-4.31,25.73-5.19,37.55-1.02-11.95-3.24-26.74-5.71-37.72l-10.99-50.16h-41.41v127.05h25.91v-49.91c0-12.84-.14-29.47-1.15-46.68l21.14,96.59h22.9l20.65-96.24c-1.08,16.7-1.24,32.68-1.24,46.33v49.91h25.91V22.62h-40.12l-10.7,50.33Z"/><path class="f" d="M1096.03,72.95c-2.26,10.76-4.31,25.73-5.19,37.55-1.02-11.95-3.24-26.74-5.71-37.72l-10.99-50.16h-41.41v127.05h25.91v-49.91c0-12.84-.14-29.47-1.15-46.68l21.14,96.59h22.9l20.65-96.24c-1.08,16.7-1.24,32.68-1.24,46.33v49.91h25.91V22.62h-40.12l-10.7,50.33Z"/><rect class="f" x="1160.58" y="22.62" width="28.79" height="127.05"/><polygon class="f" points="1194.45 22.62 1194.45 47.97 1224.72 47.97 1224.72 149.66 1252.79 149.66 1252.79 47.97 1283.06 47.97 1283.06 22.62 1194.45 22.62"/></g><g class="h"><path class="f" d="M756.97,55.37c-15.92-5.69-20.77-9.83-20.77-17.74,0-7.36,3.86-11.75,10.32-11.75,8.84,0,13.82,7.37,14.8,21.91l.08,1.24,27.81-6.42-.13-.96c-3.22-24.25-17.93-37.6-41.41-37.6s-38.83,14.83-38.83,38.7c0,18.48,9.77,30.54,31.67,39.11,18.05,7.01,21.95,10.28,21.95,18.39,0,6.86-3.92,10.79-10.76,10.79-10.76,0-16.66-6.63-18.55-20.86l-.14-1.06-28.61,3.97,.12,1.03c3.1,26.77,18.44,40.34,45.59,40.34,25.64,0,41.57-15.01,41.57-39.18,0-20.12-9.41-30.94-34.72-39.92Z"/><path class="f" d="M862.36,85.52c0,16.8-6.11,25.68-17.68,25.68s-17.68-8.88-17.68-25.68V5.66h-28.79V86.8c0,30.19,16.94,47.51,46.47,47.51s46.47-17.32,46.47-47.51V5.66h-28.79V85.52Z"/><path class="f" d="M968.18,55.99c-2.26,10.76-4.31,25.73-5.19,37.55-1.02-11.95-3.24-26.74-5.71-37.72l-10.99-50.16h-41.41v127.05h25.91v-49.91c0-12.84-.14-29.47-1.15-46.68l21.14,96.59h22.9l20.65-96.24c-1.08,16.7-1.24,32.68-1.24,46.33v49.91h25.91V5.66h-40.12l-10.7,50.33Z"/><path class="f" d="M1096.03,55.99c-2.26,10.76-4.31,25.73-5.19,37.55-1.02-11.95-3.24-26.74-5.71-37.72l-10.99-50.16h-41.41v127.05h25.91v-49.91c0-12.84-.14-29.47-1.15-46.68l21.14,96.59h22.9l20.65-96.24c-1.08,16.7-1.24,32.68-1.24,46.33v49.91h25.91V5.66h-40.12l-10.7,50.33Z"/><rect class="f" x="1160.58" y="5.66" width="28.79" height="127.05"/><polygon class="f" points="1194.45 5.66 1194.45 31.01 1224.72 31.01 1224.72 132.71 1252.79 132.71 1252.79 31.01 1283.06 31.01 1283.06 5.66 1194.45 5.66"/></g><g><path class="f" d="M756.97,38.41c-15.92-5.69-20.77-9.83-20.77-17.74,0-7.36,3.86-11.75,10.32-11.75,8.84,0,13.82,7.37,14.8,21.91l.08,1.24,27.81-6.42-.13-.96c-3.22-24.25-17.93-37.6-41.41-37.6s-38.83,14.83-38.83,38.7c0,18.48,9.77,30.54,31.67,39.11,18.05,7.01,21.95,10.28,21.95,18.39,0,6.86-3.92,10.79-10.76,10.79-10.76,0-16.66-6.63-18.55-20.86l-.14-1.06-28.61,3.97,.12,1.03c3.1,26.77,18.44,40.34,45.59,40.34,25.64,0,41.57-15.01,41.57-39.18,0-20.12-9.41-30.94-34.72-39.92Z"/><path class="f" d="M862.36,68.56c0,16.8-6.11,25.68-17.68,25.68s-17.68-8.88-17.68-25.68V-11.3h-28.79V69.84c0,30.19,16.94,47.51,46.47,47.51s46.47-17.32,46.47-47.51V-11.3h-28.79V68.56Z"/><path class="f" d="M968.18,39.03c-2.26,10.76-4.31,25.73-5.19,37.55-1.02-11.95-3.24-26.74-5.71-37.72l-10.99-50.16h-41.41V115.75h25.91v-49.91c0-12.84-.14-29.47-1.15-46.68l21.14,96.59h22.9l20.65-96.24c-1.08,16.7-1.24,32.68-1.24,46.33v49.91h25.91V-11.3h-40.12l-10.7,50.33Z"/><path class="f" d="M1096.03,39.03c-2.26,10.76-4.31,25.73-5.19,37.55-1.02-11.95-3.24-26.74-5.71-37.72l-10.99-50.16h-41.41V115.75h25.91v-49.91c0-12.84-.14-29.47-1.15-46.68l21.14,96.59h22.9l20.65-96.24c-1.08,16.7-1.24,32.68-1.24,46.33v49.91h25.91V-11.3h-40.12l-10.7,50.33Z"/><rect class="f" x="1160.58" y="-11.3" width="28.79" height="127.05"/><polygon class="f" points="1194.45 -11.3 1194.45 14.05 1224.72 14.05 1224.72 115.75 1252.79 115.75 1252.79 14.05 1283.06 14.05 1283.06 -11.3 1194.45 -11.3"/></g></g></g></svg>