<?xml version="1.0" encoding="utf-8"?>
<!-- Generator: Adobe Illustrator 16.2.1, SVG Export Plug-In . SVG Version: 6.00 Build 0)  -->
<!DOCTYPE svg PUBLIC "-//W3C//DTD SVG 1.1//EN" "http://www.w3.org/Graphics/SVG/1.1/DTD/svg11.dtd">
<svg version="1.1" id="圖層_1" xmlns="http://www.w3.org/2000/svg" xmlns:xlink="http://www.w3.org/1999/xlink" x="0px" y="0px"
	 width="300px" height="90px" viewBox="0 5 300 90" enable-background="new 0 5 300 90" xml:space="preserve">
<g>
	<g>
		<path fill="#FFFFFF" d="M143.067,36.379h-1.746c-0.57,4.509-1.49,8.438-3.112,11.673c1.302,2.177,2.922,3.933,5.017,5.11
			c-0.825,0.668-1.938,1.995-2.476,2.904c-1.873-1.211-3.399-2.753-4.666-4.628c-1.462,1.846-3.274,3.389-5.558,4.599
			c-0.316-0.637-0.983-1.724-1.556-2.451l-2.19,2.087c-0.889-0.605-2.062-1.302-3.396-1.966c-2.001,1.12-4.605,1.845-8.098,2.39
			c-0.191-0.938-0.792-2.084-1.334-2.783c2.446-0.211,4.447-0.543,6.034-1.147c-0.573-0.214-1.112-0.456-1.685-0.636l-0.286,0.392
			c-1.111-0.3-2.096-0.512-3.046-0.725c0.476-0.696,1.016-1.513,1.587-2.388l-2.191,0.027c-0.062,0.274-0.316,0.396-0.54,0.426
			l-0.89-3.055c1.461,0,3.24,0,5.176-0.03l0.73-1.24h-4.348v-5.653h5.649v-0.969h-5.017v-3.173h-2.03V32.54h2.03v-3.204h5.017V27.46
			l4.033,0.212c-0.032,0.272-0.224,0.453-0.763,0.544v1.12h5.269v3.204h2.128v2.603h-2.128v3.173h-5.269v0.969h5.937v0.906
			c1.747-3.174,2.856-7.982,3.458-12.731l4.29,0.786c-0.065,0.304-0.349,0.453-0.795,0.453c-0.221,1.453-0.509,2.905-0.824,4.325
			h7.588L143.067,36.379L143.067,36.379z M117.635,41.49v1.27h2.509v-1.27H117.635z M120.144,31.604h-1.872v1.118h1.872V31.604z
			 M118.271,36.018h1.872v-1.09h-1.872V36.018z M120.112,48.687l-0.382,0.605c1.048,0.333,2.128,0.727,3.145,1.15
			c0.539-0.545,1.018-1.15,1.364-1.875L120.112,48.687z M130.812,48.325l-2.985,0.12c-0.506,1.27-1.142,2.36-1.935,3.295
			c1.017,0.484,1.966,0.969,2.763,1.423c2.411-1.178,4.254-2.904,5.618-5.049c-0.825-1.845-1.463-3.903-1.967-6.141
			c-0.446,0.756-0.893,1.452-1.367,2.088c-0.349-0.452-0.983-1.18-1.587-1.785v2.66h-6.38c-0.129,0.122-0.382,0.183-0.763,0.183
			l-0.571,1.026c2.985-0.029,6.189-0.06,9.302-0.121L130.812,48.325z M125.415,31.604h-1.999v1.118h1.999V31.604z M123.414,36.018h2
			v-1.09h-2V36.018z M126.052,41.49h-2.638v1.27h2.638V41.49z M134.56,36.44c0.411,2.601,0.952,5.081,1.713,7.349
			c0.729-2.208,1.206-4.687,1.525-7.41h-3.207L134.56,36.44z"/>
		<path fill="#FFFFFF" d="M154.239,28.972c-0.127,0.242-0.41,0.394-0.889,0.363c-0.794,1.934-1.716,3.9-2.73,5.773l1.174,0.305
			c-0.063,0.271-0.285,0.482-0.826,0.515v20.109h-3.681V40.492c-0.89,1.24-1.812,2.39-2.762,3.388
			c-0.351-0.907-1.271-2.783-1.812-3.66c2.793-2.812,5.62-7.801,7.301-12.639L154.239,28.972z M173.353,51.287v3.418H152.62v-3.418
			H173.353z M160.778,32.962v-5.381l4.699,0.241c-0.03,0.302-0.255,0.484-0.856,0.574v4.566h8.062v3.448h-19.431v-3.448H160.778z
			 M157.22,50.26c-0.125-2.964-0.949-8.043-1.965-11.944l3.492-0.572c1.109,3.838,2.063,8.737,2.288,11.762L157.22,50.26z
			 M167.289,50.5c-0.192-0.089-3.4-0.935-3.4-0.967c1.113-3.145,2.254-8.164,2.794-11.974l4.699,1.088
			c-0.094,0.241-0.444,0.424-0.92,0.455C169.765,42.73,168.431,47.447,167.289,50.5z M167.319,50.5h-0.03H167.319z"/>
		<path fill="#FFFFFF" d="M178.175,44.728c-0.857,0.875-1.746,1.661-2.604,2.387c-0.509-0.727-1.652-2.268-2.351-2.964
			c3.018-2.297,6.509-6.32,8.54-10.068l4.191,1.661c-0.126,0.214-0.475,0.366-0.887,0.275c-0.858,1.36-1.873,2.781-2.921,4.144
			l0.697,0.21c-0.096,0.241-0.351,0.485-0.856,0.543v15.091h-3.81V44.728L178.175,44.728z M184.716,29.184
			c-0.129,0.182-0.382,0.332-0.892,0.272c-1.966,2.327-5.364,5.441-8.411,7.469c-0.478-0.815-1.493-2.269-2.128-2.993
			c2.666-1.605,5.715-4.325,7.27-6.44L184.716,29.184z M203.319,37.981v3.45h-4.635v10.43c0,3.602-1.428,4.115-8.032,4.115
			c-0.162-1.09-0.636-2.631-1.175-3.69c1.332,0.03,2.855,0.062,3.777,0.062c1.271,0,1.557,0,1.557-0.575V41.432h-9.464v-3.45
			H203.319z M202.05,29.273v3.449h-15.589v-3.449H202.05z"/>
		<path fill="#FFFFFF" d="M211.952,50.197l4.569-0.604l0.193,2.992c-4.224,0.759-8.638,1.483-11.462,1.908
			c-0.029,0.272-0.284,0.451-0.571,0.512l-1.049-3.778c1.397-0.15,3.082-0.332,4.954-0.576v-7.135h-4.413V40.43h4.413v-2.236h-2.762
			v-0.304l-0.098,0.091c-0.57-0.787-1.746-1.935-2.539-2.417c2.574-2.449,4.51-5.626,5.621-8.105l4.191,0.696
			c-0.096,0.272-0.318,0.424-0.761,0.455l-0.065,0.088c1.842,1.24,3.969,2.844,5.016,4.023c-0.759,1.058-1.428,2.025-2.062,2.962
			l-0.032-0.03v2.541h-3.144v2.236h4.225v3.086h-4.225V50.197L211.952,50.197z M205.667,50.23c-0.161-1.452-0.667-3.629-1.238-5.293
			l2.472-0.663c0.639,1.662,1.177,3.808,1.369,5.201L205.667,50.23z M214.684,35.171c-1.018-1.089-2.633-2.449-4.128-3.568
			c-0.699,1.178-1.491,2.359-2.413,3.568H214.684z M216.81,45.12c-0.127,0.211-0.38,0.331-0.794,0.331
			c-0.351,1.242-0.985,3.086-1.555,4.295l-2.255-0.785c0.475-1.33,1.048-3.387,1.303-4.81L216.81,45.12z M232.176,37.227v14.877
			c0,3.269-1.461,3.843-6.284,3.843c-0.096-1.001-0.637-2.542-1.145-3.48c1.3,0.063,2.762,0.063,3.206,0.063
			c0.414-0.032,0.569-0.152,0.569-0.544v-1.817h-7.11v5.778h-3.65v-18.72h0.952c-0.699-0.575-1.938-1.331-2.794-1.724
			c1.301-1.482,2.445-3.993,3.08-6.29l3.999,1.087c-0.096,0.212-0.381,0.362-0.795,0.333c-0.761,2.299-2.064,4.87-3.427,6.592h4.222
			v-9.768l4.539,0.243c-0.031,0.302-0.282,0.484-0.824,0.575v8.949h5.462V37.227z M228.524,40.4h-7.11v1.875h7.11V40.4z
			 M221.414,47.175h7.11v-1.936h-7.11V47.175z M230.083,28.939c1.488,1.936,3.174,4.538,3.806,6.259l-3.268,1.665
			c-0.573-1.755-2.158-4.445-3.588-6.472L230.083,28.939z"/>
		<path fill="#FFFFFF" d="M261.062,28.456c-0.155,3.237-0.41,7.108-0.697,9.951h2.352v6.259h-3.745v-3.63h-20.575v3.63h-3.62v-6.259
			h2.447l-0.605-9.586l2.097,0.394c1.493-0.453,3.204-1.119,4.283-1.571l2.101,2.267c-0.129,0.09-0.288,0.15-0.447,0.15
			c-0.128,0-0.222-0.028-0.317-0.061c-1.016,0.302-2.636,0.787-4.03,1.149l0.03,0.634h4.255v2.269h-4.128l0.062,1.029h4.128v1.57
			c0.762-0.33,1.526-0.756,2.252-1.238c-0.568-0.365-1.171-0.695-1.743-1l1.743-1.391c0.606,0.273,1.24,0.635,1.875,0.97
			c0.442-0.395,0.858-0.816,1.175-1.24l2.923,0.968c-0.098,0.181-0.352,0.302-0.698,0.272c-0.383,0.421-0.827,0.876-1.305,1.299
			c0.634,0.422,1.209,0.848,1.653,1.239l-1.904,1.542c-0.412-0.393-0.983-0.846-1.652-1.331c-0.918,0.637-1.876,1.181-2.792,1.604
			c-0.349-0.363-1.018-0.938-1.526-1.3v0.302h-3.971l0.065,1.06h15.972l0.125-1.06H253v-2.266h4.034l0.096-1.029h-4.036v-2.269
			h4.193l0.065-1.027h-4.385v-2.299L261.062,28.456L261.062,28.456z M254.84,42.155l2.733,1.695
			c-0.159,0.18-0.443,0.301-0.762,0.331c-1.43,1.029-3.369,2.299-5.337,3.358h11.177v2.841h-12.064v2.239
			c0,3.146-1.649,3.387-7.175,3.387c-0.192-0.939-0.732-2.207-1.208-3.055c1.557,0.062,3.462,0.062,3.972,0.062
			c0.51-0.029,0.667-0.123,0.667-0.515v-2.117h-12.066v-2.842h12.066v-1.422l1.936,0.061c0.697-0.392,1.396-0.847,2.031-1.3h-10.38
			v-2.539h13.839L254.84,42.155z M252.651,28.61c-0.096,0.21-0.318,0.3-0.699,0.271c-0.35,0.393-0.762,0.816-1.238,1.208
			c0.607,0.394,1.113,0.786,1.491,1.118l-1.806,1.544c-0.385-0.363-0.954-0.817-1.559-1.241c-0.891,0.545-1.78,1.061-2.665,1.484
			c-0.414-0.455-1.271-1.182-1.81-1.544c0.822-0.333,1.65-0.754,2.443-1.239c-0.604-0.362-1.173-0.696-1.746-0.967l1.746-1.393
			c0.602,0.272,1.24,0.604,1.873,0.969c0.412-0.364,0.791-0.757,1.111-1.151L252.651,28.61z"/>
		<path fill="#FFFFFF" d="M273.001,28.669l2.38,1.15c-0.03,0.181-0.161,0.36-0.283,0.451c-0.671,2.42-1.718,5.658-2.638,8.075
			c2.03,2.298,2.76,4.144,2.76,5.958c0,4.534-2.824,4.899-5.554,4.778c0-0.878-0.351-2.209-0.794-2.994
			c0.571,0.03,1.077,0.03,1.463,0.03c1.046,0,1.458-0.604,1.458-2.146c-0.032-1.363-0.699-3.178-2.571-5.234
			c0.665-1.935,1.332-4.625,1.84-6.712h-2.538v24.011h-3.304V28.789h7.208L273.001,28.669z M288.524,51.229
			c0,0.905,0.063,0.996,0.51,0.996h1.077c0.512,0,0.604-0.454,0.667-3.447c0.697,0.575,2.221,1.118,3.178,1.363
			c-0.32,4.139-1.208,5.29-3.429,5.29h-2.16c-2.794,0-3.396-1.026-3.396-4.175V45.12h-2.414c-0.414,5.168-1.524,8.802-7.935,10.857
			c-0.354-0.848-1.274-2.178-2.031-2.841c5.078-1.453,6.092-3.903,6.408-8.015h-3.551v-3.238h18.002v3.238h-4.924v6.108H288.524z
			 M275.032,30.997h7.174v-3.506l4.509,0.211c-0.03,0.302-0.253,0.484-0.822,0.575v2.721h7.592v6.259h-2.449v2.298H277.38v-2.266
			h-2.348V30.997z M289.952,36.44v-2.358h-11.521v2.358H289.952z"/>
	</g>
	<g>
		<path fill="#FFFFFF" d="M113.376,72.703v-9.189h1.403v1.303c0.674-1.011,1.649-1.515,2.924-1.515c0.554,0,1.063,0.099,1.528,0.3
			c0.466,0.198,0.812,0.459,1.043,0.781c0.23,0.324,0.393,0.707,0.485,1.151c0.057,0.287,0.087,0.794,0.087,1.515v5.654h-1.559
			v-5.594c0-0.633-0.062-1.106-0.183-1.423c-0.12-0.314-0.337-0.565-0.644-0.752c-0.312-0.188-0.674-0.281-1.088-0.281
			c-0.664,0-1.236,0.21-1.718,0.632c-0.483,0.421-0.723,1.219-0.723,2.396v5.021H113.376L113.376,72.703z"/>
		<path fill="#FFFFFF" d="M129.085,69.742l1.609,0.198c-0.254,0.941-0.724,1.671-1.412,2.191c-0.687,0.52-1.563,0.778-2.629,0.778
			c-1.347,0-2.41-0.415-3.2-1.242c-0.786-0.829-1.181-1.989-1.181-3.485c0-1.546,0.398-2.745,1.194-3.599
			c0.797-0.856,1.83-1.282,3.098-1.282c1.229,0,2.234,0.419,3.011,1.256c0.78,0.838,1.17,2.014,1.17,3.53
			c0,0.092-0.003,0.232-0.008,0.417h-6.855c0.058,1.009,0.344,1.781,0.857,2.319c0.517,0.536,1.154,0.806,1.922,0.806
			c0.571,0,1.058-0.15,1.462-0.45C128.525,70.878,128.847,70.399,129.085,69.742z M123.971,67.222h5.132
			c-0.071-0.772-0.268-1.354-0.589-1.736c-0.498-0.603-1.141-0.899-1.932-0.899c-0.715,0-1.317,0.236-1.806,0.719
			C124.29,65.782,124.021,66.422,123.971,67.222z"/>
		<path fill="#FFFFFF" d="M131.627,68.105c0-1.702,0.473-2.961,1.42-3.783c0.791-0.681,1.751-1.021,2.891-1.021
			c1.263,0,2.297,0.415,3.098,1.242c0.804,0.829,1.203,1.972,1.203,3.432c0,1.183-0.178,2.114-0.532,2.791s-0.87,1.204-1.549,1.581
			c-0.679,0.372-1.417,0.562-2.22,0.562c-1.288,0-2.328-0.413-3.12-1.237S131.627,69.659,131.627,68.105z M133.228,68.105
			c0,1.178,0.257,2.058,0.771,2.645c0.518,0.587,1.162,0.88,1.94,0.88c0.774,0,1.419-0.296,1.93-0.886
			c0.515-0.587,0.77-1.482,0.77-2.69c0-1.136-0.257-1.997-0.774-2.582c-0.516-0.588-1.158-0.879-1.925-0.879
			c-0.777,0-1.423,0.29-1.94,0.874C133.484,66.047,133.228,66.928,133.228,68.105z"/>
		<path fill="#FFFFFF" d="M141.767,72.703V60.014h2.529l3.004,8.984c0.277,0.836,0.479,1.463,0.606,1.878
			c0.145-0.462,0.369-1.141,0.673-2.036l3.039-8.826h2.259v12.689h-1.617V62.084l-3.688,10.619h-1.516l-3.669-10.805v10.805H141.767
			z"/>
		<path fill="#FFFFFF" d="M161.939,71.57c-0.574,0.488-1.132,0.832-1.663,1.036c-0.533,0.201-1.107,0.304-1.721,0.304
			c-1.009,0-1.785-0.248-2.327-0.741c-0.54-0.493-0.812-1.124-0.812-1.892c0-0.449,0.102-0.86,0.305-1.233
			c0.207-0.374,0.476-0.671,0.805-0.896c0.336-0.226,0.709-0.395,1.123-0.508c0.307-0.083,0.769-0.159,1.386-0.237
			c1.258-0.149,2.182-0.326,2.777-0.534c0.006-0.216,0.01-0.351,0.01-0.407c0-0.634-0.148-1.082-0.441-1.34
			c-0.398-0.354-0.988-0.528-1.776-0.528c-0.73,0-1.272,0.128-1.623,0.384c-0.349,0.259-0.605,0.711-0.772,1.364l-1.523-0.209
			c0.14-0.65,0.366-1.18,0.684-1.579c0.316-0.401,0.774-0.709,1.375-0.926c0.604-0.218,1.297-0.325,2.087-0.325
			c0.783,0,1.422,0.094,1.908,0.277c0.495,0.186,0.856,0.416,1.085,0.697c0.232,0.277,0.393,0.63,0.483,1.061
			c0.056,0.265,0.078,0.743,0.078,1.438v2.076c0,1.447,0.034,2.363,0.102,2.746c0.065,0.385,0.197,0.754,0.395,1.106h-1.629
			C162.089,72.378,161.985,72.001,161.939,71.57z M161.812,68.088c-0.565,0.232-1.412,0.429-2.545,0.591
			c-0.639,0.093-1.093,0.194-1.357,0.311c-0.267,0.115-0.471,0.284-0.617,0.507c-0.144,0.223-0.217,0.469-0.217,0.74
			c0,0.416,0.159,0.761,0.474,1.038c0.312,0.276,0.776,0.415,1.38,0.415c0.6,0,1.135-0.133,1.603-0.396
			c0.468-0.26,0.812-0.618,1.029-1.075c0.167-0.353,0.251-0.872,0.251-1.56V68.088L161.812,68.088z"/>
		<path fill="#FFFFFF" d="M165.342,72.703v-9.189h1.402v1.39c0.354-0.651,0.687-1.079,0.987-1.288c0.307-0.208,0.637-0.313,1-0.313
			c0.525,0,1.062,0.167,1.604,0.502l-0.536,1.445c-0.382-0.226-0.764-0.338-1.146-0.338c-0.339,0-0.645,0.104-0.918,0.309
			c-0.271,0.205-0.464,0.488-0.577,0.853c-0.176,0.556-0.261,1.16-0.261,1.818v4.812H165.342L165.342,72.703z"/>
		<path fill="#FFFFFF" d="M170.826,72.703V60.014h1.557v7.235l3.689-3.735h2.016l-3.513,3.406l3.867,5.783h-1.92l-3.04-4.701
			l-1.1,1.057v3.645H170.826L170.826,72.703z"/>
		<path fill="#FFFFFF" d="M185.53,69.742l1.609,0.198c-0.255,0.941-0.725,1.671-1.41,2.191c-0.687,0.52-1.564,0.778-2.632,0.778
			c-1.345,0-2.409-0.415-3.196-1.242c-0.79-0.829-1.183-1.989-1.183-3.485c0-1.546,0.396-2.745,1.194-3.599
			c0.797-0.856,1.828-1.282,3.095-1.282c1.232,0,2.236,0.419,3.015,1.256c0.778,0.838,1.167,2.014,1.167,3.53
			c0,0.092-0.002,0.232-0.008,0.417h-6.854c0.057,1.009,0.343,1.781,0.856,2.319c0.514,0.536,1.153,0.806,1.922,0.806
			c0.569,0,1.058-0.15,1.462-0.45C184.972,70.878,185.292,70.399,185.53,69.742z M180.413,67.222h5.132
			c-0.068-0.772-0.265-1.354-0.588-1.736c-0.496-0.603-1.139-0.899-1.928-0.899c-0.717,0-1.319,0.236-1.808,0.719
			C180.735,65.782,180.469,66.422,180.413,67.222z"/>
		<path fill="#FFFFFF" d="M192.052,71.308l0.227,1.375c-0.439,0.095-0.83,0.143-1.177,0.143c-0.563,0-1.005-0.092-1.315-0.271
			c-0.312-0.178-0.53-0.413-0.657-0.704c-0.128-0.293-0.189-0.903-0.189-1.84v-5.287h-1.145v-1.209h1.145v-2.282l1.547-0.935v3.215
			h1.567v1.209h-1.567v5.377c0,0.442,0.03,0.73,0.084,0.855c0.056,0.127,0.144,0.229,0.269,0.305
			c0.122,0.074,0.299,0.113,0.53,0.113C191.542,71.371,191.772,71.349,192.052,71.308z"/>
		<path fill="#FFFFFF" d="M193.141,61.803v-1.789h1.562v1.789H193.141z M193.141,72.703v-9.189h1.562v9.189H193.141z"/>
		<path fill="#FFFFFF" d="M196.628,72.703v-9.189h1.401v1.303c0.675-1.011,1.654-1.515,2.927-1.515c0.554,0,1.062,0.099,1.527,0.3
			c0.464,0.198,0.812,0.459,1.042,0.781c0.229,0.324,0.394,0.707,0.483,1.151c0.06,0.287,0.088,0.794,0.088,1.515v5.654h-1.558
			v-5.594c0-0.633-0.062-1.106-0.185-1.423c-0.118-0.314-0.333-0.565-0.644-0.752c-0.309-0.188-0.671-0.281-1.085-0.281
			c-0.667,0-1.238,0.21-1.719,0.632c-0.481,0.421-0.725,1.219-0.725,2.396v5.021H196.628L196.628,72.703z"/>
		<path fill="#FFFFFF" d="M205.759,73.464l1.516,0.226c0.062,0.467,0.236,0.806,0.525,1.021c0.387,0.287,0.914,0.435,1.583,0.435
			c0.721,0,1.28-0.147,1.669-0.435c0.395-0.287,0.659-0.691,0.797-1.213c0.081-0.314,0.121-0.983,0.113-1.997
			c-0.68,0.802-1.529,1.202-2.543,1.202c-1.265,0-2.242-0.456-2.936-1.368c-0.692-0.912-1.039-2.004-1.039-3.281
			c0-0.877,0.159-1.688,0.479-2.429c0.316-0.74,0.776-1.312,1.379-1.716c0.605-0.403,1.312-0.606,2.127-0.606
			c1.083,0,1.976,0.44,2.68,1.316v-1.105h1.438v7.943c0,1.431-0.147,2.444-0.437,3.042c-0.293,0.596-0.755,1.068-1.386,1.415
			c-0.633,0.345-1.409,0.519-2.334,0.519c-1.095,0-1.98-0.245-2.656-0.74C206.06,75.196,205.733,74.454,205.759,73.464z
			 M207.048,67.94c0,1.206,0.238,2.086,0.717,2.641c0.479,0.552,1.079,0.832,1.802,0.832c0.715,0,1.317-0.277,1.802-0.826
			c0.48-0.551,0.727-1.415,0.727-2.594c0-1.124-0.251-1.974-0.752-2.544c-0.496-0.571-1.1-0.856-1.803-0.856
			c-0.692,0-1.278,0.279-1.766,0.844C207.29,66.001,207.048,66.836,207.048,67.94z"/>
		<path fill="#FFFFFF" d="M222.357,72.703l-3.369-12.691h1.719l1.932,8.317c0.207,0.871,0.386,1.738,0.539,2.597
			c0.321-1.354,0.512-2.14,0.569-2.347l2.412-8.567h2.028l1.816,6.423c0.458,1.594,0.786,3.09,0.987,4.491
			c0.165-0.801,0.372-1.719,0.631-2.759l1.989-8.153h1.69l-3.479,12.689h-1.62l-2.673-9.669c-0.225-0.807-0.358-1.304-0.397-1.489
			c-0.136,0.587-0.259,1.08-0.375,1.489l-2.691,9.669H222.357L222.357,72.703z"/>
		<path fill="#FFFFFF" d="M235.646,68.105c0-1.702,0.476-2.961,1.42-3.783c0.79-0.681,1.752-1.021,2.888-1.021
			c1.266,0,2.299,0.415,3.1,1.242c0.803,0.829,1.205,1.972,1.205,3.432c0,1.183-0.176,2.114-0.536,2.791
			c-0.351,0.677-0.868,1.204-1.547,1.581c-0.677,0.372-1.416,0.562-2.222,0.562c-1.283,0-2.324-0.413-3.117-1.237
			C236.043,70.847,235.646,69.659,235.646,68.105z M237.248,68.105c0,1.178,0.257,2.058,0.771,2.645s1.16,0.88,1.938,0.88
			c0.772,0,1.417-0.296,1.931-0.886c0.514-0.587,0.772-1.482,0.772-2.69c0-1.136-0.259-1.997-0.778-2.582
			c-0.516-0.588-1.156-0.879-1.925-0.879c-0.775,0-1.424,0.29-1.938,0.874C237.503,66.047,237.248,66.928,237.248,68.105z"/>
		<path fill="#FFFFFF" d="M245.622,72.703v-9.189h1.404v1.39c0.358-0.651,0.687-1.079,0.991-1.288c0.303-0.208,0.634-0.313,1-0.313
			c0.521,0,1.056,0.167,1.599,0.502l-0.535,1.445c-0.381-0.226-0.763-0.338-1.144-0.338c-0.34,0-0.645,0.104-0.92,0.309
			c-0.272,0.205-0.464,0.488-0.579,0.853c-0.173,0.556-0.259,1.16-0.259,1.818v4.812H245.622L245.622,72.703z"/>
		<path fill="#FFFFFF" d="M251.108,72.703V60.014h1.561v7.235l3.686-3.735h2.016l-3.513,3.406l3.869,5.783h-1.924l-3.036-4.701
			l-1.098,1.057v3.645H251.108L251.108,72.703z"/>
		<path fill="#FFFFFF" d="M258.897,69.958l1.543-0.241c0.084,0.617,0.323,1.089,0.72,1.416c0.396,0.331,0.943,0.497,1.656,0.497
			c0.719,0,1.248-0.146,1.595-0.438c0.347-0.292,0.52-0.633,0.52-1.026c0-0.353-0.149-0.628-0.458-0.83
			c-0.213-0.141-0.746-0.314-1.595-0.526c-1.145-0.289-1.934-0.537-2.375-0.749c-0.44-0.212-0.773-0.505-1.004-0.873
			c-0.227-0.374-0.345-0.785-0.345-1.235c0-0.41,0.096-0.789,0.283-1.141c0.188-0.349,0.44-0.635,0.767-0.866
			c0.243-0.18,0.571-0.331,0.989-0.455c0.42-0.126,0.87-0.188,1.347-0.188c0.721,0,1.355,0.104,1.901,0.313
			c0.548,0.209,0.945,0.488,1.208,0.844c0.258,0.353,0.44,0.83,0.536,1.423l-1.523,0.209c-0.071-0.475-0.271-0.844-0.602-1.108
			c-0.334-0.267-0.802-0.398-1.407-0.398c-0.715,0-1.227,0.119-1.535,0.354c-0.303,0.236-0.456,0.515-0.456,0.83
			c0,0.202,0.063,0.385,0.19,0.546c0.126,0.166,0.327,0.306,0.6,0.415c0.153,0.059,0.615,0.19,1.376,0.398
			c1.102,0.293,1.868,0.534,2.306,0.722c0.438,0.188,0.777,0.461,1.023,0.816c0.253,0.359,0.377,0.802,0.377,1.334
			c0,0.518-0.153,1.008-0.456,1.467s-0.739,0.815-1.311,1.065c-0.569,0.251-1.221,0.378-1.939,0.378
			c-1.194,0-2.108-0.25-2.733-0.746C259.468,71.67,259.067,70.932,258.897,69.958z"/>
		<path fill="#FFFFFF" d="M267.941,72.703V60.014h1.556v4.552c0.729-0.843,1.648-1.264,2.752-1.264c0.683,0,1.275,0.135,1.775,0.403
			c0.504,0.269,0.86,0.639,1.078,1.11c0.217,0.476,0.322,1.158,0.322,2.062v5.826h-1.556v-5.826c0-0.779-0.169-1.347-0.504-1.701
			c-0.338-0.355-0.817-0.533-1.436-0.533c-0.462,0-0.896,0.122-1.306,0.358c-0.404,0.239-0.695,0.565-0.87,0.974
			c-0.17,0.411-0.257,0.978-0.257,1.697v5.031H267.941z"/>
		<path fill="#FFFFFF" d="M276.774,68.105c0-1.702,0.475-2.961,1.422-3.783c0.79-0.681,1.752-1.021,2.889-1.021
			c1.265,0,2.297,0.415,3.101,1.242c0.801,0.829,1.203,1.972,1.203,3.432c0,1.183-0.18,2.114-0.532,2.791
			c-0.354,0.677-0.868,1.204-1.551,1.581c-0.679,0.372-1.42,0.562-2.221,0.562c-1.286,0-2.325-0.413-3.121-1.237
			C277.173,70.847,276.774,69.659,276.774,68.105z M278.376,68.105c0,1.178,0.259,2.058,0.774,2.645
			c0.512,0.587,1.156,0.88,1.935,0.88c0.775,0,1.42-0.296,1.932-0.886c0.514-0.587,0.771-1.482,0.771-2.69
			c0-1.136-0.257-1.997-0.774-2.582c-0.512-0.588-1.16-0.879-1.926-0.879c-0.776,0-1.423,0.29-1.937,0.874
			C278.634,66.047,278.376,66.928,278.376,68.105z"/>
		<path fill="#FFFFFF" d="M286.769,76.225V63.514h1.422v1.191c0.334-0.469,0.713-0.817,1.135-1.053
			c0.42-0.233,0.932-0.351,1.529-0.351c0.784,0,1.479,0.204,2.078,0.605c0.6,0.404,1.054,0.973,1.36,1.709
			c0.307,0.734,0.458,1.541,0.458,2.419c0,0.941-0.169,1.786-0.508,2.539c-0.338,0.756-0.828,1.332-1.47,1.732
			c-0.648,0.402-1.32,0.604-2.032,0.604c-0.517,0-0.984-0.11-1.398-0.33c-0.41-0.219-0.75-0.496-1.014-0.831v4.476H286.769z
			 M288.182,68.157c0,1.185,0.239,2.057,0.72,2.624c0.479,0.565,1.057,0.849,1.738,0.849c0.692,0,1.284-0.293,1.779-0.88
			c0.49-0.587,0.735-1.492,0.735-2.722c0-1.172-0.239-2.049-0.721-2.63c-0.482-0.585-1.06-0.875-1.729-0.875
			c-0.665,0-1.247,0.31-1.759,0.932C288.437,66.073,288.182,66.974,288.182,68.157z"/>
	</g>
	<path fill="#FFFFFF" d="M76.628,42.892c-1.358,0-2.484,0.586-3.368,1.768c-0.884,1.181-1.325,2.979-1.325,5.391
		c0,2.447,0.438,4.259,1.316,5.433c0.878,1.173,1.982,1.756,3.309,1.756c1.343,0,2.449-0.578,3.309-1.734
		c0.864-1.153,1.298-3.008,1.298-5.558c0-2.377-0.438-4.15-1.308-5.312C78.985,43.471,77.91,42.892,76.628,42.892z"/>
	<path fill="none" d="M76.49,35.651c-4.261,0-7.64,1.358-10.145,4.072c-0.032,0.034-0.06,0.072-0.09,0.107
		c0.687,0.815,1.281,1.73,1.766,2.773c1.046,2.259,1.566,5.197,1.566,8.816v1.19h-6.81c0.169,1.22,0.454,2.368,0.879,3.439
		l5.411,0.568c-0.767,1.515-1.621,2.782-2.558,3.827c0.175,0.182,0.338,0.37,0.523,0.543c2.412,2.239,5.571,3.361,9.479,3.361
		c4.383,0,7.815-1.35,10.296-4.046c2.48-2.697,3.717-6.157,3.717-10.379c0-3.759-0.999-6.919-2.997-9.49
		C85.042,37.245,81.36,35.651,76.49,35.651z"/>
	<path fill="none" d="M43.457,57.923c-1.2-2.23-1.805-4.854-1.805-7.872c0-4.288,1.208-7.76,3.619-10.413
		c-0.273-0.488-0.58-0.938-0.932-1.329c-1.584-1.773-3.778-2.657-6.58-2.657c-2.073,0-3.83,0.4-5.272,1.202
		c-1.444,0.801-2.869,2.136-4.28,4.003v-4.571h-9.429v28.063h10.126V50.873c0-2.557,0.384-4.326,1.146-5.313
		c0.764-0.987,1.758-1.482,2.986-1.482c1.11,0,1.974,0.369,2.586,1.101c0.613,0.728,0.922,1.977,0.922,3.74V64.35h10.173v-2.41
		C45.454,60.943,44.367,59.606,43.457,57.923z"/>
	<path fill="#FFFFFF" d="M52.261,56.384c0.893,1.192,2.055,1.783,3.495,1.783c0.908,0,1.773-0.257,2.59-0.773
		c0.498-0.327,1.037-0.905,1.612-1.734l3.698,0.392c-0.426-1.071-0.71-2.222-0.879-3.439H51.057
		C51.223,54.301,51.624,55.559,52.261,56.384z"/>
	<path fill="#FFFFFF" d="M58.743,43.202c-0.779-0.88-1.806-1.32-3.077-1.32c-1.469,0-2.64,0.662-3.521,1.992
		c-0.56,0.824-0.915,2.057-1.068,3.696h9.108C60.006,45.537,59.524,44.077,58.743,43.202z"/>
	<path fill="#FFFFFF" d="M80.266,19.063H37.029h-7.518H5.249v24.264v5.547v7.798c0,13.401,10.863,24.266,24.263,24.266h50.754
		c13.4,0,24.267-10.864,24.267-24.266V43.327C104.532,29.927,93.665,19.063,80.266,19.063z M86.808,60.303
		c-2.479,2.698-5.912,4.047-10.296,4.047c-3.909,0-7.066-1.121-9.479-3.362c-0.186-0.173-0.349-0.36-0.523-0.543
		c-0.772,0.858-1.598,1.568-2.487,2.107c-1.967,1.199-4.791,1.798-8.472,1.798c-3.194,0-5.709-0.515-7.542-1.54
		c-0.45-0.253-0.882-0.544-1.295-0.87v2.41H36.542V48.918c0-1.763-0.31-3.012-0.922-3.74c-0.612-0.732-1.476-1.101-2.585-1.101
		c-1.229,0-2.224,0.494-2.987,1.482c-0.762,0.988-1.146,2.757-1.146,5.313V64.35H18.78V36.287h9.429v4.571
		c1.41-1.867,2.835-3.203,4.28-4.003c1.441-0.801,3.199-1.202,5.272-1.202c2.802,0,4.996,0.884,6.58,2.657
		c0.352,0.393,0.657,0.841,0.932,1.33c0.002-0.002,0.003-0.004,0.004-0.005c2.413-2.655,5.75-3.982,10.006-3.982
		c3.449,0,6.176,0.595,8.174,1.784c1.077,0.639,2.002,1.445,2.801,2.396c0.03-0.035,0.058-0.074,0.09-0.107
		c2.504-2.714,5.883-4.072,10.145-4.072c4.871,0,8.553,1.592,11.038,4.783c1.998,2.571,2.997,5.73,2.997,9.49
		C90.525,54.146,89.289,57.606,86.808,60.303z"/>
	<g>
		<path opacity="0.5" fill="#FFFFFF" enable-background="new    " d="M67.033,60.987c2.412,2.24,5.571,3.362,9.479,3.362
			c4.384,0,7.816-1.35,10.296-4.047c2.481-2.696,3.718-6.156,3.718-10.378c0-3.759-0.999-6.919-2.997-9.49
			c-2.486-3.19-6.168-4.783-11.038-4.783c-4.261,0-7.64,1.358-10.145,4.072c-0.032,0.034-0.06,0.073-0.09,0.107
			c0.687,0.815,1.281,1.73,1.766,2.773c1.046,2.259,1.566,5.197,1.566,8.816v1.19h-6.81c0.169,1.222,0.468,2.366,0.892,3.441
			l5.398,0.566c-0.767,1.515-1.621,2.782-2.558,3.827 M79.866,55.505c-0.858,1.155-1.966,1.734-3.309,1.734
			c-1.326,0-2.431-0.583-3.309-1.756c-0.879-1.174-1.316-2.986-1.316-5.433c0-2.412,0.44-4.21,1.325-5.391
			c0.885-1.182,2.011-1.768,3.368-1.768c1.282,0,2.358,0.579,3.229,1.743c0.87,1.163,1.308,2.935,1.308,5.312
			C81.164,52.497,80.73,54.352,79.866,55.505z"/>
		<path fill="none" d="M76.628,42.892c-1.358,0-2.484,0.586-3.368,1.768c-0.884,1.181-1.325,2.979-1.325,5.391
			c0,2.447,0.438,4.259,1.316,5.433c0.878,1.173,1.982,1.756,3.309,1.756c1.343,0,2.449-0.578,3.309-1.734
			c0.864-1.153,1.298-3.008,1.298-5.558c0-2.377-0.438-4.15-1.308-5.312C78.985,43.471,77.91,42.892,76.628,42.892z"/>
	</g>
	<g>
		<path opacity="0.5" fill="#FFFFFF" enable-background="new    " d="M43.457,57.923c-1.2-2.23-1.805-4.854-1.805-7.872
			c0-4.288,1.208-7.76,3.619-10.413c-0.273-0.488-0.58-0.938-0.932-1.329c-1.584-1.773-3.778-2.657-6.58-2.657
			c-2.073,0-3.83,0.4-5.272,1.202c-1.444,0.801-2.869,2.136-4.28,4.003v-4.571h-9.429v28.063h10.126V50.873
			c0-2.557,0.384-4.326,1.146-5.313c0.764-0.987,1.758-1.482,2.986-1.482c1.11,0,1.974,0.369,2.586,1.101
			c0.613,0.728,0.922,1.977,0.922,3.74V64.35h10.173v-2.41C45.454,60.943,44.367,59.606,43.457,57.923z"/>
	</g>
</g>
</svg>
