<?xml version="1.0" encoding="utf-8"?>
<!-- Generator: Adobe Illustrator 26.3.1, SVG Export Plug-In . SVG Version: 6.00 Build 0)  -->
<svg version="1.1" id="a" xmlns="http://www.w3.org/2000/svg" xmlns:xlink="http://www.w3.org/1999/xlink" x="0px" y="0px"
	 viewBox="0 0 336.6 130.1" style="enable-background:new 0 0 336.6 130.1;" xml:space="preserve">
<style type="text/css">
	.st0{fill:#FFFFFF;stroke:#000000;stroke-width:2.12;stroke-miterlimit:10;}
	.st1{fill:none;stroke:#000000;stroke-width:2;stroke-miterlimit:10;}
	.st2{fill:none;stroke:#000000;stroke-linecap:round;stroke-linejoin:round;}
	.st3{fill:none;}
	.st4{fill:#FFFFFF;}
</style>
<circle cx="42.2" cy="45.9" r="0.8"/>
<rect y="37.6" width="329.9" height="54.1"/>
<rect x="5.7" y="28.3" class="st0" width="329.9" height="57.6"/>
<g>
	<path d="M224.8,46.4l0.3,1.4c-1.3,0.7-2.7,1.3-3.9,1.9l-0.6-1.5c0.5-0.2,1-0.4,1.6-0.6v-3.4H221v-1.5h1.4v-2.8h1.4v2.8h1.2v1.5
		h-1.2V47L224.8,46.4L224.8,46.4z M230.5,50.1c0.7,0,0.8-0.3,0.9-1.6c0.3,0.2,0.9,0.5,1.3,0.5c-0.2,1.8-0.6,2.4-2.1,2.4h-2.7
		c-1.7,0-2.2-0.5-2.2-2.2v-3.3l-0.7,0.3l-0.6-1.3l1.2-0.5V41h1.4v2.7l1.1-0.5v-3.5h1.4v2.9L231,42l1.1,0.4l-0.1,0.2
		c-0.1,1.8-0.2,4.1-0.6,5.7l-1.2-0.3c0.1-1,0.2-2.7,0.3-4.2l-1,0.4v4.5h-1.4v-3.9l-1.1,0.5v4c0,0.7,0.1,0.9,0.9,0.9L230.5,50.1
		L230.5,50.1z"/>
	<path d="M220.7,73.1c0.4-0.6,0.7-1.6,0.8-2.3l1,0.4c-0.2,0.8-0.4,1.8-0.7,2.4L220.7,73.1L220.7,73.1z M226.8,70.5H221v-1.2h2.2
		v-0.6h-1.9v-1.2h1.9V67h-2v-4.8h5.3V67h-2v0.6h2v1.2h-2v0.6h2.2L226.8,70.5L226.8,70.5z M222.4,66h1.1v-2.8h-1.1v0.5l0.6-0.2
		c0.2,0.6,0.4,1.3,0.4,1.8l-0.7,0.2c0-0.5-0.1-1.2-0.3-1.8V66L222.4,66z M223.7,71.1c0.1,0.7,0.2,1.6,0.2,2.2l-1,0.1
		c0-0.6,0-1.5-0.1-2.2L223.7,71.1L223.7,71.1z M224.9,71c0.2,0.7,0.4,1.5,0.5,2.1l-0.9,0.2c-0.1-0.6-0.3-1.5-0.5-2.1L224.9,71
		L224.9,71z M225.4,63.2h-1.1v2.1c0.2-0.5,0.4-1.3,0.5-1.8l0.6,0.2V63.2L225.4,63.2z M225.4,66v-1.8c-0.2,0.5-0.4,1.1-0.6,1.4
		l-0.5-0.2V66H225.4L225.4,66z M230.2,65.8v2h2v5.9h-1.4v-0.4h-2.3v0.5H227v-0.9l-0.9,0.4c-0.1-0.6-0.5-1.4-0.8-2.1l0.9-0.3
		c0.4,0.6,0.7,1.4,0.9,1.9v-4.9h1.6v-6h1.5v2.6h2.4v1.4L230.2,65.8L230.2,65.8z M230.7,69.2h-2.3v2.7h2.3V69.2z"/>
</g>
<g>
	<path d="M175.8,62.4l1.2,0.5c-1.3,1.4-2.3,3.2-2.3,5.6s1,4.2,2.3,5.6l-1.2,0.5c-1.4-1.4-2.5-3.4-2.5-6.2S174.4,63.7,175.8,62.4z"/>
	<path d="M188.8,72.2v1.6h-10.9v-1.6H188.8z M188.1,63.8v1.5h-9.6v-1.5C178.5,63.8,188.1,63.8,188.1,63.8z M187.1,67.8v1.6h-7.7
		v-1.6H187.1z"/>
	<path d="M190.8,74.7l-1.2-0.5c1.3-1.4,2.3-3.2,2.3-5.6s-1-4.2-2.3-5.6l1.2-0.5c1.4,1.4,2.5,3.4,2.5,6.2S192.2,73.3,190.8,74.7z"/>
</g>
<g>
	<path d="M248.1,42.8c-0.4,0.3-0.8,0.7-1.2,1c-0.4-0.5-1.2-1.4-1.8-1.7c2.4-1.7,4.2-4,5.1-5.9l2.6,0.5c-0.3,0.5-0.7,1.1-1,1.7h3.3
		c-0.2-0.5-0.4-1.1-0.7-1.6l2.4-0.7c0.4,0.7,0.8,1.5,1,2.3h6.2v2h-6.6v0.9h5.6V43h-5.6v0.9h5.7v1.7h-5.7v1h7.1v2h-14v0.6h-2.6
		L248.1,42.8L248.1,42.8z M253.4,53.3c-1.5,1.3-4.2,2.4-6.5,3c-0.4-0.6-1.1-1.5-1.6-2c2.2-0.3,4.8-1,6.1-1.8L253.4,53.3L253.4,53.3z
		 M256.7,52v4.8h-2.6V52h-8.4v-2.1h8.4v-1.1h2.6v1.1h8.5V52H256.7z M255.1,40.4h-4.4v0.9h4.4V40.4z M255.1,43h-4.4v0.9h4.4V43z
		 M255.1,45.6h-4.4v1h4.4V45.6z M259,52.2c1.9,0.6,4.8,1.7,6.3,2.4l-1.6,1.7c-1.4-0.7-4.2-1.8-6.2-2.6L259,52.2L259,52.2z"/>
	<path d="M267.2,54.3c1-1.3,1.8-3.3,2.3-5.1l2.3,0.9c-0.5,1.9-1.3,4.1-2.3,5.5L267.2,54.3z M276.1,47.6h-6.8V37.2h15.5v10.4h-8.2
		c1.5,0.8,3.1,1.9,4,2.8l-1.8,1.8c-0.9-1-2.7-2.3-4.2-3.2L276.1,47.6L276.1,47.6z M271.8,41.3h4.1v-1.8h-4.1V41.3z M271.8,45.3h4.1
		v-1.9h-4.1V45.3z M279.4,54c0.9,0,1.1-0.3,1.2-2.5c0.5,0.4,1.6,0.8,2.3,1c-0.3,3.1-1,3.9-3.3,3.9H276c-2.9,0-3.6-0.8-3.6-3.1v-3.6
		h2.6v3.6c0,0.7,0.2,0.8,1.3,0.8L279.4,54L279.4,54z M282.3,39.4h-4v1.8h4V39.4z M282.3,43.4h-4v1.9h4V43.4z M284.4,49
		c1.2,1.7,2.4,3.8,2.9,5.3l-2.5,1.1c-0.4-1.5-1.5-3.7-2.6-5.4L284.4,49L284.4,49z"/>
	<path d="M302.6,38.3c2,1.9,4.6,4.6,5.7,6.5l-2.2,1.6c-0.3-0.5-0.7-1.1-1.1-1.7c-11.5,0.6-13,0.6-14.2,1c-0.1-0.5-0.5-1.8-0.9-2.5
		c0.6-0.2,1.1-0.6,1.8-1.3c0.8-0.7,3.1-3.3,4.6-6L299,37c-1.4,2-3.1,4-4.7,5.6l8.9-0.3c-0.9-1-1.7-1.9-2.5-2.7L302.6,38.3
		L302.6,38.3z M291.5,47.1h14.6v9.6h-2.8v-1.1h-9.2v1.1h-2.6V47.1z M294.2,49.6v3.5h9.2v-3.5H294.2z"/>
	<path d="M322.5,44.9c1.4,4.3,4.1,7.8,8.1,9.4c-0.6,0.5-1.5,1.7-1.9,2.5c-3.9-1.9-6.4-5.1-8.1-9.3c-1.2,3.7-3.5,7.1-8.1,9.3
		c-0.4-0.7-1.2-1.7-1.9-2.2c5-2.2,7-5.9,7.9-9.7H311v-2.7h7.9c0.2-2.1,0.2-4.1,0.2-5.9h2.8c0,1.8,0,3.8-0.3,5.9h8.5v2.7H322.5
		L322.5,44.9z"/>
	<path d="M257.3,59l-0.3,0.4c2,1.8,5.5,3.3,9,4c-0.5,0.4-1.3,1.4-1.6,2c-0.4-0.1-0.9-0.3-1.3-0.4v5.7H248v-5.6
		c-0.5,0.2-0.9,0.3-1.3,0.4c-0.3-0.5-0.9-1.6-1.4-2c4-1,7.9-2.8,9.8-5.4C255,58.2,257.3,59,257.3,59z M262.2,64.7
		c-1-0.4-2-0.8-3-1.3V64h-7.6v-0.4c-0.9,0.4-1.7,0.9-2.6,1.2L262.2,64.7L262.2,64.7z M249.2,71.4h12.7v7.4h-2.6v-0.5h-7.6v0.6h-2.5
		L249.2,71.4L249.2,71.4z M251.6,69.1c-0.1-0.7-0.4-1.6-0.7-2.3l1.7-0.5h-2.4V69C250.1,69,251.6,69,251.6,69.1z M251.7,73.1V74h7.6
		v-0.9H251.7z M259.3,76.6v-0.9h-7.6v0.9H259.3z M254.4,66.3h-1.7c0.4,0.8,0.7,1.7,0.9,2.3l-1.4,0.4h2.2
		C254.4,69.1,254.4,66.3,254.4,66.3z M257.5,62.2c-0.6-0.5-1.3-1-1.8-1.4c-0.6,0.5-1.2,1-1.8,1.4H257.5L257.5,62.2z M256.4,66.3v2.8
		h2l-1.3-0.4c0.3-0.7,0.6-1.7,0.9-2.4H256.4L256.4,66.3z M260.7,66.3h-2.3l1.7,0.4c-0.4,0.9-0.9,1.7-1.2,2.4h1.8V66.3L260.7,66.3z"
		/>
	<path d="M274.1,64.1H267v-2h3c-0.2-0.8-0.6-2-1.1-2.9l1.8-0.7c0.5,0.9,1,2.2,1.2,2.9l-1.6,0.7h3.6L274.1,64.1L274.1,64.1z
		 M273.6,77.7h-4v0.9h-1.8v-7.5h5.8V77.7L273.6,77.7z M267.8,65h5.8v2h-5.8V65z M267.8,68h5.8v2h-5.8V68z M269.6,73.1v2.6h2.1v-2.6
		H269.6z M286.3,73.7c-0.5,0.9-1.3,1.7-2.1,2.4c0.3,0.6,0.7,0.8,1.1,0.8c0.3,0,0.5-0.6,0.6-1.8c0.4,0.4,1,0.7,1.5,0.9
		c-0.3,2.1-1,2.9-2.3,2.9c-1.1,0-2-0.6-2.6-1.6c-0.7,0.5-1.5,0.9-2.2,1.2c-0.2-0.4-0.8-1-1.2-1.4c0.9-0.4,1.8-0.9,2.7-1.5
		c-0.3-0.9-0.5-2-0.6-3.2h-2.1v0.8l1.7-0.2v1.8L279,75v1.5c0,1-0.2,1.5-0.9,1.8c-0.7,0.3-1.6,0.3-2.9,0.3c-0.1-0.6-0.4-1.3-0.6-1.8
		c0.7,0,1.6,0,1.8,0c0.3,0,0.4-0.1,0.4-0.3v-1.1c-0.9,0.1-1.8,0.2-2.6,0.3l-0.2-2c0.8-0.1,1.8-0.2,2.8-0.3v-1.1h-2.7v-1.9h2.7v-0.9
		c-0.7,0.1-1.4,0.1-2,0.2c-0.1-0.4-0.3-1.1-0.5-1.5c1.8-0.2,4-0.5,5.3-0.9l1.3,1.5c0-0.4,0-0.8,0-1.2h2.1c0,1,0,2,0.1,2.9h2.2
		c-0.4-0.6-1.3-1.4-2.1-2l1.5-1c0.8,0.6,1.8,1.4,2.2,2l-1.4,1h1.5v1.9h-3.8c0.1,0.6,0.2,1.1,0.3,1.6c0.4-0.4,0.8-0.9,1-1.4
		L286.3,73.7L286.3,73.7z M287.1,67.3h-13v-1.9h5.2v-0.9h-3.9v-1.6h3.9v-0.8h-4.5v-1.7h2.4c-0.2-0.5-0.5-1-0.8-1.4l1.8-0.7
		c0.5,0.6,1,1.5,1.2,2h2.7c0.4-0.6,0.8-1.4,1-2l2.3,0.6c-0.3,0.5-0.7,1-1,1.5h2.3v1.7h-4.8v0.8h4.1v1.6h-4.1v0.9h5.2L287.1,67.3
		L287.1,67.3z M281,70.7c0-0.6-0.1-1.1-0.1-1.7c-0.6,0.2-1.2,0.3-1.8,0.4v1.3L281,70.7L281,70.7z"/>
	<path d="M307.8,62.1v11h-2.7V72h-4.9v6.9h-2.7V72h-4.9v1.2H290V62.1h7.5v-3.8h2.7v3.8H307.8z M297.4,69.4v-4.7h-4.9v4.7H297.4z
		 M305.1,69.4v-4.7h-4.9v4.7H305.1z"/>
	<path d="M314.7,66.4c-0.3,2.8-0.9,6.7-1.6,9.1l-2.6-1.1c0.8-2.3,1.4-5.6,1.7-8.6L314.7,66.4L314.7,66.4z M318.8,64.6v10.2
		c0,1,0.2,1.2,1.2,1.2h3.1c1.1,0,1.3-0.7,1.4-4.1c0.6,0.5,1.7,0.9,2.4,1.1c-0.3,4.2-1,5.5-3.6,5.5h-3.6c-2.8,0-3.6-0.9-3.6-3.7V64.6
		H318.8L318.8,64.6z M318.6,58.7c2,1.2,4.7,3.2,6,4.6l-1.9,2c-1.2-1.3-3.8-3.4-5.9-4.8L318.6,58.7L318.6,58.7z M328,65.2
		c1.2,2.6,2.3,5.9,2.8,8.2l-2.6,1.1c-0.3-2.2-1.5-5.7-2.6-8.3L328,65.2L328,65.2z"/>
</g>
<line class="st1" x1="211.4" y1="28.3" x2="211.4" y2="86"/>
<line class="st1" x1="239.1" y1="27.6" x2="239.1" y2="85.3"/>
<line class="st2" x1="21.7" y1="71.9" x2="162.3" y2="71.9"/>
<polygon points="155.6,67.1 156.6,71.7 162.3,71.7 "/>
<line class="st3" x1="170.8" y1="73.2" x2="164.1" y2="68.5"/>
<rect x="37" y="27.2" class="st4" width="62.8" height="2.6"/>
<g>
	<g>
		<path d="M43.2,55.7c-7.9,0-13.9-2.2-17.8-6.6c-3.8-4.3-5.8-10.3-5.8-17.7s2-13.4,5.8-17.6c3.9-4.4,9.9-6.6,17.8-6.6
			S57.1,9.3,61,13.7c3.8,4.3,5.8,10.2,5.8,17.6S64.8,44.7,61,49C57.1,53.5,51.1,55.7,43.2,55.7L43.2,55.7z M43.3,22.2
			c-3.1,0-4.2,1.2-4.8,2.2c-1.2,1.8-1.7,4.1-1.7,6.9s0.6,5.2,1.7,7c0.6,0.9,1.8,2.2,4.8,2.2s4-1.2,4.6-2.2c1.1-1.8,1.7-4.1,1.7-7
			s-0.6-5.1-1.7-6.9C47.3,23.5,46.2,22.2,43.3,22.2L43.3,22.2z"/>
		<path class="st4" d="M43.2,9.6c7.2,0,12.5,1.9,15.9,5.8c3.4,3.8,5.1,9.2,5.1,16s-1.7,12.2-5.1,16.1s-8.7,5.8-15.9,5.8
			s-12.5-1.9-16-5.8s-5.1-9.2-5.1-16.1s1.7-12.1,5.2-16S36,9.6,43.2,9.6 M43.3,42.9c3.1,0,5.3-1.1,6.7-3.3s2.1-5,2.1-8.3
			S51.4,25.2,50,23s-3.7-3.3-6.7-3.3s-5.5,1.1-6.9,3.3s-2.1,5-2.1,8.3s0.7,6.1,2.1,8.3S40.1,42.9,43.3,42.9 M43.2,4.6
			C34.6,4.6,28,7.1,23.6,12c-4.3,4.8-6.4,11.3-6.4,19.3s2.1,14.6,6.4,19.4c4.4,5,11,7.5,19.7,7.5s15.2-2.5,19.6-7.5
			c4.2-4.8,6.4-11.3,6.4-19.4S67.1,16.8,62.9,12C58.5,7.1,51.9,4.6,43.2,4.6L43.2,4.6L43.2,4.6z M43.3,37.9c-2,0-2.5-0.7-2.7-1
			c-0.9-1.4-1.3-3.3-1.3-5.6s0.5-4.2,1.3-5.6c0.2-0.3,0.7-1,2.7-1c1.9,0,2.3,0.6,2.5,1c0.9,1.4,1.3,3.2,1.3,5.6s-0.5,4.3-1.3,5.6
			C45.6,37.3,45.2,37.9,43.3,37.9L43.3,37.9L43.3,37.9z"/>
	</g>
	<g>
		<path d="M116.2,55.7c-2.2,0-4.2-0.9-5.7-2.7c-1.4-1.7-2.2-3.7-2.2-6s0.7-4.3,2.2-6c1.5-1.8,3.5-2.7,5.7-2.7s4.1,0.9,5.6,2.7
			c1.4,1.7,2.2,3.7,2.2,6s-0.7,4.3-2.2,6C120.3,54.7,118.3,55.7,116.2,55.7L116.2,55.7z"/>
		<path class="st4" d="M116.2,40.7c1.4,0,2.7,0.6,3.8,1.8s1.6,2.7,1.6,4.3s-0.5,3.2-1.6,4.4s-2.3,1.8-3.8,1.8s-2.7-0.6-3.8-1.8
			c-1-1.2-1.6-2.7-1.6-4.4s0.5-3.2,1.6-4.4S114.7,40.7,116.2,40.7 M116.2,35.7c-2.9,0-5.6,1.2-7.6,3.5c-1.8,2.1-2.8,4.8-2.8,7.6
			s0.9,5.5,2.7,7.6c2,2.4,4.6,3.6,7.6,3.6s5.5-1.2,7.5-3.6c1.8-2.1,2.8-4.8,2.8-7.7s-1-5.5-2.8-7.6
			C121.7,36.9,119.1,35.7,116.2,35.7L116.2,35.7L116.2,35.7z"/>
	</g>
	<g>
		<path d="M69.2,41.8l2.6-0.2c2.5-0.2,4.8-0.6,6.7-1.1c1.2-0.3,2.3-0.7,3.4-1.2c-0.2,0-0.5,0-0.7,0c-2.4,0-4.7-0.3-6.7-0.9
			c-2.1-0.7-4-1.7-5.6-3c-1.6-1.4-2.8-3.2-3.7-5.2C64.4,28,64,25.6,64,23c0-2.8,0.5-5.4,1.5-7.7S68,11,70,9.4
			c1.9-1.5,4.2-2.7,6.9-3.5c2.6-0.8,5.5-1.2,8.7-1.2c2.9,0,5.6,0.4,8.1,1.2s4.7,2.2,6.6,3.9c1.8,1.7,3.3,3.9,4.2,6.4
			c1,2.5,1.4,5.4,1.4,8.6c0,3.5-0.6,7-1.7,10.4c-1.1,3.5-3,6.8-5.6,9.7s-6,5.3-10.1,7.2s-9.2,3-15.1,3.3l-2.3,0.1
			C71.1,55.8,69.2,41.8,69.2,41.8z M84.9,18.9c-1.5,0-2.6,0.3-3.4,0.9c-0.2,0.1-0.8,0.6-0.8,2.4s0.6,2.4,0.8,2.6
			c0.7,0.6,1.7,0.9,3.2,0.9c1.7,0,3.1-0.3,3.7-0.9c0.2-0.2,0.9-0.7,0.9-2.6c0-1.5-0.5-2-0.8-2.4C87.8,19.2,86.6,18.9,84.9,18.9
			L84.9,18.9z"/>
		<path class="st4" d="M85.5,7.3c2.6,0,5.1,0.4,7.3,1.1c2.2,0.7,4.1,1.9,5.6,3.3c1.6,1.5,2.8,3.3,3.6,5.5s1.3,4.8,1.3,7.7
			c0,3.2-0.5,6.4-1.6,9.6c-1,3.2-2.7,6.2-5.1,8.8s-5.5,4.9-9.3,6.6c-3.8,1.8-8.5,2.8-14.1,3.1L72,44c2.7-0.2,5.1-0.6,7.2-1.2
			c2.1-0.6,3.9-1.3,5.5-2.1s2.9-1.8,4-2.9c1.1-1.1,2.1-2.3,2.8-3.5c-1.3,0.8-2.7,1.4-4.3,1.8c-1.6,0.5-3.6,0.7-6,0.7
			c-2.2,0-4.2-0.3-6-0.8s-3.3-1.4-4.6-2.5s-2.3-2.6-3-4.3c-0.7-1.7-1.1-3.8-1.1-6.2c0-2.5,0.4-4.7,1.3-6.7c0.9-1.9,2.1-3.6,3.8-4.9
			s3.7-2.4,6-3.1S82.6,7.3,85.5,7.3 M84.7,28.2c2.4,0,4.2-0.5,5.3-1.5s1.7-2.5,1.7-4.5c0-1.8-0.6-3.2-1.7-4.2s-2.8-1.5-5.2-1.5
			c-2,0-3.6,0.5-4.9,1.4c-1.2,0.9-1.8,2.4-1.8,4.4s0.6,3.5,1.7,4.5C81,27.7,82.6,28.1,84.7,28.2 M85.5,2.3c-3.4,0-6.6,0.4-9.4,1.2
			c-3,0.9-5.6,2.2-7.7,3.9c-2.3,1.8-4,4.1-5.2,6.8c-1.2,2.6-1.8,5.5-1.8,8.7c0,3,0.5,5.7,1.5,8.1s2.5,4.5,4.3,6.2
			c0.9,0.8,1.8,1.4,2.8,2l-3.7,0.3l0.7,5.2l1.2,9.1l0.6,4.6l4.6-0.2c6.2-0.3,11.6-1.5,16-3.6s8.1-4.7,10.9-7.8
			c2.8-3.2,4.9-6.7,6.2-10.6c1.2-3.7,1.8-7.5,1.8-11.2s-0.5-6.8-1.6-9.6c-1.1-2.9-2.8-5.4-4.9-7.3c-2.1-2-4.6-3.5-7.5-4.4
			C91.7,2.7,88.7,2.3,85.5,2.3L85.5,2.3L85.5,2.3z M83.2,21.7c0.4-0.2,1-0.3,1.7-0.3c1.1,0,1.6,0.1,1.8,0.2c0,0.1,0,0.2,0,0.5
			c0,0.4,0,0.6-0.1,0.8c-0.2,0.1-0.8,0.2-2,0.2c-0.8,0-1.3-0.1-1.4-0.2c0-0.1-0.1-0.4-0.1-0.8C83.2,21.9,83.2,21.8,83.2,21.7
			L83.2,21.7L83.2,21.7z"/>
	</g>
	<g>
		<path d="M124,55.7l0.1-2.6c0.1-3.8,0.6-7.2,1.4-10.1c0.8-3,2.1-5.6,3.6-7.9c1.5-2.3,3.4-4.3,5.6-6c2.1-1.7,4.5-3.2,7.1-4.7
			c1-0.5,1.8-1,2.4-1.4c0.7-0.5,1-0.8,1.2-1c0.1-0.1,0.2-0.2,0.2-0.2c0.1-0.2,0.1-0.5,0.1-0.7c0-0.4-0.1-0.5-0.2-0.5
			c-0.1-0.1-0.6-0.3-1.6-0.3c-1.5,0-3,0.3-4.4,0.9s-3.1,1.7-4.9,3.2l-1.9,1.7l-9.6-11.3L125,13c2.7-2.3,5.5-4.1,8.4-5.4
			c3-1.3,6.6-2,10.7-2c5.6,0,10,1.3,13.1,3.7c3.2,2.6,4.8,6.2,4.8,10.8c0,1.6-0.2,3.1-0.5,4.4c-0.4,1.5-1,2.9-1.9,4.1
			c-0.9,1.3-2,2.5-3.4,3.6c-1.4,1.1-3,2.2-5,3.3c-1.9,1.1-3.5,2.1-4.7,3c-1.2,0.8-2.2,1.7-3,2.4c-0.1,0.1-0.2,0.2-0.3,0.3h19.1v14.5
			H124L124,55.7z"/>
		<path class="st4" d="M144.2,8c5.1,0,8.9,1.1,11.5,3.2s3.9,5.1,3.9,8.9c0,1.4-0.1,2.7-0.4,3.8s-0.8,2.3-1.5,3.3
			c-0.7,1.1-1.7,2.1-2.9,3.1s-2.8,2-4.6,3c-2,1.1-3.6,2.2-5,3.1s-2.4,1.8-3.2,2.6s-1.5,1.6-1.9,2.3c-0.4,0.8-0.7,1.5-0.9,2.3H160
			v9.5h-33.3c0.1-3.6,0.5-6.8,1.3-9.5s1.9-5.1,3.3-7.2c1.4-2.1,3.1-3.9,5.1-5.5s4.2-3.1,6.8-4.4c1.1-0.6,2-1.1,2.6-1.6
			s1.2-0.9,1.6-1.3s0.6-0.8,0.8-1.3c0.1-0.4,0.2-0.9,0.2-1.4c0-1-0.4-1.8-1-2.4c-0.7-0.6-1.8-0.9-3.2-0.9c-1.9,0-3.6,0.4-5.4,1
			c-1.7,0.7-3.6,1.9-5.6,3.6l-6.4-7.5c2.5-2.2,5.1-3.8,7.8-5.1C137.2,8.6,140.4,8,144.2,8 M144.2,3c-4.5,0-8.4,0.8-11.8,2.2
			c-3.1,1.4-6.2,3.4-9,5.9l-3.7,3.2l3.2,3.8l6.4,7.5l2.3,2.8c-1.7,1.6-3.3,3.4-4.6,5.3c-1.7,2.5-3,5.4-3.9,8.6
			c-0.9,3.1-1.4,6.7-1.5,10.8l-0.1,5.1h43.4V38.7h-14c0.5-0.3,1.1-0.7,1.7-1c2.1-1.2,3.9-2.3,5.3-3.5c1.6-1.3,2.9-2.7,3.9-4.2
			s1.8-3.2,2.2-5c0.4-1.5,0.6-3.2,0.6-5c0-5.3-2-9.7-5.7-12.8C155.3,4.5,150.4,3,144.2,3L144.2,3L144.2,3z"/>
	</g>
	<g>
		<path d="M162.3,55.7l-0.4-15.4l8.6-0.3V28.9c-1.2,0.8-2.7,1.3-4.3,1.7l-3,0.7l-0.1-3.1c-0.1-4.5-0.5-8.5-1.1-12.2l-0.4-2.5
			l2.5-0.4c3.1-0.5,4.3-1,4.7-1.3c0.8-0.5,1.4-1,1.8-1.5c0.3-0.4,0.5-0.7,0.7-0.9V7.7h16v32.1c1.7,0,3.1-0.1,4.1-0.2l2.6-0.1v16.2
			H162.3L162.3,55.7z"/>
		<path class="st4" d="M184.6,10.2v32.2c3-0.1,5.2-0.2,6.7-0.2v11h-26.6l-0.3-10.5l8.5-0.3V22.2c-1.2,3.1-3.7,5.1-7.4,6
			c-0.1-4.6-0.5-8.8-1.1-12.6c2.7-0.4,4.6-1,5.6-1.6c1.1-0.6,1.9-1.4,2.5-2.1c0.6-0.8,1-1.3,1.2-1.6v-0.1L184.6,10.2 M189.6,5.2h-21
			v3.4l-0.2,0.2c-0.1,0.1-0.4,0.5-1.1,0.9c0,0-0.9,0.5-3.8,0.9l-5,0.8l0.8,5c0.6,3.5,0.9,7.5,1,11.8l0.1,6.2l6-1.5
			c0.4-0.1,0.8-0.2,1.2-0.3v4.8l-3.7,0.1l-5,0.2l0.1,5l0.3,10.5l0.1,4.9h36.5V36.8l-5.3,0.3c-0.4,0-0.9,0-1.4,0.1L189.6,5.2
			L189.6,5.2L189.6,5.2z"/>
	</g>
</g>
</svg>
