<?xml version="1.0" encoding="UTF-8"?><svg id="_層_1" xmlns="http://www.w3.org/2000/svg" viewBox="0 0 168.79 103.46"><defs><style>.cls-1{fill:#fff;}</style></defs><path class="cls-1" d="M63.97,44.92c-3,0-4.91,1.95-5.5,4.55h10.68c-.36-2.86-2.36-4.55-5.18-4.55Z"/><path class="cls-1" d="M35.43,46.06c-3.82,0-6.23,2.64-6.23,6.32s2.45,6.36,6.23,6.36,6.32-2.59,6.32-6.36-2.55-6.32-6.32-6.32Z"/><path class="cls-1" d="M112.51,40.01c-5.73,0-10.2,2.29-10.93,8.24-.05,0,.04,0-.02,0C99.76,21.3,78.5,0,51.1,0,29.45,0,10.91,13.31,3.2,32.2H21.56l-.95,6.18H6.2v6.55h13.05l-1,5.95H6.2v3.82c0,2.32,1,3.41,2.91,3.41h12.32l-1,6.18H6.79c-.66,0-1.3-.06-1.9-.17h0s-2.36-.25-3.82-2.15c-.04-.04-.63-.75-.92-1.92-.08-.3-.08-.32-.14-.56,.1,.77,.26,1.8,.34,2.19,.41,2.16,.94,3.98,.99,4.11,6.13,21.73,26.09,37.67,49.78,37.67s44.71-16.67,50.32-39.17h-6.95v-12.64c0-3.41-1.32-5.59-4.68-5.59s-4.68,2.18-4.68,5.59v12.64h-6.96v-14.36c0-6.86,5-9.91,11.64-9.91s11.64,3.05,11.64,9.91v14.36s6.99,0,6.99,0v-12.64c0-3.41,.91-5.59,4.23-5.59,1.05,0,2.32,.32,2.77,.55l1.32-6.09c-.77-.09-2.73-.5-4.23-.5Zm-63.77,10.96c0,8.68-5.14,13.77-13.64,13.77-7.86,0-13.18-5.27-13.18-12.36s5.05-12.36,12.59-12.36c3.45,0,6,1.36,7.27,2.73v-10.55h6.96v18.77Zm17.55,8.55c2.05,0,3.94-.59,5.71-1.41l-.58,5.5c-2,.82-4.41,1.14-6.82,1.14-8,0-13.64-4.68-13.64-12.64,0-6.91,5.05-12.09,12.77-12.09,8.73,0,13.09,5.55,12.91,14.09h-18c.68,3.91,4.41,5.41,7.64,5.41Z"/><path class="cls-1" d="M128.29,40.01c-7.73,0-12.77,5.18-12.77,12.09,0,7.96,5.64,12.64,13.64,12.64,2.41,0,4.82-.32,6.82-1.14l.58-5.5c-1.77,.82-3.67,1.41-5.71,1.41-3.23,0-6.96-1.5-7.64-5.41h18c.18-8.55-4.18-14.09-12.91-14.09Zm-5.27,9.46c.59-2.59,2.5-4.55,5.5-4.55,2.82,0,4.82,1.68,5.18,4.55h-10.68Z"/><path class="cls-1" d="M161.83,32.2v10.55c-1.27-1.36-3.82-2.73-7.27-2.73-7.55,0-12.59,4.95-12.59,12.36s5.32,12.36,13.18,12.36c8.5,0,13.64-5.09,13.64-13.77v-18.77h-6.96Zm-6.36,26.55c-3.77,0-6.23-2.73-6.23-6.36s2.41-6.32,6.23-6.32,6.32,2.55,6.32,6.32-2.55,6.36-6.32,6.36Z"/></svg>