<?xml version="1.0" encoding="utf-8"?>
<!-- Generator: Adobe Illustrator 16.0.4, SVG Export Plug-In . SVG Version: 6.00 Build 0)  -->
<!DOCTYPE svg PUBLIC "-//W3C//DTD SVG 1.1//EN" "http://www.w3.org/Graphics/SVG/1.1/DTD/svg11.dtd">
<svg version="1.1" id="圖層_1" xmlns="http://www.w3.org/2000/svg" xmlns:xlink="http://www.w3.org/1999/xlink" x="0px" y="0px"
	 width="96px" height="96px" viewBox="0 0 96 96" enable-background="new 0 0 96 96" xml:space="preserve">
<g id="surface92161">
	<path fill="#FFFFFF" d="M87.203,0H8.797C4,0,0,4,0,8.797v78.406C0,92,4,96,8.797,96H48V56H36V44h12V32c0-10,4-16,16-16h12v12
		h-5.203C67.203,28,64,31.203,64,34.797V44h16l-2,12H64v40h23.203C92,96,96,92,96,87.203V8.797C96,4,92,0,87.203,0z"/>
</g>
</svg>
