<?xml version="1.0" encoding="UTF-8"?><svg id="a" xmlns="http://www.w3.org/2000/svg" viewBox="0 0 120 120"><defs><style>.b{fill:#00ed91;}.c{fill:#fff;}.d{fill:none;stroke:#000;stroke-miterlimit:10;stroke-width:.25px;}</style></defs><g><g><path class="b" d="M79.95,81.33c-8.3,0-18.76-4.59-27.97-12.28-14.63-12.21-21.36-28.36-14.99-36l5.82-6.97c2.17-2.6,5.67-3.97,10.13-3.97,8.3,0,18.76,4.59,27.97,12.28,14.63,12.21,21.36,28.36,14.99,36l-5.82,6.97c-2.17,2.6-5.67,3.97-10.13,3.97h0Z"/><path class="c" d="M52.94,22.24c8.27,0,18.7,4.58,27.89,12.25,14.58,12.17,21.3,28.24,14.97,35.82l-5.82,6.97c-2.14,2.57-5.61,3.92-10.04,3.92-8.27,0-18.7-4.58-27.89-12.25-14.58-12.17-21.3-28.24-14.97-35.82l5.82-6.97c2.14-2.57,5.61-3.92,10.04-3.92m0-.24c-4.36,0-7.96,1.3-10.22,4.01l-5.82,6.97c-6.42,7.7,.29,23.89,15,36.17,9.52,7.94,20.05,12.3,28.04,12.3,4.36,0,7.96-1.3,10.22-4.01l5.82-6.97c6.42-7.7-.29-23.89-15-36.17-9.52-7.94-20.05-12.3-28.04-12.3h0Z"/></g><path class="c" d="M52.94,22.18c8.29,0,18.73,4.58,27.93,12.26,14.61,12.19,21.33,28.3,14.98,35.91l-.09,.11c-2.15,2.58-5.64,3.95-10.08,3.95-8.29,0-18.73-4.58-27.93-12.26-14.61-12.19-21.33-28.3-14.98-35.91l.09-.11c2.15-2.58,5.64-3.95,10.08-3.95m0-.18c-4.36,0-7.96,1.3-10.22,4.01l-.09,.12c-6.42,7.7,.29,23.89,15,36.17,9.52,7.94,20.05,12.3,28.04,12.3,4.36,0,7.96-1.3,10.22-4.01l.09-.12c6.42-7.7-.29-23.89-15-36.17-9.52-7.94-20.05-12.3-28.04-12.3h0Z"/></g><g><path class="d" d="M11.95,98.16c-2.99-1.97-5.15-4.44-6.29-7.42C-.7,74.16,26.65,48.24,66.75,32.86c16.88-6.47,33.32-10.05,47.18-10.79"/><polygon points="106.07 26.78 107.9 22.5 115.26 21.84 106.07 26.78"/></g></svg>