<?xml version="1.0" encoding="UTF-8"?><svg id="a" xmlns="http://www.w3.org/2000/svg" viewBox="0 0 120 120"><defs><style>.b{fill:none;stroke:#000;stroke-linecap:round;stroke-linejoin:round;}.c{fill:#98eac9;}</style></defs><circle class="c" cx="80.91" cy="74.99" r="35.26"/><g><path class="b" d="M41.23,41.33c2.44-.89,5.08-1.38,7.83-1.38,12.63,0,22.87,10.24,22.87,22.87s-10.24,22.87-22.87,22.87H22.04"/><path class="b" d="M36.22,43.9c-6.05,4.11-10.03,11.06-10.03,18.93,0,.92,.05,1.83,.16,2.72l5.77-.54-7.09,13.86-12.3-9.98,5.36-1.46c-.24-1.55-.36-3.14-.36-4.76,0-17.26,13.99-31.25,31.25-31.25s31.25,13.99,31.25,31.25c0,.5-.01,1-.04,1.5"/><line class="b" x1="16.55" y1="85.69" x2="3.83" y2="85.69"/><path class="b" d="M79.22,70.54c-3.49,13.44-15.71,23.37-30.24,23.37H3.83"/><polyline class="b" points="70.61 85.2 81.89 85.2 81.89 78.86 93.53 89.73 82.07 100.15 82.07 93.91 46.47 93.91"/><path class="b" d="M63.69,34.78c-2.2-1.65-3.63-4.28-3.63-7.24,0-4.99,4.04-9.03,9.03-9.03s9.03,4.04,9.03,9.03l-6.2-.44,8.98,12.86,13.21-11.63-7.24-.78c0-2.94-.71-5.71-1.98-8.16"/><path class="b" d="M51.72,31.42c-.28-1.25-.42-2.55-.42-3.88,0-9.83,7.97-17.79,17.79-17.79,4.54,0,8.67,1.7,11.82,4.49"/></g></svg>