<?xml version="1.0" encoding="UTF-8"?><svg id="a" xmlns="http://www.w3.org/2000/svg" viewBox="0 0 120 120"><defs><style>.b{fill:none;stroke:#000;stroke-linecap:round;stroke-linejoin:round;}.c{fill:#98eac9;}</style></defs><circle class="c" cx="77.67" cy="76.51" r="35.26"/><g><g><path d="M17.38,74.02v26.16H8.07v-26.16h9.31m1-1H7.07v28.16h11.31v-28.16h0Z"/><path class="b" d="M18.38,77.9h3.3s3.24,.11,4.57-3.46c1.33-3.57,2.16-4.07,3.99-4.07h6.73"/><path class="b" d="M44.12,70.36h6.24s1.33,.17,1.33,1.41-1.08,4.49-2.74,4.49h-13.3"/><path class="b" d="M48.94,76.27s2.74,.33,2.74,2.74,.08,4.57-1.83,4.57h-6.19"/><path class="b" d="M49.86,83.58s1.83,.33,1.83,3.52c0,2.63-1.83,2.63-1.83,2.63h-6.19"/><path class="b" d="M49.86,89.73s1.37,.87,1.37,3.12-1.37,3.12-1.37,3.12h-8.31"/><path class="b" d="M49.86,95.97s.46,.96,.46,3.03-1.75,2.66-1.75,2.66h-14.16c-.94,0-1.86-.23-2.69-.67-1.1-.59-2.69-1.49-4.04-2.49-2.3-1.7-9.3-1.16-9.3-1.16"/><polyline class="b" points="36.97 63.42 36.97 76.27 43.66 76.27 43.66 63.42"/><path d="M40.32,36.72c7.18,0,13.03,5.84,13.03,13.03s-5.84,13.03-13.03,13.03-13.03-5.84-13.03-13.03,5.84-13.03,13.03-13.03m0-1c-7.75,0-14.03,6.28-14.03,14.03s6.28,14.03,14.03,14.03,14.03-6.28,14.03-14.03-6.28-14.03-14.03-14.03h0Z"/></g><g><path d="M100.57,46.54v26.16h-9.29v-26.16h9.29m1-1h-11.29v28.16h11.29v-28.16h0Z"/><path class="b" d="M90.28,50.42h-3.29s-3.24,.11-4.57-3.46c-1.33-3.57-2.16-4.07-3.99-4.07h-6.73"/><path class="b" d="M64.56,42.88h-6.23s-1.33,.17-1.33,1.41,1.08,4.49,2.74,4.49h13.29"/><path class="b" d="M59.75,48.78s-2.74,.33-2.74,2.74-.08,4.57,1.83,4.57h6.19"/><path class="b" d="M58.83,56.1s-1.83,.33-1.83,3.52c0,2.63,1.83,2.63,1.83,2.63h6.19"/><path class="b" d="M58.83,62.25s-1.37,.87-1.37,3.12,1.37,3.12,1.37,3.12h8.3"/><path class="b" d="M58.83,68.48s-.46,.96-.46,3.03,1.74,2.66,1.74,2.66h14.15c.94,0,1.86-.23,2.69-.67,1.1-.59,2.69-1.49,4.03-2.49,2.3-1.7,9.29-1.16,9.29-1.16"/><polyline class="b" points="71.7 35.94 71.7 48.78 65.02 48.78 65.02 35.94"/><path d="M68.36,9.23c7.18,0,13.01,5.84,13.01,13.03s-5.84,13.03-13.01,13.03-13.01-5.84-13.01-13.03,5.84-13.03,13.01-13.03m0-1c-7.74,0-14.01,6.28-14.01,14.03s6.27,14.03,14.01,14.03,14.01-6.28,14.01-14.03-6.27-14.03-14.01-14.03h0Z"/></g><polyline class="b" points="34.35 48.78 38.68 53.11 46.82 44.97"/><line class="b" x1="63.83" y1="17.66" x2="73.17" y2="27"/><line class="b" x1="73.03" y1="17.66" x2="63.76" y2="26.93"/></g></svg>