<?xml version="1.0" encoding="UTF-8"?><svg id="a" xmlns="http://www.w3.org/2000/svg" viewBox="0 0 130.8 120"><defs><style>.b{fill:none;stroke:#000;stroke-miterlimit:10;stroke-width:.25px;}</style></defs><g><path class="b" d="M72.96,99.14c6.21,7.2,9.09,13.07,7.09,15.79-3.82,5.22-24.11-3.16-45.32-18.7C13.52,80.69-.57,63.86,3.25,58.65c1.32-1.8,4.59-1.98,9.19-.81"/><path class="b" d="M91.46,84.44c7.5,8.69,10.96,15.77,8.56,19.05-4.61,6.29-29.09-3.81-54.68-22.56C19.75,62.18,2.75,41.88,7.36,35.59c1.59-2.17,5.54-2.39,11.08-.98"/><path class="b" d="M117.01,65.3c8.98,10.41,13.14,18.9,10.26,22.83-5.53,7.54-34.86-4.56-65.53-27.03C31.08,38.63,10.7,14.3,16.23,6.76c1.91-2.6,6.64-2.86,13.28-1.18"/><circle cx="58.12" cy="110.72" r="1.59"/><circle cx="29.5" cy="5.72" r="2.2"/></g><polygon points="115.25 63.78 120.63 65.64 118.18 66.94 115.25 63.78"/></svg>