<?xml version="1.0" encoding="utf-8"?>
<!-- Generator: Adobe Illustrator 26.2.1, SVG Export Plug-In . SVG Version: 6.00 Build 0)  -->
<svg version="1.1" id="a" xmlns="http://www.w3.org/2000/svg" xmlns:xlink="http://www.w3.org/1999/xlink" x="0px" y="0px"
	 viewBox="0 0 242.1 194.2" style="enable-background:new 0 0 242.1 194.2;" xml:space="preserve">
<style type="text/css">
	.st0{fill:none;stroke:#000000;stroke-width:0.75;stroke-miterlimit:10;}
	.st1{fill:#AADDF7;}
	.st2{fill:#FFFFFF;}
</style>
<path class="st0" d="M191.2,135.5c5.1,15.5,4.6,28.5-2.6,36.3c-17.8,19.1-69.5-0.3-115.6-43.2C26.9,85.7,4,35.4,21.7,16.4
	c13.3-14.3,45.8-7,80.6,15.7"/>
<g>
	<g>
		<path class="st1" d="M148.5,147.9c-13.4,0-21.9-3-23.4-8.3l-2.4-8.9c-1.2-4.7,3.1-10.5,12.3-16.6c9.2-6.1,22.2-11.5,36.6-15.3
			c12.3-3.3,24.7-5.1,34.9-5.1c13.4,0,21.9,3,23.4,8.3l2.4,8.8c2.6,9.7-19.3,24-48.9,31.9C171.1,146.1,158.7,147.9,148.5,147.9
			L148.5,147.9z"/>
		<path class="st2" d="M206.5,93.9c13.4,0,21.8,3,23.2,8.2l2.4,8.8c2.6,9.6-19.3,23.8-48.8,31.7c-12.3,3.3-24.7,5.1-34.9,5.1
			c-13.4,0-21.8-3-23.2-8.2l-2.4-8.9c-1.2-4.6,3.1-10.4,12.2-16.4c9.2-6,22.2-11.5,36.5-15.3C183.9,95.8,196.3,93.9,206.5,93.9
			L206.5,93.9 M206.5,93.6c-9.9,0-22.1,1.7-34.9,5.1c-29.7,7.9-51.6,22.3-49,32.1l2.4,8.9c1.5,5.5,10.5,8.4,23.5,8.4
			c9.9,0,22.1-1.7,34.9-5.1c29.7-7.9,51.6-22.3,49-32.1L230,102C228.5,96.5,219.5,93.6,206.5,93.6L206.5,93.6L206.5,93.6z"/>
	</g>
	<g>
		<path class="st1" d="M143.4,136c-11.8,0-19.2-2.5-20.4-6.9c-2.4-8.7,19.3-22.2,48.3-30.2c13.1-3.6,26.1-5.6,36.6-5.6
			c11.8,0,19.2,2.5,20.4,6.9c1.1,4.2-3.2,9.6-12.3,15.3c-9.1,5.7-21.9,11-36,14.9C166.8,134,153.9,136,143.4,136L143.4,136z"/>
		<path class="st2" d="M207.9,93.1v0.3c11.7,0,19,2.5,20.2,6.8c1.1,4-3.4,9.6-12.2,15.1c-9.1,5.7-21.9,11-35.9,14.9
			c-13.1,3.6-26.1,5.6-36.5,5.6c-11.7,0-19-2.5-20.2-6.8c-1.1-4,3.3-9.6,12.2-15.1c9.1-5.7,21.9-11,35.9-14.8
			c13.1-3.6,26.1-5.6,36.5-5.6V93.1 M207.9,93.1c-10.1,0-22.9,1.8-36.6,5.6c-29.1,8-50.8,21.6-48.4,30.4c1.3,4.7,9.1,7.1,20.5,7.1
			c10.1,0,22.9-1.8,36.6-5.6c29.1-8,50.8-21.6,48.4-30.4C227.1,95.5,219.3,93.1,207.9,93.1C207.9,93.1,207.9,93.1,207.9,93.1z"/>
	</g>
</g>
<circle cx="103.5" cy="32.6" r="2.7"/>
</svg>
