<?xml version="1.0" encoding="UTF-8"?><svg id="a" xmlns="http://www.w3.org/2000/svg" viewBox="0 0 167.6 150.31"><defs><style>.b{fill:#fff;}.c{fill:#aaddf7;}</style></defs><g><path class="c" d="M47.88,118.07c-13.14,0-21.87-3.55-24.58-9.99l-5.34-12.69c-2.81-6.68,1.08-15.73,10.96-25.48,9.94-9.81,24.72-19.13,41.62-26.25,17.51-7.37,34.97-11.43,49.17-11.43,13.14,0,21.87,3.55,24.58,9.99l5.34,12.69c2.81,6.68-1.08,15.73-10.96,25.48-9.93,9.81-24.72,19.13-41.62,26.25-17.51,7.37-34.97,11.43-49.17,11.43h0Z"/><path class="b" d="M119.72,32.49c13.03,0,21.68,3.49,24.35,9.83l5.34,12.69c2.77,6.58-1.11,15.53-10.91,25.21-9.91,9.79-24.67,19.09-41.55,26.19-17.48,7.36-34.91,11.41-49.07,11.41-13.03,0-21.68-3.49-24.35-9.83l-5.34-12.69c-5.78-13.74,17.75-36.8,52.45-51.4,17.48-7.36,34.91-11.41,49.07-11.41m0-.5c-13.6,0-31.18,3.83-49.27,11.45-35.01,14.74-58.62,38.04-52.72,52.06l5.34,12.69c2.85,6.78,12.08,10.14,24.81,10.14,13.6,0,31.18-3.83,49.27-11.45,35.01-14.74,58.62-38.04,52.72-52.06l-5.34-12.69c-2.85-6.78-12.08-10.14-24.81-10.14h0Z"/></g><g><path class="c" d="M42.64,105.59c-13.14,0-21.87-3.55-24.58-9.99l-.1-.22c-2.81-6.67,1.09-15.72,10.97-25.48,9.94-9.81,24.72-19.13,41.62-26.25,17.51-7.37,34.97-11.43,49.17-11.43,13.14,0,21.87,3.55,24.58,9.99l.1,.22c2.81,6.67-1.09,15.72-10.97,25.48-9.94,9.81-24.72,19.13-41.62,26.25-17.51,7.37-34.97,11.43-49.17,11.43h0Z"/><path class="b" d="M119.72,32.49c13.03,0,21.68,3.49,24.36,9.85l.09,.19c5.78,13.74-17.75,36.8-52.45,51.4-17.48,7.36-34.91,11.41-49.07,11.41-13.03,0-21.68-3.49-24.36-9.85l-.09-.19c-5.78-13.74,17.75-36.8,52.45-51.4,17.48-7.36,34.91-11.41,49.07-11.41m0-.5c-13.6,0-31.18,3.83-49.27,11.45-35.01,14.74-58.62,38.04-52.72,52.06l.1,.21c2.85,6.78,12.08,10.14,24.81,10.14,13.6,0,31.18-3.83,49.27-11.45,35.01-14.74,58.62-38.04,52.72-52.06l-.1-.21c-2.85-6.78-12.08-10.14-24.81-10.14h0Z"/></g></svg>