<?xml version="1.0" encoding="UTF-8"?><svg id="a" xmlns="http://www.w3.org/2000/svg" viewBox="0 0 120 120"><defs><style>.b{fill:#004fd8;}.c{fill:#fff;}.d{fill:none;stroke:#000;stroke-miterlimit:10;stroke-width:.25px;}</style></defs><g><g><path class="b" d="M40.36,82.46c-3.65,0-6.62-1.11-8.59-3.2l-5.86-6.25c-6.4-6.82-.96-22.38,12.14-34.67,8.62-8.09,18.89-13.12,26.78-13.12,3.65,0,6.62,1.11,8.59,3.2l5.86,6.25c3.09,3.29,3.54,8.7,1.26,15.23-2.29,6.57-7.05,13.47-13.4,19.44-8.62,8.09-18.88,13.12-26.78,13.12h0Z"/><path class="c" d="M64.83,25.38c3.61,0,6.54,1.09,8.47,3.15l5.86,6.25c3.05,3.24,3.48,8.6,1.23,15.07-2.28,6.54-7.02,13.42-13.36,19.37-8.6,8.07-18.81,13.08-26.67,13.08-3.61,0-6.54-1.09-8.47-3.15l-5.86-6.25c-3.05-3.24-3.48-8.6-1.23-15.07,2.28-6.54,7.02-13.42,13.36-19.37,8.6-8.07,18.81-13.08,26.67-13.08m0-.32c-7.67,0-17.92,4.75-26.89,13.17-13.18,12.37-18.62,28-12.15,34.9l5.86,6.25c2.07,2.2,5.1,3.25,8.71,3.25,7.67,0,17.92-4.75,26.89-13.17,13.18-12.37,18.62-28,12.15-34.9l-5.86-6.25c-2.07-2.2-5.1-3.25-8.71-3.25h0Z"/></g><path class="c" d="M64.83,25.3c3.63,0,6.58,1.1,8.54,3.18l.1,.1c3.07,3.27,3.51,8.65,1.25,15.15-2.28,6.55-7.03,13.45-13.38,19.41-8.61,8.08-18.85,13.1-26.72,13.1-3.63,0-6.58-1.1-8.54-3.18l-.1-.1c-3.07-3.27-3.51-8.65-1.25-15.15,2.28-6.55,7.03-13.45,13.38-19.41,8.61-8.08,18.85-13.1,26.72-13.1m0-.24c-7.67,0-17.92,4.75-26.89,13.17-13.18,12.37-18.62,28-12.15,34.9l.1,.1c2.07,2.2,5.1,3.25,8.71,3.25,7.67,0,17.92-4.75,26.89-13.17,13.18-12.37,18.62-28,12.15-34.9l-.1-.1c-2.07-2.2-5.1-3.25-8.71-3.25h0Z"/></g><g><path class="d" d="M18.9,49.27c.27-2.87,1.13-5.32,2.64-7.23,8.43-10.67,33.81-.69,56.69,22.29,9.63,9.67,17.28,20.11,22.29,29.75"/><polygon points="94.96 90.2 98.27 89.93 101.1 94.94 94.96 90.2"/></g></svg>