<?xml version="1.0" encoding="UTF-8"?><svg id="a" xmlns="http://www.w3.org/2000/svg" viewBox="0 0 101.66 101.66"><defs><style>.b{fill:#98eac9;}</style></defs><circle class="b" cx="50.83" cy="50.83" r="46.82"/><g><path d="M25.25,58.37c-.32-.98,.14-2.03,1.08-2.45l8.4-3.76,.89,1.56c.27,.48,.88,.65,1.36,.38,.48-.27,.65-.88,.38-1.36l-1.34-2.35c-.25-.45-.81-.63-1.28-.42l-9.22,4.13c-1.88,.84-2.81,2.95-2.16,4.9l6.6,20.11c.14,.42,.53,.69,.95,.69,.1,0,.21-.02,.31-.05,.52-.17,.81-.74,.64-1.26l-6.6-20.11Z"/><path d="M41.02,61.22c-.48,.27-.65,.88-.38,1.36l5.14,9.05c.18,.33,.52,.51,.87,.51,.17,0,.34-.04,.49-.13,.48-.27,.65-.88,.38-1.36l-5.14-9.05c-.27-.48-.88-.65-1.36-.38"/><path d="M74.19,54.12l-8.9-3.79c-.46-.2-1-.02-1.26,.42l-1.31,2.24c-.28,.48-.12,1.09,.36,1.37,.47,.28,1.09,.12,1.37-.36l.86-1.48,8.1,3.44c.95,.4,1.44,1.49,1.12,2.46l-2.09,6.36c-.17,.53,.11,1.09,.64,1.26,.1,.03,.21,.05,.31,.05,.42,0,.81-.27,.95-.69l2.09-6.36c.64-1.96-.34-4.12-2.23-4.93"/><path d="M70.96,72.48c-.53-.17-1.09,.11-1.26,.64l-1.76,5.36c-.17,.53,.11,1.09,.64,1.26,.1,.03,.21,.05,.31,.05,.42,0,.81-.27,.95-.69l1.76-5.36c.17-.53-.11-1.09-.64-1.26"/><path d="M59.03,61.17c-.49-.25-1.09-.06-1.35,.43l-8.11,15.73-12.99-10.39c-.44-.35-.68-.87-.68-1.42v-.9c0-1.46-.81-2.77-2.11-3.42-.88-.44-1.25-1.49-.84-2.39l1.53-3.35c.23-.5,0-1.1-.49-1.33-.5-.23-1.1,0-1.33,.49l-1.53,3.35c-.86,1.88-.08,4.08,1.77,5.01,.62,.31,1.01,.94,1.01,1.63v.9c0,1.17,.52,2.26,1.43,2.99l13.94,11.15c.18,.14,.4,.22,.62,.22,.07,0,.14,0,.21-.02,.29-.06,.54-.25,.68-.52l8.67-16.81c.25-.49,.06-1.09-.43-1.35"/><path d="M68.71,60.82c.3-.97,.2-1.99-.29-2.88l-1.31-2.38c-.27-.48-.88-.66-1.36-.39-.48,.27-.66,.88-.39,1.36l1.31,2.38c.23,.41,.27,.88,.13,1.32-.14,.44-.44,.8-.86,1.01-1.26,.63-2.04,1.9-2.04,3.31v1.04c0,.52-.23,1-.66,1.34l-8.1,6.86c-.42,.36-.47,.99-.12,1.41,.2,.23,.48,.35,.76,.35,.23,0,.46-.08,.65-.24l8.08-6.84c.88-.7,1.39-1.76,1.39-2.89v-1.04c0-.65,.36-1.23,.94-1.52,.91-.45,1.57-1.24,1.88-2.21"/><path d="M64.39,32.83c1.74-1.69,2.41-3.51,1.89-5.1-.52-1.59-2.13-2.67-4.53-3.01l-4.55-.66c-.31-.04-.78-.39-.92-.67l-2.04-4.13c-1.08-2.18-2.59-3.38-4.27-3.38s-3.19,1.2-4.27,3.38l-2.04,4.13c-.14,.28-.61,.62-.92,.67l-4.55,.66c-2.4,.35-4.01,1.42-4.53,3.01-.52,1.6,.15,3.41,1.89,5.1l3.3,3.21c.22,.22,.4,.77,.35,1.08-.09,.55,.27,1.06,.82,1.15,.55,.1,1.06-.27,1.15-.82,.16-.95-.23-2.18-.93-2.85l-3.3-3.21c-1.15-1.12-1.65-2.23-1.38-3.05,.27-.82,1.33-1.43,2.91-1.66l4.55-.66c.96-.14,2-.89,2.43-1.76l2.04-4.13c.71-1.44,1.61-2.26,2.48-2.26s1.77,.82,2.47,2.26l2.04,4.13c.43,.87,1.47,1.62,2.43,1.76l4.55,.66c1.58,.23,2.65,.83,2.91,1.66,.27,.82-.24,1.93-1.38,3.05l-3.3,3.21c-.69,.67-1.09,1.9-.93,2.85l.78,4.53c.27,1.58,.03,2.78-.67,3.28-.7,.51-1.91,.37-3.33-.37l-4.07-2.14c-.86-.45-2.15-.45-3,0l-4.07,2.14c-1.22,.64-2.29,.84-3.02,.55-.43-.17-.74-.53-.92-1.06-.18-.52-.75-.8-1.27-.63-.52,.18-.8,.75-.63,1.27,.37,1.09,1.09,1.88,2.07,2.27,1.3,.52,2.92,.3,4.69-.63l4.07-2.14c.27-.14,.86-.14,1.13,0l4.08,2.14c1.15,.6,2.24,.91,3.21,.91,.84,0,1.6-.23,2.23-.69,1.36-.99,1.88-2.85,1.47-5.24l-.78-4.53c-.05-.31,.13-.86,.35-1.08l3.3-3.21Z"/><path d="M43.76,30.99c2.15-.31,4.22-1.59,5.54-3.42,.32-.45,.22-1.07-.23-1.4-.45-.32-1.07-.23-1.4,.22-1,1.38-2.61,2.38-4.21,2.61l-2.04,.3c-.55,.08-.93,.59-.85,1.13,.07,.5,.5,.86,.99,.86,.05,0,.1,0,.15-.01l2.04-.3Z"/><path d="M51.83,23.84c.19-.18,.29-.44,.29-.7s-.11-.52-.29-.71c-.05-.05-.1-.09-.15-.12-.06-.04-.12-.07-.18-.1-.06-.02-.12-.04-.19-.05-.32-.07-.67,.04-.9,.27-.18,.19-.29,.44-.29,.71s.1,.52,.29,.7c.19,.19,.44,.3,.71,.3s.52-.11,.71-.3"/><path d="M56.88,57.88c-.34,0-.69-.08-.95-.21l-2.15-1.24c-.48-.28-1.09-.11-1.37,.37-.28,.48-.11,1.09,.37,1.37l2.2,1.27c.59,.29,1.24,.45,1.89,.45,2.34,0,4.24-1.9,4.24-4.24v-1.53c0-2.34-1.9-4.24-4.24-4.24-.65,0-1.31,.15-1.89,.45-.04,.02-.08,.04-.12,.07l-10.57,7.27c-.3,.14-.62,.21-.94,.21-1.23,0-2.24-1-2.24-2.24v-1.53c0-1.23,1-2.24,2.24-2.24,.32,0,.65,.07,.94,.21l1.8,1.24c.45,.31,1.08,.2,1.39-.26s.2-1.08-.25-1.39l-1.86-1.28s-.08-.05-.12-.07c-.59-.29-1.24-.45-1.89-.45-2.34,0-4.24,1.9-4.24,4.24v1.53c0,2.34,1.9,4.24,4.24,4.24,.65,0,1.31-.15,1.89-.45,.04-.02,.08-.04,.12-.07l10.57-7.27c.3-.14,.62-.21,.94-.21,1.23,0,2.24,1,2.24,2.24v1.53c0,1.23-1,2.24-2.24,2.24"/><path d="M40.57,41.58c.19-.19,.3-.44,.3-.7,0-.14-.03-.26-.08-.39-.05-.12-.12-.23-.22-.32-.37-.38-1.04-.37-1.41,0-.09,.09-.16,.2-.22,.32-.05,.13-.07,.25-.07,.39,0,.26,.1,.51,.29,.7,.19,.19,.44,.29,.71,.29s.52-.1,.7-.29"/><path d="M71.87,68.41c-.55,0-1,.48-1,1.03s.45,1,1,1,1-.45,1-1v-.06c0-.55-.45-.97-1-.97"/></g></svg>