<?xml version="1.0" encoding="UTF-8"?><svg id="a" xmlns="http://www.w3.org/2000/svg" viewBox="0 0 101.66 101.66"><defs><style>.b{fill:#98eac9;}</style></defs><circle class="b" cx="50.83" cy="50.83" r="46.82"/><g><path d="M83.78,50.79h0c0-.06-.01-.13-.03-.19-.03-.14-.09-.26-.17-.37-.18-.27-.47-.46-.79-.47h0c-.24,0-.46,.11-.64,.27-.24,.19-.38,.48-.37,.81,.03,1.06,.99,1.07,1.01,1.07,.04,0,.94-.02,.99-1.05h0s0-.03,0-.05v-.02Z"/><path d="M52.38,25.03c-.72,.53-1.18,1.33-1.25,2.22-.07,.88,.25,1.75,.88,2.38l4.26,4.26c-.31,.15-.59,.35-.84,.59-.57,.57-.88,1.33-.88,2.14,0,.81,.32,1.56,.89,2.13l1.9,1.88c1.93,2,3.7,2.81,6.01,2.81h.01l4.16,.32c.65,0,3.18,.41,3.48,1.6,0,0,.15,.51,.26,.99,.12,.54,.23,1.1,.31,1.66,.07,.5,.5,.86,.99,.86,.05,0,.09,0,.14-.01,.55-.08,.93-.59,.85-1.13-.09-.62-.2-1.24-.34-1.83-.12-.51-.28-1.06-.28-1.06-.72-2.91-5.26-3.07-5.33-3.07h0l-4.16-.33c-1.84,0-3.11-.6-4.68-2.22l-1.92-1.9c-.19-.19-.3-.45-.3-.72,0-.27,.1-.53,.3-.72,.38-.38,1.05-.38,1.43,0l2.4,2.4,1.41-1.42-2.4-2.4h0l-6.27-6.27c-.21-.21-.32-.5-.3-.8,.02-.3,.18-.57,.43-.76,.42-.3,1.04-.23,1.44,.17l5.37,5.37,1.41-1.41-5.37-5.37h0l-1.2-1.2c-.19-.19-.29-.46-.27-.75,.01-.32,.16-.62,.39-.82,.37-.31,1.07-.25,1.44,.12l6.52,6.52,1.41-1.41-5.26-5.26c-.2-.21-.31-.48-.3-.77,.01-.29,.15-.56,.38-.75,.4-.33,1.03-.27,1.43,.13l2.86,2.88c.06,.08,.13,.15,.2,.22l2.12,2.12,1.42-1.41-2.23-2.26c-.13-.18-.2-.4-.19-.62,0-.28,.12-.53,.33-.72,.37-.33,1.05-.29,1.44,.09l3.73,3.73c2.53,2.53,4.56,5.51,6.04,8.86,.03,.07,.06,.14,1.29,2.1,2.05,3.65,3.29,7.61,3.69,11.76,.05,.55,.54,.94,1.09,.9,.55-.05,.95-.54,.9-1.09-.43-4.44-1.75-8.66-3.96-12.59,0,0-1.1-1.76-1.19-1.9-1.58-3.57-3.75-6.75-6.46-9.46l-3.73-3.73c-1.15-1.15-3.03-1.22-4.19-.16-.29,.26-.52,.57-.69,.91l-1.05-1.06c-1.12-1.12-2.93-1.24-4.12-.26-.4,.33-.7,.75-.89,1.22-1.07-.52-2.4-.42-3.32,.35-.66,.56-1.07,1.38-1.1,2.26-.02,.44,.05,.87,.21,1.26-.27,.09-.53,.23-.77,.4"/><path d="M22.18,61.18c.1,0,.2-.02,.3-.05,.53-.17,.82-.73,.65-1.26-.93-2.93-1.4-5.98-1.4-9.08,0-.55-.45-1-1-1s-1,.45-1,1c0,3.31,.5,6.56,1.5,9.69,.14,.43,.53,.7,.95,.7"/><path d="M24.02,62.49s-.02-.06-.03-.09c-.22-.5-.79-.72-1.3-.51-.51,.21-.74,.81-.53,1.32h0s.03,.07,.04,.11c.16,.37,.52,.58,.89,.58,.14,0,.28-.03,.41-.08,.5-.22,.73-.82,.52-1.33h0Z"/><path d="M36.63,80.14l-3.73-3.73c-2.53-2.53-4.56-5.51-6.04-8.85-.04-.08-.06-.14-1.32-2.15l-1.69,1.06s1.1,1.76,1.19,1.9c1.58,3.57,3.75,6.75,6.46,9.46l3.73,3.73c1.14,1.15,3.02,1.22,4.19,.16,.29-.26,.52-.57,.69-.91l1.05,1.06c.61,.61,1.43,.92,2.23,.92,.68,0,1.35-.22,1.89-.67,.4-.33,.7-.75,.89-1.22,1.07,.52,2.4,.42,3.31-.35,.66-.56,1.07-1.38,1.1-2.26,.02-.44-.06-.87-.21-1.26,.27-.09,.53-.23,.77-.4,.72-.53,1.18-1.34,1.25-2.22,.07-.88-.25-1.75-.88-2.37l-4.26-4.26c.31-.15,.59-.34,.84-.59,.57-.57,.88-1.33,.88-2.14s-.32-1.56-.89-2.13l-1.9-1.89c-1.93-1.99-3.7-2.81-6.01-2.81h-.01l-4.16-.32h-.15c-1.98,.07-3.1-.44-3.33-1.6,0,0-.15-.51-.26-.99-.18-.76-.31-1.53-.39-2.3-.06-.55-.55-.94-1.1-.89-.55,.06-.94,.56-.88,1.1,.09,.84,.24,1.69,.43,2.53,.11,.49,.26,1.01,.27,1.02,.24,1.23,1.23,3.26,5.34,3.12l4.16,.32c1.84,0,3.11,.6,4.68,2.22l1.92,1.9c.19,.19,.3,.45,.3,.72,0,.27-.1,.53-.3,.72-.38,.38-1.05,.38-1.43,0l-2.4-2.4-1.41,1.42,8.67,8.67c.21,.21,.32,.5,.3,.8-.02,.3-.18,.57-.43,.76-.42,.31-1.04,.23-1.44-.17l-5.37-5.37-1.41,1.41,6.57,6.57c.19,.19,.29,.46,.27,.75-.01,.32-.16,.62-.39,.82-.37,.31-1.07,.25-1.44-.12l-6.51-6.52-1.41,1.41,5.26,5.26c.21,.21,.31,.48,.3,.77-.01,.29-.15,.56-.38,.74-.4,.33-1.03,.27-1.43-.13l-2.86-2.88c-.06-.08-.13-.15-.2-.22l-2.12-2.12-1.42,1.41,2.23,2.25c.13,.18,.2,.4,.19,.62,0,.28-.12,.53-.33,.72-.37,.33-1.05,.29-1.44-.09"/><path d="M51.7,20.84h.04c1.04-.04,1.08-.89,1.09-.99,0-.03,0-.53-.41-.82-.17-.14-.39-.22-.62-.22-1.06,0-1.12,.87-1.12,.97,0,.16,.04,.31,.11,.45,.15,.36,.51,.61,.92,.61"/><path d="M20.46,44.34c.33,.4,.75,.7,1.21,.89-.52,1.07-.42,2.4,.35,3.31,.56,.67,1.38,1.07,2.26,1.11,.44,.02,.87-.06,1.26-.21,.09,.27,.23,.53,.4,.77,.53,.72,1.33,1.18,2.22,1.25,.08,0,.16,.01,.24,.01,.8,0,1.57-.32,2.14-.89l4.26-4.26c.14,.3,.34,.59,.59,.84,.57,.57,1.33,.88,2.13,.88h0c.81,0,1.57-.32,2.13-.89l1.88-1.9c1.44-1.4,2.82-2.99,3.1-5.17,.07-.55-.32-1.05-.86-1.12-.55-.08-1.05,.32-1.12,.87-.16,1.28-.86,2.4-2.52,4l-1.9,1.92c-.19,.19-.45,.3-.72,.3h0c-.27,0-.52-.11-.72-.3-.39-.4-.39-1.04,0-1.43l2.4-2.4-1.41-1.42-2.4,2.4h0l-6.27,6.27c-.21,.21-.51,.31-.81,.3-.3-.02-.57-.18-.76-.43-.3-.41-.24-1.02,.15-1.42l5.39-5.39-1.41-1.41-5.37,5.37s-.02,.02-.03,.03l-1.17,1.17c-.19,.19-.43,.29-.75,.27-.32-.01-.61-.16-.82-.4-.31-.37-.25-1.06,.12-1.44l6.52-6.52-1.41-1.41-5.26,5.26c-.21,.21-.47,.31-.77,.3-.29-.01-.56-.15-.74-.38-.33-.4-.27-1.03,.13-1.43l2.88-2.86c.08-.06,.15-.13,.22-.2l2.12-2.12-1.41-1.42-2.25,2.23c-.18,.13-.4,.21-.62,.19-.27,0-.53-.12-.72-.33-.33-.37-.29-1.05,.09-1.44l3.73-3.73c2.53-2.53,5.51-4.56,8.85-6.04,.08-.03,.14-.06,2.11-1.3,3.54-1.99,7.39-3.22,11.42-3.66,.55-.06,.95-.55,.89-1.1-.06-.55-.53-.95-1.1-.89-4.31,.46-8.41,1.78-12.23,3.93,0,0-1.76,1.1-1.9,1.19-3.57,1.58-6.76,3.75-9.46,6.46l-3.73,3.73c-1.14,1.15-1.22,3.03-.16,4.19,.26,.29,.57,.52,.91,.69l-1.06,1.05c-1.12,1.12-1.24,2.94-.26,4.12"/><path d="M43.62,35.92c-.55,.02-.98,.49-.97,1.05,.02,.54,.46,.97,1,.97,.01,0,.02,0,.03,0,.55-.02,.99-.48,.97-1.03v-.03c-.02-.55-.46-.95-1.03-.95"/><path d="M45.81,29.64c-1.8,.35-2.9,1.81-3.1,4.12-.05,.55,.36,1.03,.91,1.08,.03,0,.06,0,.09,0,.51,0,.95-.39,1-.91,.18-2.08,1.17-2.27,1.58-2.35,0,0,.51-.15,.99-.26,.84-.19,1.7-.33,2.56-.42,.55-.05,.95-.54,.9-1.09-.05-.55-.53-.95-1.09-.9-.95,.09-1.89,.25-2.81,.46-.49,.12-1.01,.26-1.02,.27"/><path d="M67.74,77.41c-.27-.48-.88-.65-1.36-.38-4.46,2.51-9.53,3.83-14.66,3.83-.55,0-1,.45-1,1s.45,1,1,1c5.48,0,10.88-1.41,15.64-4.09,.48-.27,.65-.88,.38-1.36"/><path d="M69.47,75.3c-.33,.14-.53,.44-.58,.76-.04,.22-.01,.44,.1,.65,.18,.33,.54,.51,.9,.51,.15,0,.31-.03,.45-.1,.31-.14,.51-.42,.56-.74,.05-.22,.02-.45-.09-.66-.24-.47-.86-.64-1.33-.43"/><path d="M81.48,53.12c-.56-.67-1.38-1.07-2.26-1.1-.43-.02-.87,.06-1.26,.21-.09-.27-.23-.53-.4-.77-.53-.72-1.33-1.18-2.22-1.25-.88-.07-1.75,.25-2.38,.88l-4.26,4.26c-.15-.31-.35-.59-.59-.84-.57-.57-1.37-.9-2.14-.88-.81,0-1.56,.32-2.13,.89l-1.88,1.9c-2,1.94-2.82,3.7-2.81,6.02l-.32,4.17v.15c.07,1.99-.44,3.1-1.6,3.33,0,0-.51,.15-.99,.26-.84,.2-1.71,.34-2.58,.42-.55,.05-.95,.54-.9,1.09,.05,.55,.51,.95,1.09,.9,.96-.09,1.91-.25,2.84-.46,.49-.11,1.01-.26,1.02-.27,1.23-.24,3.26-1.25,3.12-5.34l.32-4.17c0-1.84,.6-3.11,2.22-4.68l1.9-1.92c.19-.19,.45-.3,.72-.3h0c.27,0,.52,.1,.72,.3s.3,.45,.3,.72-.11,.52-.3,.72l-2.4,2.4,1.41,1.41,8.67-8.67c.21-.21,.51-.32,.81-.3,.3,.02,.57,.18,.76,.43,.31,.42,.23,1.04-.17,1.44l-5.37,5.37,1.41,1.41,6.57-6.57c.19-.19,.45-.29,.75-.28,.32,.01,.62,.16,.82,.4,.31,.37,.25,1.06-.12,1.44l-6.52,6.52,1.41,1.41,5.26-5.26c.21-.21,.48-.31,.77-.3,.29,.01,.56,.15,.74,.38,.33,.4,.27,1.03-.13,1.43l-2.88,2.86c-.08,.06-.15,.13-.22,.2l-2.12,2.12,1.41,1.42,2.25-2.24c.18-.13,.43-.19,.62-.19,.28,0,.53,.12,.72,.33,.33,.37,.29,1.05-.09,1.44l-3.73,3.73c-1.51,1.51-3.21,2.87-5.05,4.02-.47,.29-.61,.91-.31,1.38,.19,.3,.52,.47,.85,.47,.18,0,.37-.05,.53-.15,1.97-1.24,3.78-2.68,5.4-4.3l3.73-3.73c1.14-1.15,1.22-3.03,.16-4.19-.26-.29-.57-.52-.91-.69l1.06-1.05c1.13-1.13,1.24-2.94,.26-4.12-.33-.4-.75-.7-1.21-.89,.52-1.07,.42-2.4-.35-3.31"/></g></svg>