<?xml version="1.0" encoding="UTF-8"?><svg id="a" xmlns="http://www.w3.org/2000/svg" viewBox="0 0 101.66 101.66"><defs><style>.b{fill:#98eac9;}</style></defs><circle class="b" cx="50.83" cy="50.83" r="46.82"/><path d="M60.78,57.41c1.96,0,3.56-1.6,3.56-3.56s-1.6-3.56-3.56-3.56h-15.35c-.86,0-1.56-.7-1.56-1.56s.7-1.56,1.56-1.56h26.03v9.49c0,.55,.45,1,1,1s1-.45,1-1v-9.49h2v13c0,.55,.45,1,1,1s1-.45,1-1V17.18H45.43c-1.96,0-3.56,1.59-3.56,3.55v6.67h-4.36c-.55,0-1,.45-1,1s.45,1,1,1h4.36v19.33c0,1.96,1.6,3.56,3.56,3.56h15.35c.86,0,1.56,.7,1.56,1.56s-.7,1.56-1.56,1.56H26.41l5.94-13-5.94-13h5.07c.55,0,1-.45,1-1s-.45-1-1-1h-8.18l6.86,15-6.86,15H60.78Zm-16.9-29v-7.67c0-.86,.7-1.56,1.56-1.56h30.03v26h-30.03c-.56,0-1.09,.12-1.56,.36V28.41Z"/><path d="M34.29,29.41h.12c.55,0,1-.45,1-1s-.45-1-1-1h-.12c-.55,0-1,.45-1,1s.45,1,1,1"/><path d="M47.48,42.19c.26,0,.51-.1,.71-.29l9.29-9.29,4,4,8.17-8.16-1.74-1.74,3.4-.38-.82,5.72c-.08,.55,.3,1.05,.85,1.13,.55,.08,1.05-.3,1.13-.85l1.18-8.28-10.1,1.12,3.26,3.26-5.34,5.34-4-4-10.71,10.71c-.39,.39-.39,1.02,0,1.41,.2,.19,.45,.29,.71,.29"/><path d="M18.85,81.19H57.85v-2.09h1.33c3.67,1.39,7.39,2.1,11.08,2.1h4.27c1.62,0,3-1.28,3.08-2.85,.02-.41-.04-.8-.17-1.17,1.37-.22,2.47-1.32,2.6-2.69,.05-.51-.03-1.02-.23-1.49,1.12-.39,1.99-1.41,2.09-2.59,.07-.87-.22-1.74-.82-2.38-.3-.32-.65-.57-1.04-.74,.13-.26,.22-.54,.26-.83,.14-.88-.11-1.77-.69-2.45-.58-.67-1.42-1.06-2.3-1.06h-3.03c.11-.32,.17-.66,.17-1.01,0-.81-.31-1.57-.89-2.14-.57-.57-1.32-.88-2.13-.88h-2.69c-2.8-.04-4.61,.64-6.25,2.28l-3.18,2.72c-.08,.08-.36,.2-.48,.2h-1.01v-.94h-21c-.55,0-1,.45-1,1s.45,1,1,1h19v14H18.85c-.55,0-1,.45-1,1s.45,1,1,1m39-15.06h1.01c.64,0,1.44-.33,1.83-.73l3.18-2.72c1.3-1.3,2.61-1.77,4.88-1.74h2.7c.27-.01,.53,.09,.72,.28,.19,.19,.3,.45,.3,.72,0,.56-.45,1.01-1.01,1.01h-3.39v2h9.25c.3,0,.58,.13,.78,.36,.2,.23,.28,.53,.23,.84-.08,.51-.57,.9-1.14,.9h-4.6v2h6.29c.27,0,.52,.12,.72,.33,.22,.24,.32,.55,.3,.86-.04,.48-.58,.93-1.1,.93h-6.21v2h4.43c.29,0,.56,.12,.76,.34,.2,.22,.29,.5,.26,.79-.05,.52-.54,.92-1.1,.92h-2.04c-.11-.03-.22-.03-.33-.03h-1.99v2l2.18,.02c.22,.04,.41,.14,.56,.3,.19,.2,.29,.46,.27,.74-.02,.5-.54,.95-1.08,.95h-4.27c-3.5,0-7.04-.69-10.53-2.03-.26-.1-.49-.09-.62-.07h-1.26v-10.98Z"/><path d="M33.68,63.63s-.08-.11-.12-.15c-.05-.05-.1-.09-.15-.13l-.18-.09c-.06-.02-.12-.04-.19-.06-.32-.06-.66,.05-.9,.28-.18,.18-.29,.44-.29,.71,0,.13,.03,.26,.08,.38,.05,.12,.12,.23,.21,.32,.19,.19,.44,.3,.71,.3s.52-.11,.71-.3c.18-.18,.29-.44,.29-.7,0-.07-.01-.13-.02-.2,0-.06-.03-.13-.06-.19-.02-.06-.05-.12-.09-.17"/><path d="M18.85,65.19h10c.55,0,1-.45,1-1s-.45-1-1-1h-10c-.55,0-1,.45-1,1s.45,1,1,1"/><path d="M52.47,77.11c.06,.02,.12,.04,.19,.06,.06,.01,.13,.02,.19,.02,.07,0,.13-.01,.2-.02,.06-.02,.12-.04,.18-.06,.06-.03,.12-.06,.17-.09,.06-.04,.11-.08,.16-.13,.18-.18,.29-.44,.29-.7s-.11-.53-.29-.71c-.05-.05-.1-.09-.16-.13-.05-.03-.11-.06-.17-.09-.06-.02-.12-.04-.18-.05-.33-.07-.68,.04-.91,.27-.18,.18-.29,.44-.29,.71s.11,.52,.29,.7c.05,.05,.1,.09,.15,.13l.18,.09Z"/></svg>