<?xml version="1.0" encoding="utf-8"?>
<!-- Generator: Adobe Illustrator 16.2.1, SVG Export Plug-In . SVG Version: 6.00 Build 0)  -->
<!DOCTYPE svg PUBLIC "-//W3C//DTD SVG 1.1//EN" "http://www.w3.org/Graphics/SVG/1.1/DTD/svg11.dtd">
<svg version="1.1" id="圖層_1" xmlns="http://www.w3.org/2000/svg" xmlns:xlink="http://www.w3.org/1999/xlink" x="0px" y="0px"
	 width="1857.96px" height="400px" viewBox="479.54 643 1857.96 400" enable-background="new 479.54 643 1857.96 400"
	 xml:space="preserve">
<g>
	<g>
		<g>
			<path fill="#FFFFFF" d="M548.461,784.757h-18.444v-42.712h17.473c8.736,0,13.59,4.854,13.59,12.62
				c0,4.853-2.912,7.766-4.854,8.736c1.941,0.971,4.854,2.912,4.854,9.707C562.051,779.903,556.227,784.757,548.461,784.757z
				 M547.491,750.782h-6.795v6.795h6.795c2.912,0,3.883-1.942,3.883-3.884C551.374,752.723,550.403,750.782,547.491,750.782z
				 M547.491,767.284h-6.795v7.766h6.795c2.912,0,3.883-1.941,3.883-3.883S550.403,767.284,547.491,767.284z"/>
			<path fill="#FFFFFF" d="M585.349,784.757v-2.912c-1.941,1.941-4.854,2.912-7.766,2.912s-5.825-0.971-7.766-2.912
				c-2.912-2.912-2.912-5.824-2.912-9.707v-20.386h9.707v19.415c0,3.883,2.912,4.854,3.883,4.854s3.883-0.971,3.883-4.854v-19.415
				h9.707v32.034L585.349,784.757L585.349,784.757z"/>
			<path fill="#FFFFFF" d="M611.559,784.757c-4.854,0-9.708,0-13.591-4.854l6.795-6.795c2.912,2.912,5.824,2.912,7.766,2.912
				c1.942,0,3.883,0,3.883-1.941c0-0.971,0-1.941-1.941-1.941h-4.854c-5.824-0.971-9.707-2.912-9.707-9.707
				c0-6.796,6.795-10.679,12.619-10.679c4.854,0,9.708,0.971,12.62,3.883l-5.825,5.825c-1.941-1.942-3.883-1.942-6.795-1.942
				c-1.941,0-2.912,0.972-2.912,1.942c0,0,0,1.941,1.942,1.941l4.853,0.971c6.795,0.971,9.708,4.854,9.708,9.707
				C625.148,781.845,619.324,784.757,611.559,784.757z"/>
			<path fill="#FFFFFF" d="M629.031,748.84v-7.766h9.707v7.766H629.031z M629.031,784.757v-31.063h9.707v31.063H629.031z"/>
			<path fill="#FFFFFF" d="M663.006,784.757v-19.414c0-3.883-2.912-4.854-3.883-4.854s-3.883,0.971-3.883,4.854v19.414h-9.708
				v-32.034h9.708v1.942c1.941-1.942,4.854-2.913,7.766-2.913s5.824,0.971,6.795,2.913c2.912,2.912,2.912,5.824,2.912,9.707v20.385
				H663.006L663.006,784.757z"/>
			<path fill="#FFFFFF" d="M686.304,771.167c0,2.912,1.941,4.854,5.824,4.854c3.883,0,4.854-0.971,6.795-2.912l5.824,5.824
				c-2.912,2.912-6.795,4.854-12.619,4.854c-6.795,0-15.531-2.912-15.531-16.502c0-10.679,5.824-16.502,14.561-16.502
				c9.707,0,14.561,6.795,14.561,15.531v4.854H686.304z M696.011,762.431c-0.971-0.971-1.942-2.913-3.883-2.913
				s-3.883,0.972-3.883,2.913c0,0.971-0.971,1.941-0.971,2.912h9.707C696.011,764.372,696.011,763.401,696.011,762.431z"/>
			<path fill="#FFFFFF" d="M721.25,784.757c-4.854,0-9.708,0-13.59-4.854l6.795-6.795c2.912,2.912,5.824,2.912,7.766,2.912
				c0.97,0,3.883,0,3.883-1.941c0-0.971,0-1.941-1.942-1.941h-4.854c-5.824-0.971-9.707-2.912-9.707-9.707
				c0-6.796,6.795-10.679,12.62-10.679c4.853,0,9.707,0.971,12.619,3.883l-5.824,5.825c-1.942-1.942-3.883-1.942-6.795-1.942
				c-1.942,0-2.913,0.972-2.913,1.942c0,0,0,1.941,1.941,1.941l4.854,0.971c6.795,0.971,9.707,4.854,9.707,9.707
				C735.811,781.845,729.016,784.757,721.25,784.757z"/>
			<path fill="#FFFFFF" d="M749.4,784.757c-4.854,0-9.707,0-13.59-4.854l6.795-6.795c2.912,2.912,5.824,2.912,7.766,2.912
				s3.883,0,3.883-1.941c0-0.971,0-1.941-1.942-1.941h-4.854c-5.824-0.971-9.707-2.912-9.707-9.707
				c0-6.796,6.795-10.679,12.619-10.679c4.854,0,9.707,0.971,12.62,3.883l-5.825,6.796c-1.941-1.941-3.883-1.941-6.795-1.941
				c-1.941,0-2.912,0.971-2.912,1.941c0,0,0,1.941,1.941,1.941l4.854,0.971c6.795,0.971,9.707,4.854,9.707,9.707
				C763.961,781.845,757.166,784.757,749.4,784.757z"/>
			<path fill="#FFFFFF" d="M542.637,838.146c-6.795,0-11.648-0.971-16.502-5.824l6.795-6.795c1.941,1.941,5.824,2.912,9.707,2.912
				c3.883,0,5.825-0.971,5.825-3.883c0-0.971,0-1.941-0.971-2.912s-0.971-0.971-2.912-0.971l-4.854-0.971
				c-3.883-0.972-6.795-1.941-8.737-3.883s-2.912-4.854-2.912-8.736c0-7.767,5.824-13.591,15.532-13.591
				c5.824,0,10.678,1.941,14.561,4.854l-6.795,6.795c-1.941-1.94-5.825-1.94-7.766-1.94c-3.883,0-4.854,1.94-4.854,3.883
				c0,0.97,0,0.97,0.971,1.941c0.971,0.971,0.971,0.971,2.912,0.971l4.854,0.971c3.883,0.97,6.795,1.941,8.736,3.882
				c1.941,1.942,2.912,5.825,2.912,9.708C559.139,833.293,551.374,838.146,542.637,838.146z"/>
			<path fill="#FFFFFF" d="M576.612,838.146c-5.824,0-14.561-1.941-14.561-16.502s8.737-16.503,14.561-16.503
				c4.854,0,7.766,1.942,10.678,3.884l-6.795,6.795c-0.971-0.972-1.941-1.941-3.883-1.941c-0.971,0-1.941,0-2.912,0.97
				c-0.971,0.972-1.942,2.913-1.942,6.796c0,2.912,0,4.854,1.942,6.795c0.971,0.971,1.941,0.971,2.912,0.971
				c1.941,0,2.912-0.971,3.883-1.941l6.795,6.795C584.378,836.205,581.466,838.146,576.612,838.146z"/>
			<path fill="#FFFFFF" d="M608.646,837.176v-19.414c0-3.883-2.912-3.883-3.883-3.883s-3.883,0.97-3.883,3.883v19.414h-9.707
				v-42.712h9.707v12.62c1.942-1.942,4.854-2.913,6.795-2.913c6.795,0,10.678,4.854,10.678,11.649v21.355H608.646L608.646,837.176z"
				/>
			<path fill="#FFFFFF" d="M646.504,833.293c-1.941,1.941-4.854,3.883-10.678,3.883c-4.854,0-8.737-1.941-10.678-3.883
				c-2.912-2.912-3.883-5.824-3.883-12.619c0-5.825,0.971-9.707,3.883-12.62c1.941-1.94,4.854-3.883,10.678-3.883
				c4.854,0,8.736,1.942,10.678,3.883c2.912,2.913,3.883,5.825,3.883,12.62S649.416,830.381,646.504,833.293z M638.738,814.849
				c-0.971-0.97-0.971-0.97-2.912-0.97c-0.971,0-1.941,0-2.912,0.97c-0.971,0.972-0.971,3.883-0.971,6.796
				c0,2.912,0,5.824,0.971,6.795s1.941,0.971,2.912,0.971s1.941,0,2.912-0.971s0.971-3.883,0.971-6.795
				C640.68,817.762,640.68,815.82,638.738,814.849z"/>
			<path fill="#FFFFFF" d="M678.538,833.293c-1.941,1.941-4.854,3.883-10.678,3.883c-4.854,0-8.736-1.941-10.678-3.883
				c-2.912-2.912-3.883-5.824-3.883-12.619c0-5.825,0.971-9.707,3.883-12.62c1.941-1.94,4.854-3.883,10.678-3.883
				c4.854,0,8.737,1.942,10.678,3.883c2.912,2.913,3.883,5.825,3.883,12.62C681.45,827.469,681.45,830.381,678.538,833.293z
				 M670.772,814.849c-0.971-0.97-0.971-0.97-2.913-0.97c-0.97,0-1.941,0-2.912,0.97c-0.971,0.972-1.941,3.883-1.941,6.796
				c0,2.912,0,5.824,1.941,6.795c0.971,0.971,0.971,0.971,2.912,0.971c0.971,0,1.942,0,2.913-0.971
				c0.97-0.971,1.941-3.883,1.941-6.795C671.743,817.762,671.743,815.82,670.772,814.849z"/>
			<path fill="#FFFFFF" d="M696.011,837.176c-6.795,0-9.708-4.854-9.708-9.707v-33.005h9.708v32.034c0,0.971,0.97,1.941,1.941,1.941
				h3.883v8.736H696.011z"/>
		</g>
		<g>
			<path fill="#FFFFFF" d="M665.918,1015.789l-10.678-18.444c-0.971-0.971-33.004-49.507-161.14-49.507H479.54V658.563h14.561
				c7.766,0,50.478,0,92.219,7.766c38.829,6.795,65.039,16.502,79.599,31.062c14.561-14.561,40.771-24.268,79.599-31.062
				c41.741-6.795,84.453-7.766,92.219-7.766h14.561v289.274h-13.59c-129.106,0-161.14,48.536-161.14,49.507L665.918,1015.789z
				 M506.72,921.628c95.131,2.913,140.755,31.063,159.198,48.537c18.444-17.474,64.068-46.596,159.198-48.537V684.772
				c-73.774,1.941-145.608,16.502-146.579,40.771h-26.21c0-23.297-72.804-38.829-145.608-40.771V921.628z"/>
			<polygon fill="#FFFFFF" points="536.813,907.067 578.554,870.18 660.094,937.16 826.088,779.903 849.385,798.347 
				662.036,1027.437 			"/>
		</g>
	</g>
	<g>
		<g>
			<g>
				<g>
					<path fill="#FFFFFF" d="M975.579,857.561l7.766,43.683l0.971,3.884l3.883-0.972l10.678-1.941l3.883-0.971l-0.971-3.883
						l-7.766-44.652l-0.971-3.884l-2.912,0.971l-10.678,2.913l-3.883,0.97V857.561z"/>
					<path fill="#FFFFFF" d="M1073.621,860.473h58.244h3.883v-3.883v-10.678v-3.883h-3.883h-124.252h-3.883v3.883v10.678v3.883
						h3.883h55.331l-3.883-3.883v58.243l3.883-3.883h-64.067h-3.883v3.883v11.649v3.882h3.883h139.784h3.883v-3.882v-11.649v-3.883
						h-3.883h-65.039l3.883,3.883V856.59L1073.621,860.473z"/>
					<path fill="#FFFFFF" d="M1231.849,875.034l-29.122,11.648l4.854,3.883V815.82l-3.883,2.911h28.151h3.883v-3.883v-10.678v-3.883
						h-3.883h-28.151l3.883,3.883v-65.038l-3.883,4.854h30.092h3.883v-3.883v-10.678v-3.883h-3.883h-70.862h-3.883v3.883v10.678
						v3.883h3.883h30.092l-3.883-3.883v65.038l3.883-3.883h-30.092h-3.883v3.883v10.679v3.883h3.883h30.092l-3.883-3.883v77.657
						l2.913-3.883l-30.092,8.736l-3.883,0.971l1.941,3.883l3.883,9.707l0.971,2.912l2.912-0.971
						c33.975-8.736,58.243-16.502,71.833-24.268l2.912-1.941l-0.971-2.912l-4.854-9.708l-0.97-2.911L1231.849,875.034z"/>
					<path fill="#FFFFFF" d="M994.022,843l10.678-2.912l3.883-0.971l-0.971-3.883c-1.941-7.766-6.795-21.355-15.531-41.741
						l-0.971-2.912l-2.912,0.971l-10.678,3.883l-3.883,0.971l1.941,3.883l7.766,17.474v-1.941v0.971l2.912-3.883l-43.683,3.883
						l2.913,5.824c23.297-25.239,37.858-50.478,44.653-72.805l0.971-3.883l-3.883-0.971l-10.678-2.912l-3.883-0.971l-1.942,3.883
						c-3.883,11.648-9.707,23.298-17.473,35.917l5.824-0.971l-18.443-15.531l0.97,4.854c9.708-16.503,16.502-31.063,20.385-41.741
						l0.971-2.912l-2.912-1.941l-9.707-4.854l-3.883-1.941l-0.971,3.883c-5.824,14.561-11.649,28.15-18.444,38.829l5.825-0.971
						l-11.649-7.767l-2.912-1.941l-1.942,2.913l-5.824,8.735l-1.942,2.913l2.912,1.941c11.649,6.795,24.268,16.502,36.888,30.092
						v-4.854c-7.766,10.678-15.531,20.386-24.268,30.093l2.912-0.972l-14.561,1.942h-3.883l0.971,3.883l2.912,10.678l0.971,2.912
						h2.912l36.888-3.883l-3.883-3.883v102.896v3.883h3.883h10.678h3.883v-3.883V829.41l-2.912,3.883l24.268-2.912l-3.882-2.912
						l3.882,12.619l0.971,2.912H994.022z"/>
					<path fill="#FFFFFF" d="M1313.39,881.829h62.126h3.883v-3.884v-10.677v-3.884h-3.883h-62.126l3.883,3.884v-30.093v-3.883
						h-3.883h-10.678h-3.884v3.883v30.093l3.884-3.884h-59.214h-3.883v3.884v10.677v3.884h3.883h59.214l-3.884-3.884v36.888
						l3.884-3.883h-70.863h-3.883v3.883v11.649v3.882h3.883h153.374h2.912v-3.882v-11.649v-3.883h-3.883h-70.862l3.883,3.883
						v-36.888L1313.39,881.829z"/>
					<path fill="#FFFFFF" d="M1536.655,791.552c-4.854-15.531-8.737-30.092-8.737-44.653v-1.941l0.971-10.678v-16.502v-3.883h-3.882
						h-14.561h-3.884v3.883v17.473c0,63.097-17.473,110.662-54.359,145.608c-12.62,12.619-29.122,21.355-46.596,31.063l-3.883,1.94
						l2.912,3.883l8.737,10.678l1.941,2.913l2.912-1.942c34.946-21.355,57.272-39.799,71.833-61.155
						c16.502-25.238,27.181-48.535,33.005-74.745v-0.971v-0.971l-0.972-1.941l-6.795,1.941
						c9.708,35.917,32.034,70.862,69.893,108.721l0,0l0,0l33.004,28.15l1.942,1.941l1.941-1.941l11.648-9.706l3.883-2.913
						l-3.883-2.912C1581.309,869.209,1550.245,831.352,1536.655,791.552z"/>
					<path fill="#FFFFFF" d="M1126.04,754.665l-9.707-4.854l-3.883-1.941l-0.971,3.883c-3.883,13.591-8.736,24.269-16.502,33.976
						c-2.912,3.883-2.912,7.766,0,10.678c6.795,7.766,13.59,19.415,21.355,35.917l1.941,3.883l3.883-1.941l9.708-5.824l2.912-1.941
						l-1.942-3.883c-8.736-16.502-16.502-27.181-21.355-32.034c0,0,0,0.971,0,1.941l0,0l0,0l0,0
						c5.824-8.736,10.678-19.414,16.502-32.033l0.97-2.912L1126.04,754.665z"/>
					<path fill="#FFFFFF" d="M909.569,919.688l10.678,2.911l2.912,0.971l0.971-2.912c8.737-25.238,14.561-45.623,16.502-63.097
						v-3.883l-2.913-0.97l-10.678-1.942l-3.883-0.971l-0.971,3.883c-1.941,15.531-7.766,35.917-16.502,61.155l-0.971,3.884
						L909.569,919.688z"/>
					<path fill="#FFFFFF" d="M1133.806,725.543H999.847h-3.883v3.883v10.678v3.883h3.883h133.959h3.883v-3.883v-10.678v-3.883
						H1133.806z"/>
					<path fill="#FFFFFF" d="M1083.329,755.635l-9.708-5.824l-3.883-1.941l-1.941,3.883c-5.824,13.591-12.619,25.239-20.385,33.976
						l0,0c-4.854,4.854,0.971,12.619,2.912,15.531c5.824,6.795,12.619,17.473,20.385,32.034l1.942,3.883l3.883-1.941l8.736-5.824
						l2.913-1.941l-0.971-4.854c-9.708-15.531-17.473-27.181-23.297-33.005l0,0c0,0.971,0.971,1.941,0,1.941l0,0l0,0
						c4.854-5.824,11.649-16.502,20.385-32.034l1.941-2.912L1083.329,755.635z"/>
					<path fill="#FFFFFF" d="M1036.734,754.665l-9.708-4.854l-3.883-1.941l-0.971,3.883c-4.853,14.562-10.678,26.21-18.443,34.946
						c-3.883,4.854,0.971,12.619,3.883,15.532c5.824,8.736,11.648,19.414,17.473,32.033l1.941,3.883l3.883-1.941l9.708-5.824
						l2.912-1.941l-1.942-2.912c-7.765-15.531-14.561-27.181-20.385-33.976v0.971c5.824-7.766,11.648-18.443,18.443-33.005
						l1.941-2.912L1036.734,754.665z"/>
				</g>
				<g>
					<path fill="#FFFFFF" d="M1359.014,758.548l33.975-39.8l-11.648-8.736l-38.828,35.916l-19.415-16.502l-2.912-3.883h-76.687v39.8
						l-8.737,7.766l8.737,7.766v63.097h132.018v-70.862l-2.912-2.912L1359.014,758.548z M1357.072,781.845v0.971h-18.444
						l8.736-9.707L1357.072,781.845z M1328.921,757.577l-12.619,11.648v-22.327L1328.921,757.577z M1298.828,744.957v43.683
						l-0.971-0.971l-34.945-26.209v-16.503H1298.828L1298.828,744.957z M1262.912,798.347l28.15,26.21h-28.15V798.347z
						 M1302.712,824.557l20.385-23.298h33.976v23.298H1302.712z"/>
				</g>
			</g>
		</g>
		<g>
			<path fill="#FFFFFF" d="M1862.817,730.396v20.386h-50.478l8.736,1.94c-0.971,1.942-2.912,2.912-5.824,2.912
				c-2.912,6.796-6.795,14.562-11.648,21.356h47.565v124.252c0,23.298-8.736,25.239-52.419,25.239
				c-0.971-6.795-4.854-15.532-7.766-21.355c8.736,0,18.443,0.97,24.268,0.97c12.62,0,13.591,0,13.591-4.854V829.41
				c-2.913,3.883-7.767,4.854-14.562,4.854h-23.297c-19.414,0-23.298-4.854-23.298-22.327v-15.531h-26.209
				c-2.912,23.298-10.678,39.8-47.565,48.536c-1.941-3.883-5.824-10.678-9.708-14.561v97.072h-21.355V777.962h44.653
				c-1.941-7.766-5.824-17.473-9.707-24.269l11.648-1.941h-60.185v-20.385h94.16v-25.238l28.151,1.94
				c0,1.942-1.941,2.913-5.825,3.884v19.414L1862.817,730.396L1862.817,730.396z M1683.234,796.405v33.005
				c27.181-5.824,34.946-14.562,37.857-33.005C1722.062,796.405,1683.234,796.405,1683.234,796.405z M1803.604,904.155H1730.8v13.59
				h-20.385v-73.774h92.218v60.185H1803.604z M1727.887,777.962h51.449c3.883-7.766,7.766-17.473,10.678-26.21h-69.893
				c4.854,8.737,8.736,18.444,10.679,25.239L1727.887,777.962z M1783.219,861.443H1730.8v25.239h52.419V861.443z M1812.34,816.791
				c4.854,0,5.824-0.971,5.824-8.737c1.941,1.942,6.795,3.883,11.649,4.854v-16.503h-42.712v15.531c0,4.854,0.971,4.854,6.795,4.854
				H1812.34L1812.34,816.791z"/>
			<path fill="#FFFFFF" d="M2095.791,863.385v17.474h-93.189v23.297c0,20.386-8.736,22.327-50.478,22.327
				c-0.972-5.825-3.883-13.591-7.767-19.415c13.591,0,27.181,0,31.063,0s4.854-0.971,4.854-3.883v-22.326h-93.188v-18.444h93.188
				v-12.619h13.591c7.766-3.883,15.531-8.736,22.326-12.619h-86.395v-16.502h107.75l2.912-0.971l16.503,10.678
				c-0.971,0.971-2.913,1.941-4.854,1.941c-12.619,9.707-31.062,21.355-48.535,29.121L2095.791,863.385L2095.791,863.385z
				 M1910.383,808.054v29.122h-21.355v-45.624h18.443l-4.854-74.745l14.561,2.912c10.678-3.883,23.298-8.736,31.063-11.649
				l13.59,14.562c-0.971,0.971-1.941,0.971-2.912,0.971s-0.971,0-1.941,0c-7.767,2.912-21.356,6.795-32.033,9.707v7.766h33.975
				v13.591h-33.004l0.97,10.678h33.005v14.561h-32.034l0.971,10.678h126.194l0.971-10.678h-32.034v-14.561h33.976l0.971-10.678
				h-33.976v-14.562h34.945v-10.678h-35.916v-14.561h58.244c-0.971,24.268-2.913,55.331-5.825,76.687h18.444v45.624h-22.327v-29.122
				H1910.383L1910.383,808.054z M2019.104,713.895c0,0.971-1.941,1.941-4.854,1.941c-2.912,3.883-6.795,6.795-10.678,10.678
				c4.854,3.883,8.736,6.795,12.619,9.707l-10.678,9.707c-2.912-2.912-7.766-6.795-12.619-10.678
				c-6.795,4.854-14.561,9.707-21.356,12.619c-1.941-2.912-7.765-7.766-10.678-9.707c6.795-2.912,13.59-6.795,20.385-11.648
				c-4.854-2.912-9.707-5.824-14.561-8.736l10.679-8.736c4.853,1.941,9.706,4.854,15.531,8.736
				c3.883-2.912,6.795-6.795,9.707-10.678L2019.104,713.895z M2022.016,753.693c-0.971,1.941-2.912,1.941-4.854,1.941
				c-2.912,3.883-6.795,7.767-10.678,11.649c4.854,3.883,9.707,7.766,13.59,10.678l-11.648,9.707
				c-2.912-3.883-7.766-7.766-13.591-11.648c-7.766,4.854-15.531,9.707-22.326,13.59c-2.912-2.912-7.766-7.766-11.648-9.707
				c6.795-2.912,14.561-7.766,21.355-12.619c-4.853-2.912-9.707-5.824-14.561-8.736l10.679-8.737
				c4.853,1.941,9.706,4.854,14.561,8.737c3.883-3.883,7.766-7.766,10.678-11.649L2022.016,753.693z"/>
			<path fill="#FFFFFF" d="M2185.098,714.865l14.561,7.766c0,0.971-0.971,2.912-1.941,2.912
				c-5.824,18.443-13.591,42.712-21.356,62.126c16.503,18.444,22.327,33.976,22.327,48.536c0,35.916-23.298,34.945-39.8,34.945
				c0-5.824-1.942-13.59-4.854-18.442c4.854,0,9.706,0,12.619,0c6.795,0,11.649-2.913,11.649-18.444
				c0-11.648-5.825-27.18-21.357-44.653c5.824-16.502,12.62-37.858,16.503-54.36h-25.239v191.232h-19.414V715.836h54.361
				L2185.098,714.865z M2295.76,895.419c0,6.795,0.971,6.795,4.853,6.795h12.62c4.854,0,5.824-3.883,5.824-28.15
				c3.883,3.882,12.619,6.795,18.443,8.736c-1.941,31.062-6.795,39.799-22.326,39.799h-18.443c-18.444,0-22.326-6.795-22.326-27.18
				v-56.302h-22.328c-2.911,41.741-11.648,71.833-58.242,87.365c-1.941-4.854-7.766-13.591-11.649-17.474
				c38.829-12.619,46.595-34.945,49.507-69.892h-29.121v-20.386h134.93v20.386h-39.799L2295.76,895.419L2295.76,895.419
				L2295.76,895.419z M2198.688,734.279h56.301v-28.15l27.182,1.94c0,1.942-1.942,2.913-5.825,3.884v22.326h58.243v46.595h-18.443
				v15.531h-99.984v-15.531h-18.443v-46.595H2198.688z M2314.202,776.021v-22.327h-96.101v22.327H2314.202z"/>
		</g>
	</g>
</g>
</svg>
