<?xml version="1.0" encoding="UTF-8"?><svg id="_層_1" xmlns="http://www.w3.org/2000/svg" viewBox="0 0 187.89 77.15"><defs><style>.cls-1{fill:#fff;}</style></defs><g><path class="cls-1" d="M82.98,15.98h.93l2.3,3.62h1.74l-2.44-3.71c.69-.14,1.23-.44,1.6-.88,.4-.48,.6-1.1,.6-1.82s-.28-1.35-.82-1.86c-.54-.5-1.33-.75-2.34-.75h-2.97v9.02h1.4v-3.62Zm0-4.23h1.57c1.18,0,1.75,.5,1.75,1.53,0,.49-.14,.86-.42,1.13-.28,.27-.73,.4-1.33,.4h-1.57v-3.07Z"/><path class="cls-1" d="M92.73,19.72c.83,0,1.54-.21,2.09-.62,.55-.41,.95-.94,1.18-1.56l.06-.17h-1.5l-.03,.07c-.14,.32-.37,.58-.67,.78-.3,.2-.68,.3-1.13,.3-.59,0-1.07-.19-1.45-.56-.35-.35-.55-.83-.61-1.43h5.5l.02-.11c.04-.22,.05-.46,.05-.7,0-.99-.32-1.82-.95-2.46-.63-.64-1.48-.97-2.52-.97s-1.9,.34-2.55,1.02c-.65,.67-.98,1.58-.98,2.69s.33,2.01,.97,2.69c.65,.68,1.49,1.03,2.52,1.03Zm-2.04-4.27c.06-.59,.27-1.06,.62-1.4,.38-.37,.85-.55,1.44-.55s1.06,.19,1.45,.57c.36,.35,.56,.81,.59,1.39h-4.1Z"/><path class="cls-1" d="M103.16,13.48c-.22-.3-.49-.55-.82-.75-.46-.29-1-.44-1.62-.44-.98,0-1.81,.34-2.46,1.02-.65,.67-.98,1.57-.98,2.66s.33,1.99,.98,2.69c.65,.7,1.48,1.06,2.46,1.06,.61,0,1.16-.15,1.62-.44,.33-.21,.6-.46,.81-.76v1.15c0,.67-.19,1.2-.56,1.56-.37,.37-.85,.55-1.41,.55s-1.06-.12-1.44-.37c-.38-.24-.62-.55-.72-.92l-.03-.09h-1.36l.02,.14c.09,.74,.46,1.35,1.11,1.81,.64,.45,1.45,.68,2.42,.68s1.79-.32,2.43-.94c.64-.63,.96-1.44,.96-2.42v-7.25h-1.41v1.08Zm-.66,.73c.43,.45,.66,1.05,.66,1.8s-.22,1.35-.66,1.8c-.44,.45-.95,.67-1.56,.67s-1.13-.23-1.57-.69c-.44-.46-.66-1.08-.66-1.83s.22-1.34,.65-1.77c.43-.43,.96-.65,1.57-.65s1.13,.22,1.57,.67Z"/><rect class="cls-1" x="106.54" y="12.41" width="1.4" height="7.2"/><path class="cls-1" d="M107.25,11.54c.25,0,.47-.09,.64-.26h0c.17-.18,.26-.39,.26-.65s-.09-.47-.26-.65c-.18-.18-.39-.26-.64-.26s-.46,.09-.64,.26c-.17,.18-.26,.39-.26,.65s.09,.47,.26,.64c.17,.18,.39,.27,.64,.27Z"/><path class="cls-1" d="M116.71,16.01c0-1.1-.35-2-1.04-2.68-.69-.68-1.56-1.03-2.59-1.03s-1.91,.35-2.59,1.03-1.04,1.59-1.04,2.69,.33,2,.99,2.68c.66,.68,1.52,1.02,2.55,1.02s1.92-.35,2.64-1.03c.72-.68,1.08-1.59,1.08-2.69Zm-3.72,2.51c-.61,0-1.12-.22-1.51-.66-.4-.44-.6-1.06-.6-1.86s.21-1.42,.62-1.86c.42-.44,.92-.66,1.55-.66s1.15,.22,1.58,.66c.43,.44,.65,1.06,.65,1.85s-.23,1.41-.68,1.85c-.45,.44-.99,.67-1.6,.67Z"/><path class="cls-1" d="M123.19,15.56v4.05h1.39v-4.24c0-.98-.27-1.74-.81-2.27-.54-.53-1.21-.8-2.01-.8-.92,0-1.64,.32-2.14,.95v-.84h-1.4v7.2h1.4v-4.05c0-.66,.16-1.17,.48-1.51,.32-.33,.76-.5,1.31-.5s.99,.17,1.31,.5c.31,.34,.47,.85,.47,1.51Z"/><path class="cls-1" d="M131.9,18.51v1.09h1.41v-7.2h-1.41v1.07c-.22-.29-.49-.55-.81-.75-.46-.29-1-.44-1.62-.44-.98,0-1.81,.34-2.46,1.02-.65,.67-.98,1.57-.98,2.66s.33,1.99,.98,2.69h0c.65,.7,1.48,1.06,2.46,1.06,.61,0,1.16-.15,1.62-.44,.33-.21,.6-.46,.81-.76Zm0-2.5c0,.75-.22,1.35-.65,1.8-.43,.45-.96,.67-1.56,.67s-1.12-.23-1.57-.69c-.44-.46-.66-1.08-.66-1.83s.22-1.34,.65-1.77c.43-.43,.96-.65,1.57-.65s1.13,.23,1.57,.67c.43,.45,.65,1.05,.65,1.8Z"/><rect class="cls-1" x="135.28" y="9.99" width="1.4" height="9.61"/><path class="cls-1" d="M146.83,15.1c-.28-.15-.61-.28-.96-.38-.34-.1-.69-.19-1.03-.26-.34-.07-.64-.16-.92-.26-.26-.09-.47-.24-.63-.43-.16-.19-.24-.43-.24-.72,0-.44,.14-.77,.42-1,.29-.23,.67-.35,1.13-.35s.83,.11,1.1,.34c.27,.22,.41,.49,.44,.8v.11h1.54l-.02-.14c-.08-.72-.39-1.3-.91-1.71-.52-.41-1.23-.61-2.1-.61s-1.6,.24-2.14,.71c-.55,.47-.83,1.11-.83,1.89,0,.48,.09,.88,.28,1.21,.19,.33,.43,.58,.73,.74,.28,.16,.61,.29,.96,.4,.34,.1,.69,.19,1.03,.26,.33,.07,.64,.16,.91,.25,.26,.09,.47,.24,.63,.43,.16,.18,.24,.45,.24,.8s-.15,.65-.45,.91c-.3,.27-.72,.4-1.25,.4s-.92-.11-1.18-.34c-.26-.22-.4-.51-.43-.88v-.11h-1.48v.12c0,.74,.3,1.33,.89,1.76,.58,.42,1.33,.64,2.25,.64s1.66-.27,2.21-.79c.55-.53,.82-1.16,.82-1.87,0-.47-.09-.87-.28-1.19-.19-.32-.43-.57-.73-.73Z"/><path class="cls-1" d="M154.44,17.31c-.27,.81-.86,1.21-1.79,1.21-.62,0-1.12-.22-1.49-.65-.38-.43-.57-1.06-.57-1.87s.19-1.43,.57-1.87c.37-.43,.88-.65,1.49-.65,.45,0,.84,.11,1.14,.32,.31,.21,.52,.51,.65,.89l.03,.09h1.5l-.05-.16c-.22-.74-.61-1.32-1.15-1.72-.55-.4-1.26-.61-2.12-.61-1.03,0-1.87,.35-2.52,1.03-.64,.68-.97,1.58-.97,2.69s.33,2.01,.97,2.69c.65,.68,1.49,1.03,2.52,1.03,.84,0,1.55-.21,2.11-.63,.55-.42,.95-.99,1.16-1.7l.05-.16h-1.5l-.03,.09Z"/><path class="cls-1" d="M158.93,13.25v-.84h-1.4v7.2h1.4v-3.92c0-.72,.14-1.23,.43-1.51,.28-.28,.71-.43,1.26-.43h.43v-1.45h-.12c-.87,0-1.54,.32-1.99,.95Z"/><path class="cls-1" d="M167.39,16.47c0,.66-.16,1.16-.48,1.5-.32,.34-.75,.51-1.31,.51s-.99-.17-1.31-.51c-.32-.34-.48-.85-.48-1.5v-4.06h-1.39v4.25c0,.97,.27,1.73,.81,2.26,.54,.53,1.21,.8,2.01,.8,.93,0,1.65-.32,2.14-.94v.83h1.4v-7.2h-1.4v4.06Z"/><path class="cls-1" d="M181.27,13.09c-.54-.53-1.22-.8-2.04-.8-.58,0-1.1,.14-1.55,.42-.39,.24-.71,.56-.96,.95-.22-.41-.53-.73-.92-.96-.45-.27-.95-.4-1.51-.4-.92,0-1.64,.32-2.14,.95v-.84h-1.4v7.2h1.4v-4.05c0-.66,.16-1.17,.48-1.51,.32-.33,.76-.5,1.31-.5s.99,.17,1.31,.5c.31,.34,.47,.85,.47,1.51v4.05h1.39v-4.05c0-.66,.16-1.17,.48-1.51,.32-.34,.75-.51,1.31-.51s.99,.17,1.31,.51c.32,.34,.48,.84,.48,1.51v4.05h1.39v-4.24c0-.97-.27-1.74-.81-2.27Z"/><path class="cls-1" d="M85.13,30.14h3.6c-.11,.79-.42,1.44-.92,1.91-.54,.5-1.26,.75-2.14,.75s-1.63-.31-2.23-.91c-.59-.61-.89-1.42-.89-2.42s.3-1.81,.89-2.41c.59-.6,1.36-.91,2.27-.91,1.18,0,2,.46,2.51,1.41l.04,.07h1.65l-.07-.17c-.35-.83-.89-1.48-1.63-1.92-.73-.44-1.57-.66-2.5-.66-1.29,0-2.38,.44-3.26,1.29-.88,.86-1.33,1.97-1.33,3.29s.45,2.43,1.33,3.3c.88,.86,1.96,1.3,3.19,1.3s2.29-.39,3.13-1.15c.84-.76,1.33-1.73,1.45-2.9v-1.04h-5.08v1.16Z"/><path class="cls-1" d="M97.14,27.86c-.22-.3-.49-.55-.82-.75-.46-.29-1-.44-1.62-.44-.98,0-1.81,.34-2.46,1.02-.65,.67-.98,1.57-.98,2.66s.33,1.99,.98,2.69c.65,.7,1.48,1.06,2.46,1.06,.61,0,1.16-.15,1.62-.44,.33-.21,.6-.46,.81-.76v1.09h1.41v-7.2h-1.41v1.08Zm-.66,.73c.43,.45,.66,1.05,.66,1.8s-.22,1.35-.66,1.8c-.44,.45-.95,.67-1.56,.67s-1.13-.23-1.57-.69c-.44-.46-.66-1.08-.66-1.83s.22-1.34,.65-1.77c.43-.43,.96-.65,1.57-.65s1.13,.22,1.57,.67Z"/><path class="cls-1" d="M102.34,32.64c-.1-.1-.15-.29-.15-.57v-4.1h1.8v-1.19h-1.8v-1.72h-1.41v1.72h-.9v1.19h.9v4.1c0,1.27,.65,1.91,1.93,1.91h1.29v-1.19h-1.07c-.29,0-.48-.05-.58-.15Z"/><path class="cls-1" d="M108.87,26.67c-.92,0-1.64,.32-2.14,.95v-3.26h-1.4v9.61h1.4v-4.05c0-.66,.16-1.17,.48-1.51,.32-.33,.76-.5,1.31-.5s.99,.17,1.31,.5c.31,.34,.47,.85,.47,1.51v4.05h1.39v-4.24c0-.98-.27-1.74-.81-2.27-.54-.53-1.21-.8-2.01-.8Z"/><path class="cls-1" d="M116.67,26.67c-1.04,0-1.9,.34-2.55,1.02-.65,.68-.98,1.58-.98,2.69s.33,2.01,.97,2.69c.65,.68,1.49,1.03,2.52,1.03,.83,0,1.54-.21,2.09-.62,.55-.41,.95-.94,1.18-1.56l.06-.17h-1.5l-.03,.07c-.14,.32-.37,.58-.67,.78-.3,.2-.68,.3-1.13,.3-.59,0-1.07-.19-1.45-.56-.35-.35-.56-.83-.61-1.43h5.5l.02-.1c.04-.21,.05-.45,.05-.7,0-.99-.32-1.82-.95-2.46-.63-.64-1.48-.97-2.52-.97Zm-.03,1.2c.58,0,1.06,.19,1.45,.57,.36,.35,.56,.81,.59,1.39h-4.1c.06-.59,.27-1.06,.62-1.4,.38-.37,.85-.55,1.44-.55Z"/><path class="cls-1" d="M123.04,27.63v-.84h-1.4v7.2h1.4v-3.92c0-.72,.14-1.23,.43-1.51,.28-.28,.71-.43,1.26-.43h.43v-1.45h-.12c-.87,0-1.54,.32-1.99,.95Z"/><path class="cls-1" d="M127.32,24.1c-.25,0-.46,.09-.64,.26-.17,.18-.26,.39-.26,.65s.09,.47,.26,.64c.17,.18,.39,.27,.64,.27s.47-.09,.64-.26h0c.17-.18,.26-.39,.26-.65s-.09-.47-.26-.65c-.18-.18-.39-.26-.64-.26Z"/><rect class="cls-1" x="126.61" y="26.79" width="1.4" height="7.2"/><path class="cls-1" d="M133.52,26.67c-.92,0-1.64,.32-2.14,.95v-.84h-1.4v7.2h1.4v-4.05c0-.66,.16-1.17,.48-1.51,.32-.33,.76-.5,1.31-.5s.99,.17,1.31,.5c.31,.34,.47,.85,.47,1.51v4.05h1.39v-4.24c0-.98-.27-1.74-.81-2.27-.54-.53-1.21-.8-2.01-.8Z"/><path class="cls-1" d="M143.66,27.86c-.22-.29-.49-.55-.81-.75-.46-.29-1-.44-1.62-.44-.98,0-1.81,.34-2.46,1.02-.65,.67-.98,1.57-.98,2.66s.33,1.99,.98,2.69h0c.65,.7,1.48,1.06,2.46,1.06,.61,0,1.16-.15,1.62-.44,.33-.21,.6-.46,.81-.76v1.15c0,.67-.19,1.2-.56,1.56-.38,.37-.85,.55-1.41,.55s-1.05-.12-1.44-.37c-.38-.24-.62-.55-.72-.92l-.03-.09h-1.36l.02,.14c.09,.74,.46,1.35,1.11,1.81,.64,.45,1.45,.68,2.42,.68s1.79-.32,2.43-.94c.64-.62,.96-1.44,.96-2.42v-7.25h-1.41v1.07Zm-.65,.73c.43,.45,.65,1.05,.65,1.8s-.22,1.35-.65,1.8c-.43,.45-.96,.67-1.56,.67s-1.12-.23-1.57-.69c-.44-.46-.66-1.08-.66-1.83s.22-1.34,.65-1.77c.43-.43,.96-.65,1.57-.65s1.13,.23,1.57,.67Z"/></g><polygon class="cls-1" points="82.23 60.75 84.76 60.75 84.76 69.32 87.52 69.32 87.52 60.75 90.05 60.75 90.05 58.24 82.23 58.24 82.23 60.75"/><path class="cls-1" d="M95.87,58.24l-4.03,11.08h2.88l.75-2.1h3.2l.75,2.1h2.9l-4.01-11.08h-2.43Zm.5,6.48l.71-1.97,.71,1.97h-1.41Z"/><rect class="cls-1" x="104.63" y="58.24" width="2.76" height="11.08"/><path class="cls-1" d="M113.76,58.24h-3.86v11.08h2.76v-3.95h1.1c1.31,0,2.33-.34,3.02-1.01,.7-.67,1.05-1.54,1.05-2.56s-.37-1.9-1.09-2.57c-.71-.66-1.71-.99-2.98-.99Zm-1.1,2.51h1.1c1.2,0,1.3,.5,1.3,1.06s-.2,.73-.27,.79c-.24,.22-.69,.27-1.03,.27h-1.1v-2.12Z"/><polygon class="cls-1" points="120.49 69.32 127.06 69.32 127.06 66.83 123.25 66.83 123.25 64.98 126.65 64.98 126.65 62.5 123.25 62.5 123.25 60.74 127.06 60.74 127.06 58.24 120.49 58.24 120.49 69.32"/><rect class="cls-1" x="129.29" y="58.24" width="2.76" height="11.08"/><polygon class="cls-1" points="158.68 41.61 158 42.38 163.71 47.43 81.63 47.43 81.63 48.46 166.44 48.46 158.68 41.61"/><g><path class="cls-1" d="M38.35,7.37c17.63,0,31.93,14.29,31.93,31.93s-14.29,31.93-31.93,31.93S6.42,56.93,6.42,39.29,20.71,7.37,38.35,7.37m0-1.29C20.03,6.07,5.13,20.98,5.13,39.29s14.9,33.22,33.22,33.22,33.22-14.9,33.22-33.22S56.66,6.07,38.35,6.07Z"/><g><path class="cls-1" d="M23.69,42.21h.18c2.7-.14,4.86-2.54,4.86-5.5,0-3.04-2.27-5.5-5.08-5.5h-7.98l3.03,2.46h4.95c.78,0,1.47,.34,1.99,.89,.51,.55,.82,1.31,.82,2.15,0,.84-.31,1.6-.82,2.15-.51,.55-1.21,.89-1.99,.89h-7.26v1.92h0v6.82h2.27v-5.32l6.16,5.28h4.35l-7.61-6.24h2.13Z"/><path class="cls-1" d="M44.57,42.07c-.14-.43-.35-.83-.64-1.2l-.2,.14,.2-.14c-.29-.37-.64-.7-1.07-.99-.43-.29-.93-.52-1.5-.69h0c-.23-.06-.62-.16-1.16-.29-.54-.13-1.1-.27-1.67-.41-.57-.14-1.08-.27-1.54-.38-.46-.12-.72-.18-.79-.2h0c-.65-.17-1.17-.43-1.58-.78h0c-.41-.34-.61-.83-.61-1.43h0v-.02h0c0-.43,.11-.79,.33-1.08,.22-.29,.49-.52,.82-.69,.33-.17,.69-.29,1.08-.36h0c.39-.07,.77-.11,1.15-.11h0c1.1,0,2.01,.22,2.73,.68,.36,.23,.65,.54,.85,.93,.2,.38,.3,.96,.32,1.12h0s.01,.1,.02,.15l2.48-2.05-.03-.06h0c-.36-.66-.85-1.21-1.47-1.65h0c-.62-.44-1.33-.78-2.15-1-.82-.22-1.69-.33-2.62-.33-.79,0-1.58,.1-2.36,.29-.78,.19-1.47,.49-2.08,.88h0c-.61,.4-1.1,.9-1.47,1.5-.37,.6-.55,1.31-.55,2.14,0,.43,.06,.85,.19,1.26,.12,.41,.33,.8,.63,1.16,.29,.36,.69,.7,1.19,.99,.5,.29,1.12,.53,1.88,.72h.01c1.24,.31,2.28,.57,3.12,.76h0c.85,.2,1.59,.4,2.23,.62h0c.38,.13,.73,.35,1.05,.66,.33,.32,.49,.81,.49,1.46,0,.32-.07,.64-.21,.95h0c-.14,.31-.37,.59-.68,.83-.31,.24-.72,.44-1.21,.59-.5,.15-1.09,.23-1.78,.23-.64,0-1.24-.07-1.79-.2-.55-.13-1.05-.35-1.47-.64-.43-.29-.77-.67-1-1.13-.19-.37-.28-.92-.32-1.41l-2.51,2.08c.04,.1,.08,.21,.14,.31,.4,.74,.92,1.35,1.58,1.82,.66,.48,1.43,.83,2.33,1.06,.6,.15,1.23,.25,1.88,.3,.32,.03,.65,.04,.99,.04s.64-.02,.95-.04c.55-.04,1.09-.12,1.63-.25h0c.84-.19,1.59-.49,2.25-.91,.66-.41,1.19-.94,1.59-1.59,.4-.65,.6-1.43,.6-2.35,0-.43-.07-.86-.21-1.28Z"/><path class="cls-1" d="M55.17,39.82l3.58,2.96c-.03,.12-.06,.24-.09,.36-.03,.11-.07,.23-.11,.35-.24,.67-.64,1.37-1.29,1.89-.65,.52-1.54,.89-2.83,.89h-.05c-.09,0-.17,0-.25,0-.5,0-.96-.07-1.39-.2l-.11-.03c-.25-.08-.5-.18-.71-.31-.62-.36-1.13-.85-1.52-1.45-.39-.61-.68-1.29-.86-2.06-.19-.77-.28-1.55-.28-2.34h0v-.02h0v-.02h0c0-.8,.09-1.58,.28-2.34,.19-.77,.47-1.46,.86-2.06h0c.39-.61,.9-1.09,1.52-1.45h0c.62-.36,1.36-.54,2.2-.54h0c.5,0,.99,.07,1.45,.21,.46,.14,.88,.35,1.26,.64h0c.37,.28,.69,.64,.94,1.06,.16,.27,.27,.58,.36,.92l2.05-1.69c-.03-.06-.06-.12-.09-.18h0c-.39-.71-.89-1.29-1.49-1.76-.6-.47-1.28-.82-2.05-1.06-.77-.24-1.58-.36-2.43-.36-1.18,0-2.23,.23-3.16,.69h0c-.93,.46-1.72,1.09-2.36,1.87-.64,.78-1.14,1.7-1.48,2.74-.34,1.05-.52,2.15-.52,3.33v.02c0,1.17,.17,2.28,.52,3.33,.34,1.05,.84,1.96,1.48,2.74h0c.64,.78,1.43,1.41,2.36,1.87h0c.93,.46,1.98,.69,3.16,.69,.85,0,1.66-.12,2.43-.36,.77-.24,1.45-.59,2.05-1.06,.6-.47,1.09-1.06,1.49-1.76h0c.23-.42,.41-.89,.54-1.38v-.02c.11-.3,.19-.67,.24-1.05h0c.11-.58,.13-1.27,.14-1.58h0v-1.47h-5.85Z"/></g></g><g><path class="cls-1" d="M152.14,28.7c-.13-.07-.27-.12-.42-.17-.14-.04-.28-.07-.42-.11-.12-.03-.24-.06-.34-.1-.07-.02-.12-.06-.17-.11-.02-.02-.04-.06-.04-.15,0-.15,.05-.21,.09-.24,.15-.12,.49-.12,.62,0,.08,.07,.1,.14,.1,.18l.02,.23h1.01l-.03-.28c-.04-.34-.18-.61-.44-.81-.24-.19-.56-.28-.95-.28s-.72,.11-.98,.33c-.26,.23-.4,.53-.4,.9,0,.22,.05,.42,.14,.58,.09,.16,.21,.29,.36,.37,.13,.07,.27,.13,.42,.17,.14,.04,.28,.08,.42,.11,.12,.03,.23,.06,.33,.09,.07,.03,.12,.06,.17,.11,.04,.04,.04,.13,.04,.19,0,.05-.01,.12-.11,.21-.08,.07-.2,.11-.36,.11-.11,0-.25-.01-.33-.08-.06-.05-.09-.12-.1-.21l-.02-.23h-.97v.25c0,.35,.15,.65,.43,.86,.26,.19,.6,.29,1,.29s.76-.12,1.01-.37c.26-.25,.39-.55,.39-.88,0-.22-.05-.41-.14-.57-.09-.16-.22-.28-.37-.37Z"/><polygon class="cls-1" points="156.36 26.9 155.22 29.38 154.07 26.9 153.2 26.9 153.2 30.86 154.15 30.86 154.15 29.22 154.91 30.86 155.52 30.86 156.27 29.23 156.27 30.86 157.23 30.86 157.23 26.9 156.36 26.9"/></g></svg>