<?xml version="1.0" encoding="UTF-8"?><svg id="a" xmlns="http://www.w3.org/2000/svg" viewBox="0 0 344.22 48.63"><defs><style>.b{fill:none;stroke:#292929;}.b,.c{stroke-miterlimit:10;stroke-width:2.26px;}.c{fill:#fff;stroke:#000;}</style></defs><rect class="c" x="148.82" y="-146.54" width="46.35" height="341.7" transform="translate(147.69 196.3) rotate(-90)"/><g><path d="M149.93,26.56c1.75,2.42,4.49,4.73,7.17,6-.56,.52-1.33,1.57-1.73,2.25-2.38-1.33-4.71-3.51-6.55-6v6.94h-2.56v-6.81c-1.83,2.4-4.19,4.52-6.55,5.85-.4-.65-1.19-1.7-1.75-2.25,2.68-1.24,5.42-3.56,7.19-5.98h-6.53v-2.57h7.64v-2.79h-6.12v-2.57h6.12v-3.25h2.56v3.25h6.31v2.57h-6.31v2.79h7.76v2.57h-6.65Z"/><path d="M183.08,28.2c-.56-.68-1.59-1.64-2.6-2.53-.4,.72-.85,1.35-1.35,1.88-.34-.31-1.01-.79-1.57-1.11,1.79,2.57,4.67,4.89,7.7,6.09-.58,.55-1.37,1.66-1.77,2.38-2.44-1.22-4.71-3.18-6.53-5.52v6.35h-2.52v-6.22c-1.81,2.29-4.07,4.19-6.47,5.39-.38-.63-1.17-1.68-1.69-2.22,3.26-1.37,6.41-4.08,8.16-7.02v-5.04h-7.33v-2.55h7.33v-2.68h2.52v2.68h7.59v2.55h-7.59v4.89c.1,.17,.2,.33,.3,.5,1.29-1.24,2.14-3.18,2.54-5.26l2.34,.46c-.18,.81-.4,1.59-.67,2.33,1.15,.96,2.54,2.12,3.28,2.86l-1.67,1.81Zm-10.38-6.98c-.2,.81-.44,1.61-.73,2.36,.73,.68,1.49,1.42,1.95,1.92l-1.61,1.81c-.3-.41-.81-.96-1.35-1.53-.66,1.18-1.43,2.2-2.32,2.99-.38-.46-1.33-1.31-1.85-1.7,1.77-1.37,3-3.66,3.57-6.33l2.34,.48Z"/><path d="M200.65,28.9c-.04-.28-.1-.61-.16-.96-4.03,.65-4.75,.83-5.2,1.07-.12-.48-.48-1.64-.75-2.29,.5-.13,.95-.61,1.57-1.42,.24-.31,.71-.94,1.27-1.81-1.51,.2-1.95,.33-2.26,.48-.12-.46-.46-1.55-.71-2.14,.4-.13,.75-.55,1.15-1.2,.42-.61,1.69-3.03,2.4-5.34l2.08,.92c-.73,1.81-1.69,3.66-2.7,5.21l1.33-.11c.48-.92,.97-1.88,1.35-2.84l1.97,1.31c-1.13,2.25-2.6,4.58-4.11,6.5l2.12-.28c-.14-.59-.32-1.18-.48-1.7l1.71-.59c.5,1.44,1.05,3.34,1.25,4.49l-1.83,.7Zm-3.36,1.11c-.14,2.03-.5,4.19-.93,5.58-.42-.26-1.37-.57-1.87-.74,.48-1.31,.73-3.32,.85-5.17l1.95,.33Zm2.06-.37c.24,1.46,.48,3.27,.54,4.49l-1.83,.39c-.02-1.2-.22-3.08-.42-4.52l1.71-.37Zm1.99-.65c.36,1.05,.75,2.42,.93,3.29l-1.69,.65c-.14-.92-.52-2.31-.87-3.4l1.63-.55Zm12.05,3.86v2.38h-11.54v-2.38h4.55v-3.01h-3.63v-2.31h9.79v2.31h-3.75v3.01h4.57Zm-7.27-13.39c-.58,1.13-1.29,2.36-1.93,3.38,.85,1.2,1.67,2.55,2.08,3.49l-1.91,.81c-.44-1.13-1.33-2.77-2.38-4.25,.83-1.31,1.65-2.9,2.12-3.95l2.03,.52Zm7.03-.87h-10.86v-2.31h10.86v2.31Zm-5.4,8.46c-.42-1.11-1.35-2.75-2.42-4.21,.83-1.27,1.65-2.84,2.14-3.86l2.03,.5c-.62,1.11-1.33,2.33-1.95,3.34,.83,1.16,1.69,2.49,2.12,3.38l-1.91,.85Zm3.57,.09c-.48-1.13-1.51-2.79-2.66-4.25,.85-1.29,1.73-2.9,2.22-3.95l2.06,.52c-.65,1.16-1.35,2.36-1.99,3.38,.89,1.16,1.81,2.49,2.28,3.4l-1.89,.89Z"/><path d="M229.75,31.36c-2.22,.85-4.63,1.68-6.57,2.36l-.54-2.64c.71-.2,1.53-.44,2.46-.72v-5.13h-2.03v-2.38h2.03v-3.84h-2.22v-2.42h6.65v2.42h-2.16v3.84h1.81v2.38h-1.81v4.36c.66-.22,1.33-.44,1.97-.68l.4,2.44Zm11.97,1.33v2.36h-12.95v-2.36h5.56v-2.07h-4.17v-2.33h4.17v-1.88h-4.03v-10.14h10.52v10.14h-4.05v1.88h4.27v2.33h-4.27v2.07h4.96Zm-9.27-12.39h2.08v-1.83h-2.08v1.83Zm0,3.9h2.08v-1.88h-2.08v1.88Zm6.08-5.74h-1.99v1.83h1.99v-1.83Zm0,3.86h-1.99v1.88h1.99v-1.88Z"/><path d="M261.59,15.37c-.02,.92-.06,2.09-.14,3.4,.28,2.94,1.51,11.17,8.54,14.53-.75,.63-1.43,1.51-1.75,2.25-4.47-2.31-6.71-6.57-7.88-10.32-1.11,3.84-3.22,7.79-7.41,10.45-.42-.7-1.19-1.53-1.99-2.12,8.18-4.73,7.8-14.5,7.88-18.19h2.76Z"/><path d="M297.84,31.08h-6.89v4.67h-2.48v-4.67h-9.07v-2.49h3.18v-5.74h5.88v-2.6h-4.31c-.83,1.55-1.79,2.94-2.74,3.97-.46-.44-1.49-1.31-2.08-1.68,1.81-1.66,3.36-4.45,4.23-7.26l2.44,.68c-.18,.61-.4,1.2-.67,1.79h11.38v2.51h-5.78v2.6h5.32v2.42h-5.32v3.32h6.89v2.49Zm-9.37-2.49v-3.32h-3.49v3.32h3.49Z"/><path d="M318.54,16.01l-.3,.39c1.85,1.77,5.16,3.23,8.36,3.95-.5,.44-1.19,1.35-1.51,1.96-.4-.11-.83-.26-1.25-.39v5.63h-14v-5.5c-.42,.15-.85,.31-1.25,.44-.24-.5-.89-1.55-1.29-1.98,3.71-.98,7.31-2.79,9.13-5.32l2.12,.83Zm4.57,5.63c-.95-.37-1.85-.83-2.74-1.33v.57h-7.07v-.44c-.79,.44-1.59,.85-2.44,1.2h12.25Zm-12.15,6.63h11.85v7.37h-2.46v-.52h-7.03v.59h-2.36v-7.44Zm2.28-2.29c-.1-.68-.36-1.57-.69-2.27l1.55-.48h-2.28v2.75h1.41Zm.08,3.99v.87h7.03v-.87h-7.03Zm7.03,3.45v-.87h-7.03v.87h7.03Zm-4.57-10.19h-1.57c.36,.74,.69,1.68,.81,2.31l-1.29,.44h2.05v-2.75Zm2.9-4.03c-.6-.46-1.19-.94-1.69-1.42-.52,.48-1.11,.96-1.71,1.42h3.4Zm-.97,4.03v2.75h1.87l-1.21-.37c.28-.65,.6-1.66,.79-2.38h-1.45Zm3.99,0h-2.1l1.57,.41c-.4,.87-.79,1.72-1.11,2.33h1.63v-2.75Z"/></g><g><path d="M32.04,28.51c-.27,.83-.48,1.71-.62,2.63-.14,.92-.22,1.76-.22,2.51H14.11l-.02-.5c0-1.56,.46-2.92,1.37-4.06,.92-1.15,2.2-2.21,3.84-3.18,.48-.29,1.23-.65,2.25-1.1,1.32-.57,2.34-1.08,3.06-1.52,.72-.44,1.08-.87,1.08-1.3,0-.54-.22-.97-.67-1.29-.45-.32-1.14-.48-2.08-.48-1.04,0-1.82,.26-2.35,.79-.53,.53-.8,1.2-.8,2.01,0,.26,.02,.52,.07,.79-2.01-.25-3.96-.43-5.86-.53,0-1.35,.35-2.58,1.06-3.67s1.78-1.96,3.2-2.59c1.43-.64,3.18-.96,5.25-.96,1.9,0,3.48,.26,4.75,.78,1.27,.52,2.2,1.17,2.8,1.96,.6,.79,.9,1.6,.9,2.43,0,.96-.21,1.78-.63,2.46-.42,.69-1.03,1.3-1.82,1.83-.79,.53-1.85,1.11-3.17,1.73-.19,.1-.5,.2-.93,.32s-.7,.2-.81,.23c-1.13,.33-2.03,.61-2.7,.84-.67,.22-1.3,.5-1.89,.84,5.18-.29,9.2-.61,12.05-.96Z"/><path d="M36.39,31.52c-1.63-1.58-2.44-3.77-2.44-6.58s.82-4.97,2.45-6.54c1.63-1.57,4.16-2.35,7.57-2.35s5.93,.79,7.56,2.35c1.63,1.57,2.44,3.75,2.44,6.54s-.81,5-2.44,6.58c-1.63,1.58-4.14,2.37-7.56,2.37s-5.95-.79-7.58-2.37Zm10.81-3.17c.67-.9,1-2.04,1-3.41s-.33-2.48-1-3.38c-.67-.9-1.74-1.35-3.2-1.35s-2.61,.45-3.29,1.35c-.68,.9-1.02,2.03-1.02,3.38s.34,2.49,1.02,3.4c.68,.91,1.77,1.36,3.29,1.36s2.53-.45,3.2-1.35Z"/><path d="M73.93,28.51c-.27,.83-.48,1.71-.62,2.63-.14,.92-.22,1.76-.22,2.51h-17.1l-.02-.5c0-1.56,.46-2.92,1.37-4.06,.92-1.15,2.2-2.21,3.84-3.18,.48-.29,1.23-.65,2.25-1.1,1.32-.57,2.34-1.08,3.06-1.52,.72-.44,1.08-.87,1.08-1.3,0-.54-.22-.97-.67-1.29-.45-.32-1.14-.48-2.08-.48-1.04,0-1.82,.26-2.35,.79-.53,.53-.8,1.2-.8,2.01,0,.26,.02,.52,.07,.79-2.01-.25-3.96-.43-5.86-.53,0-1.35,.35-2.58,1.06-3.67s1.78-1.96,3.2-2.59c1.43-.64,3.18-.96,5.25-.96,1.9,0,3.48,.26,4.75,.78,1.27,.52,2.2,1.17,2.8,1.96,.6,.79,.9,1.6,.9,2.43,0,.96-.21,1.78-.63,2.46-.42,.69-1.03,1.3-1.82,1.83-.79,.53-1.85,1.11-3.17,1.73-.19,.1-.5,.2-.93,.32s-.7,.2-.81,.23c-1.13,.33-2.03,.61-2.7,.84-.67,.22-1.3,.5-1.89,.84,5.18-.29,9.2-.61,12.05-.96Z"/><path d="M93.89,28.51c-.27,.83-.48,1.71-.62,2.63-.14,.92-.22,1.76-.22,2.51h-17.1l-.02-.5c0-1.56,.46-2.92,1.37-4.06,.92-1.15,2.2-2.21,3.84-3.18,.48-.29,1.23-.65,2.25-1.1,1.32-.57,2.34-1.08,3.06-1.52,.72-.44,1.08-.87,1.08-1.3,0-.54-.22-.97-.67-1.29-.45-.32-1.14-.48-2.08-.48-1.04,0-1.82,.26-2.35,.79-.53,.53-.8,1.2-.8,2.01,0,.26,.02,.52,.07,.79-2.01-.25-3.96-.43-5.86-.53,0-1.35,.35-2.58,1.06-3.67,.71-1.09,1.78-1.96,3.2-2.59,1.43-.64,3.18-.96,5.25-.96,1.9,0,3.48,.26,4.75,.78,1.27,.52,2.2,1.17,2.8,1.96,.6,.79,.9,1.6,.9,2.43,0,.96-.21,1.78-.63,2.46-.42,.69-1.03,1.3-1.82,1.83-.79,.53-1.85,1.11-3.17,1.73-.19,.1-.5,.2-.93,.32s-.7,.2-.81,.23c-1.13,.33-2.03,.61-2.7,.84-.67,.22-1.3,.5-1.89,.84,5.18-.29,9.2-.61,12.05-.96Z"/></g><line class="b" x1="109.53" y1="1.13" x2="109.53" y2="47.48"/></svg>