<?xml version="1.0" encoding="UTF-8"?><svg id="a" xmlns="http://www.w3.org/2000/svg" viewBox="0 0 333.1 64.73"><defs><style>.b{fill:#b9ff00;}.b,.c{stroke:#fff;stroke-miterlimit:10;stroke-width:5px;}.d{fill:#fff;}</style></defs><polyline class="b" points="174.59 3.42 329.89 3.42 319.68 61.32 164.38 61.32"/><g><polyline class="c" points="164.77 61.32 3.21 61.32 13.42 3.42 174.98 3.42"/><g><path class="d" d="M45.89,33.93c-.52-.55-1.58-1.45-2.45-2.13-.99,1.12-2.45,2.24-4.59,3.16-.26-.53-.84-1.34-1.33-1.75,2.39-.88,3.69-1.95,4.44-3.05h-3.64l.36-2.04h1.47c-.47-.33-1.1-.72-1.5-.94,1.3-1.05,2.44-2.65,3.16-4.27l2.21,.48c-.21,.42-.41,.85-.67,1.29h5.43l-.36,2.01h-2.85l-.17,.99c-.03,.15-.05,.29-.1,.44h3.37l-.36,2.04h-3.61c.84,.48,2.8,1.73,3.31,2.1l-2.13,1.67Zm-5.38,.33h14.28l-1.63,9.22h-2.67l.12-.7h-9.05l-.13,.72h-2.56l1.63-9.25Zm2.33-6.14c.05-.17,.08-.33,.11-.48l.17-.94h-1.1c-.4,.53-.83,1.01-1.26,1.42h2.08Zm8.14,12.58l.23-1.29h-9.05l-.23,1.29h9.05Zm-8.27-4.4l-.22,1.23h9.05l.22-1.23h-9.05Zm15.66-11.66l-1.46,8.3h-8.32l1.46-8.3h8.32Zm-2.99,2.3h-3.33l-.65,3.7h3.33l.65-3.7Z"/><path class="d" d="M62.29,41.69c1.42-.83,2.65-2.21,3.37-3.61l2.11,.81c-.86,1.62-2.02,3.24-3.67,4.27l-1.82-1.47Zm16.71-6.7h-14.85l.26-1.49h14.85l.15-.83h-13.18l.28-1.58h15.73l-.42,2.41h1.88l-.26,1.49h-1.88l-.42,2.41h-6.68c.52,.42,.99,.85,1.25,1.25l-2.03,1.56c-.46-.74-1.57-1.75-2.56-2.37l.6-.44h-6.44l.28-1.58h13.32l.15-.83Zm-10.49-5.08h-3.35l.27-1.53h3.35l.12-.7h-2.69l.27-1.51h2.69l.12-.68h-3.18l.27-1.51h3.18l.16-.9h2.39l-.16,.9h3.04l-.27,1.51h-3.04l-.12,.68h2.76l-.27,1.51h-2.76l-.12,.7h3.29l-.27,1.53h-3.29l-.15,.88h-2.39l.15-.88Zm6.33,11.15c.79,0,.98-.22,1.35-1.66,.44,.37,1.45,.74,2.1,.88-.71,2.41-1.54,3-3.57,3h-3.53c-2.83,0-3.37-.66-2.98-2.85l.41-2.34h2.58l-.41,2.34c-.1,.57,.06,.64,1.07,.64h2.98Zm3.04-11.15h-3.18l.27-1.53h3.18l.13-.72h-2.65l.26-1.49h2.65l.12-.68h-3.13l.27-1.51h3.13l.16-.9h2.41l-.16,.9h3.48l-.27,1.51h-3.48l-.12,.68h3.07l-.26,1.49h-3.07l-.13,.72h3.85l-.27,1.53h-3.85l-.15,.88h-2.41l.15-.88Zm1.99,7.95c1.21,1.1,2.51,2.65,2.93,3.9l-2.49,1.31c-.36-1.18-1.56-2.85-2.73-4.03l2.29-1.18Z"/><path class="d" d="M96.46,36.36c-1.58,2.26-3.4,4.75-5.07,6.88l-1.9-1.75c1.45-1.64,3.59-4.36,5.36-6.9l1.62,1.77Zm-2.27-2.76c-.7-.77-2.36-1.77-3.66-2.37l1.68-1.97c1.33,.53,3.01,1.42,3.82,2.17l-1.85,2.17Zm2.35-5.98c-.72-.77-2.33-1.82-3.67-2.41l1.79-1.95c1.29,.53,2.98,1.47,3.77,2.23l-1.89,2.13Zm6.58,7.65c-1.15,3.15-3.18,6.11-7.37,8.26-.38-.57-1.25-1.47-1.84-1.86,3.59-1.73,5.43-3.97,6.49-6.4h-4.47l.43-2.45h4.86c.17-.72,.32-1.45,.45-2.19l.31-1.78h-3.83l.43-2.45h3.83l.59-3.33h2.61l-.59,3.33h5.06l-1.13,6.42h1.64l-.43,2.45h-7.05Zm2.66,.06c1.09,2.13,2.67,5.08,3.33,6.84l-2.56,1.34c-.58-1.8-2.04-4.84-3.11-7.08l2.34-1.1Zm-1.49-4.71c-.13,.72-.28,1.45-.45,2.19h2.58l.7-3.97h-2.52l-.31,1.78Z"/><path class="d" d="M134.51,36.25c-.19,1.1-.5,1.62-1.35,1.95-.8,.31-1.79,.33-2.97,.33,1.51,.85,3.43,1.56,5.53,1.95-.65,.57-1.58,1.62-2.05,2.3-2.68-.7-4.91-2.08-6.47-3.55l-.76,4.29h-2.8l.77-4.36c-2.3,1.73-5.07,3.02-7.94,3.77-.24-.66-.78-1.66-1.23-2.19,3.76-.72,7.45-2.37,9.68-4.49l.27-1.53h-4.18l-.68,3.88h-2.76l1.07-6.09h6.94l.19-1.05h-8.34l.39-2.23h5.91c-.35-.64-1.12-1.49-1.72-2.15l.96-.72h-1.29c-.88,1.12-1.83,2.08-2.76,2.85-.3-.44-.99-1.36-1.42-1.75,1.47-1.14,3-2.87,3.99-4.6l2.18,.66c-.16,.28-.34,.57-.52,.85h4.77l-.35,1.99h-3.11c.48,.5,.95,1.05,1.21,1.45l-1.78,1.42h2.28l.21-1.18h1.93c-.42-.37-.9-.83-1.28-1.07,1.39-1.03,2.64-2.56,3.46-4.12l2.26,.59c-.16,.31-.35,.63-.54,.94h6.02l-.35,1.97h-3.79c.51,.46,.99,.99,1.27,1.38l-1.99,1.49c-.36-.59-1.19-1.47-1.87-2.08l1.06-.79h-1.77c-.51,.66-1.07,1.25-1.62,1.73l-.2,1.14h7.88l-.39,2.23h-7.88l-.19,1.05h6.79l-.66,3.75Zm-6.86,.39c.61,.64,1.42,1.25,2.42,1.82-.06-.64-.3-1.4-.49-1.95,.69,.07,1.59,.04,1.83,.04,.26,0,.36-.07,.4-.31l.27-1.53h-4.1l-.34,1.93Z"/></g></g><g><path d="M207.07,26.2l-3.05,17.31h-2.17l.66-3.77c-1.83,.33-3.66,.66-5.23,.94l-.05-2.43c.45-.07,.99-.13,1.57-.22l2.09-11.83h-1.12l.41-2.32h8.45l-.41,2.32h-1.16Zm-4.15,11.22l.41-2.34h-1.91l-.47,2.65,1.96-.31Zm-1.12-4.47h1.91l.41-2.32h-1.91l-.41,2.32Zm3.1-6.75h-1.91l-.41,2.3h1.91l.41-2.3Zm-.38,15.71c.79-1.25,1.62-3.22,2.09-4.8l1.69,.61c-.54,1.56-1.28,3.66-2.07,5.02l-1.71-.83Zm10.87,.44c-.03-.59-.11-1.38-.23-2.17-.6,2.28-1.28,2.91-2.81,2.91h-2.34c-2.04,0-2.41-.59-2.09-2.41l.62-3.53h2.15l-.62,3.51c-.1,.57,0,.61,.59,.61h1.77c.53,0,.68-.26,1.04-1.91l-1.22,.59c-.24-.88-.85-2.37-1.32-3.44l1.61-.7h-5.61l1.9-10.76h3.18c.37-.72,.78-1.56,1-2.19l2.58,.42c-.42,.63-.85,1.23-1.23,1.77h4.97l-1.9,10.76h-4.62c.47,1.05,1.11,2.41,1.38,3.24l-.62,.26c.39,.28,1.1,.57,1.61,.7-.09-.83-.23-1.67-.34-2.41l1.87-.66c.28,1.53,.6,3.42,.71,4.69l-2.01,.7Zm-5.97-8.63h6.13l.22-1.23-1.51,.96c-.18-.46-.47-.94-.79-1.49-.79,.61-1.7,1.18-2.74,1.73-.14-.35-.47-.92-.75-1.12,1.05-.5,1.99-1.12,2.8-1.73-.14-.22-.28-.42-.42-.61-.53,.39-1.12,.77-1.73,1.14-.1-.31-.38-.72-.64-.99l-.59,3.33Zm1.16-6.59l-.53,3.02c.55-.28,1.07-.61,1.51-.96-.26-.37-.57-.72-.87-1.01l1.42-.85c.24,.24,.48,.5,.74,.77,.29-.28,.54-.59,.75-.88l1.51,.26c-.41,.57-.87,1.1-1.4,1.62,.14,.2,.28,.4,.43,.57,.35-.35,.65-.7,.91-1.05l1.38,.26,.31-1.75h-6.13Zm5.78,1.99c-.45,.57-.94,1.12-1.47,1.64,.36,.59,.67,1.14,.89,1.64l.58-3.29Z"/><path d="M226.99,37.61l-.33,1.88h-2.41l2.69-15.27h7.64l-2.36,13.39h-5.24Zm3.24-2.37l.57-3.24h-2.83l-.57,3.24h2.83Zm-1.3-8.65l-.55,3.09h2.83l.55-3.09h-2.83Zm14.15,13.91c-.24,1.38-.65,2.08-1.58,2.5-.95,.42-2.21,.48-4.03,.48,.02-.72-.22-1.86-.48-2.52,1.17,.07,2.51,.04,2.89,.02,.39,0,.55-.13,.61-.5l.68-3.86h-5.15c-1.01,2.63-2.65,5.24-5.42,7.03-.31-.5-1.15-1.4-1.64-1.73,4.16-2.72,5.21-6.79,5.79-10.12l1.39-7.89h9.86l-2.92,16.59Zm-1.49-6.22l.49-2.8h-4.71l-.06,.33c-.14,.79-.31,1.62-.55,2.48h4.82Zm-3.31-7.95l-.49,2.8h4.71l.49-2.8h-4.71Z"/><path d="M270.5,27.25c-1.19,5.76-2.54,13.3-1.84,13.56,.11,.02,.49-1.56,.79-3.13,.29,.61,.79,1.51,1.1,1.82-.8,3.55-2.04,4.36-3.32,3.79-1.12-.48-1.2-2.89-.85-6.13l-1.54,1.66c-.23-.42-.59-.88-1.01-1.38-1.01,2.26-2.49,4.4-4.6,6.09-.36-.46-1.16-1.25-1.72-1.56,2.24-1.77,3.65-4.05,4.56-6.38-.63-.63-1.34-1.23-1.99-1.75l-.34,1.93h-2.96l-.27,1.51h3.57l-.39,2.19h-3.57l-.7,3.97h-2.41l.7-3.97h-3.81l.39-2.19h3.81l.27-1.51h-3.15l.39-2.19h1.47c-.07-.72-.27-1.69-.51-2.43l1.21-.42h-2.3l.39-2.19h3.7l.25-1.4h-3.02l.38-2.15h3.02l.34-1.95h2.41l-.34,1.95h2.87l-.38,2.15h-2.87l-.25,1.4h3.46l-.39,2.19h-2.89l1.9,.5c-.48,.83-.95,1.64-1.38,2.34h1.45v.06l1.57-1.66c.41,.28,.81,.61,1.24,.94,.3-1.07,.51-2.15,.68-3.09l.03-.18h-2.1l.43-2.41h2.1l.73-4.16h2.43l-.73,4.16h3.99Zm-15.9,3.48c.3,.81,.56,1.77,.58,2.45l-1.08,.39h2.52c.47-.83,1.03-2.02,1.38-2.85h-3.39Zm11.46-.88c-.26,1.47-.61,3.11-1.13,4.8,.62,.57,1.15,1.18,1.56,1.73,.27-2.04,.68-4.36,1.12-6.73h-1.51l-.03,.2Z"/><path d="M286.08,28.74c-.85,1.12-1.87,2.26-2.93,3.35l-2.02,11.44h-2.61l1.51-8.57c-.72,.59-1.41,1.14-2.08,1.62-.28-.53-.95-1.71-1.38-2.26,2.5-1.53,5.34-4.08,7.18-6.55l2.33,.97Zm.01-4.67c-1.94,2.06-4.7,4.32-7.04,5.76-.23-.57-.7-1.62-1.07-2.13,2.02-1.16,4.45-3.13,5.77-4.67l2.34,1.03Zm11.34,8.72h-3l-1.36,7.69c-.25,1.4-.64,2.13-1.67,2.52-.99,.39-2.4,.44-4.35,.44,.03-.77-.11-1.88-.32-2.65,1.24,.07,2.68,.07,3.08,.04,.39,0,.56-.09,.62-.42l1.34-7.62h-6.46l.44-2.48h12.11l-.44,2.48Zm.51-6.03h-10.64l.44-2.48h10.64l-.44,2.48Z"/></g></svg>