<?xml version="1.0" encoding="UTF-8"?><svg id="a" xmlns="http://www.w3.org/2000/svg" viewBox="0 0 572.84 239.36"><g><path d="M41.04,194.08c-3.82,.99-7.65,1.98-11.57,2.97l-2.52,20.5c-.83,6.73-2.4,10.3-6.37,12.48-3.98,2.28-8.97,2.67-15.99,2.67,.08-3.76-.98-9.8-2.23-13.57,3.3,.2,7.28,.2,8.52,.2,1.33,0,1.86-.5,2.03-1.88l2.07-16.84-8.91,2.18-1.84-14.36c3.6-.69,7.88-1.58,12.56-2.57l1.81-14.76H7.41l1.67-13.57h11.2l2.24-18.22h14.05l-2.24,18.22h9.4l-1.67,13.57h-9.4l-1.41,11.49,9.77-2.28,.02,13.77Zm56.1-33.28h-14.24l-6.7,54.57c-.96,7.82-3.1,12.08-8.24,14.56-5.16,2.58-11.74,2.87-20.57,2.87-.12-4.46-1.89-11.69-3.57-15.75,5.25,.5,12.48,.4,14.47,.4s2.73-.59,2.95-2.38l6.66-54.27h-22.5l1.78-14.46h51.73l-1.78,14.46Z"/><path d="M127.35,188.43c-1.98,7.63-4.34,14.46-7.16,20.4,4.16,9.41,13.8,10.5,28.03,10.6,10.25,0,26.95-.69,38.48-1.88-2.25,2.87-4.85,9.31-5.98,13.17-10.53,.69-22.81,.99-34.29,.99-16.52,0-26.82-1.88-32.76-11.49-3.92,5.65-8.35,10-13.2,13.17-1.38-2.67-5.23-7.63-7.57-9.51,8.71-5.25,15.42-14.26,19.79-26.64h-5.88c-1.99,0-5.02,.69-5.98,1.58-.31-2.87-1.87-8.72-2.81-11.09,1.67-.5,3.29-1.29,5.25-3.37,1.51-1.49,4.81-5.94,8.12-10.5h-9.49l1.39-11.29h17.28l1.09-.4,7.76,3.27c-3.69,5.35-9.71,14.16-14.8,20.8h4.37l2.12-.3,6.25,2.48Zm-9.47-26.44c-2.13-4.26-6.88-11.19-10.74-16.14l10.97-6.64c4.08,4.65,8.74,10.8,11.19,14.76l-11.43,8.02Zm19.7,5.74c-2.62-1.88-6.51-4.16-8.85-5.25,6.07-5.35,11.49-13.96,14.8-22.38l11.99,2.87c-.94,2.28-2.08,4.56-3.21,6.83h3.32l1.29-10.5h13.67l-1.29,10.5h18.13l-1.48,12.08h-18.13l-.72,5.84h22.12l-1.47,11.98h-58.19l1.47-11.98h6.55Zm-6.35,46.35l3.71-30.21h47.74l-3.71,30.21h-47.74Zm13.72-52.19c-1.6,2.18-3.17,4.16-4.7,5.84h13.19l.72-5.84h-9.21Zm.85,41h20.6l.96-7.82h-20.6l-.96,7.82Z"/><path d="M279.9,174.47c-5.58,12.97-12.52,24.66-20.58,34.66,1.39,5.65,3.37,8.91,5.65,8.91,1.9,0,3.65-4.95,5.6-17.03,2.72,3.37,7.15,6.73,10.67,8.22-4.46,19.31-9.43,23.47-19.21,23.47-6.27,0-10.87-4.26-14.07-11.39-4.82,4.46-10.05,8.42-15.49,11.79-1.62-3.07-5.91-9.11-8.51-11.88,7.31-3.86,14-8.91,19.87-14.96-1.86-11.09-2.18-24.76-1.57-39.02h-24.68l-1.16,9.41h23.26s-.52,3.47-.72,5.05c-2.77,20.2-4.36,29.32-7.03,32.48-2.44,2.87-4.75,3.86-7.67,4.46-2.62,.5-6.62,.59-10.99,.59,.31-4.06-.45-9.51-1.91-13.07-2.62,10.5-6.58,21.1-12.35,28.72-2.02-2.87-7.63-8.22-10.55-9.9,8.46-11.69,11.09-29.22,12.68-42.19l3.65-29.71h38.35c.37-4.56,.83-9.11,1.39-13.67h14.52c-.65,4.56-1.21,9.11-1.58,13.67h10.73c-2.65-2.38-5.94-4.95-8.65-6.83l9.41-8.62c4.51,2.67,10.62,7.03,13.54,10.3l-5.38,5.15h10.06l-1.74,14.16h-28.95c-.33,8.12-.25,15.95,.24,22.78,3.66-5.84,6.91-12.18,9.64-19.02l13.53,3.47Zm-65.18,15.25c-.81,5.05-1.86,10.5-3.2,16.04,2.81,.3,5.27,.4,6.78,.4,1.23,0,2.13-.3,3.01-1.29,.91-1.19,1.78-5.25,3.19-15.15h-9.78Z"/><path d="M372.83,204.68c-4.98,3.47-10.51,6.73-15.6,9.51,4.87,2.87,10.78,4.95,17.83,6.34-3.41,3.07-8.05,9.11-10.33,12.97-20.44-5.15-30.82-16.44-36.49-34.47h-12.62l-2.21,18.02,18.52-3.17c-1.22,3.76-2.53,9.8-2.91,12.88-21.11,4.16-26.76,5.35-29.75,6.54l-.84,.69c-.33-3.47-2.07-10.99-3.83-14.46,2.53-1.29,5.4-3.76,5.9-7.82l1.56-12.68h-13.1l1.54-12.58h15.47l5.41-44.07h60.84l-1.43,11.69h-46.7l-.44,3.57h44.33l-1.35,10.99h-44.33l-.41,3.37h44.33l-1.35,10.99h-44.33l-.43,3.47h57.14l-1.54,12.58h-9.87l7,5.64Zm-29.87-5.64c1.45,2.87,3.13,5.45,5.21,7.82,3.91-2.48,8.05-5.25,11.5-7.82h-16.71Z"/><path d="M475.46,141.89l-11.24,91.51h-13.1l.57-4.65h-56.48l-.57,4.65h-12.43l11.24-91.51h82.01Zm-22.45,76.16l8.04-65.46h-56.48l-8.04,65.46h56.48Zm-4.15-20.3h5.13l-.91,7.43h-11.49l-.56,4.56c-.54,4.36-1.56,5.74-4.61,6.64-2.97,.99-6.86,.99-11.99,.99-.17-2.48-.99-5.05-1.7-7.03,1.98,.1,4.92,.1,5.78,.1s1.27-.3,1.38-1.19l.5-4.06h-13.48c1.62,2.28,3.26,5.15,3.97,7.13l-9.67,4.56c-.66-2.38-2.57-6.14-4.33-8.81l6.33-2.87h-14.05l.91-7.43h31.23l.24-1.98c-10.77,.4-21.06,.69-29.33,.79l.51-7.23c5.51,0,12.33,.1,19.73,.1l.28-2.28h-18.03l2.52-20.5h18.03l.27-2.18h-20.03l.92-7.53h20.03l.36-2.97h11.11l-.36,2.97h20.22l-.92,7.53h-20.22l-.27,2.18h18.22l-2.52,20.5h-3.23c2.39,2.18,4.45,4.75,5.73,6.64l-5.71,3.96Zm-32.24-23.47h7.69l.27-2.18h-7.69l-.27,2.18Zm6.78,7.43l.28-2.28h-7.69l-.28,2.28h7.69Zm12.29-9.61l-.27,2.18h7.4l.27-2.18h-7.4Zm-.9,7.33l-.28,2.28h7.4l.28-2.28h-7.4Zm-.95,7.72l-.28,2.28,5.23-.1-.18-.1,3.29-2.08h-8.07Zm8.67,10.6h3.51c-.57-.79-1.13-1.58-1.8-2.38l-1.44,.1-.28,2.28Z"/><path d="M518.53,148.32c-3.35,8.72-7.67,19.91-11.07,27.53,4.32,7.33,4.47,13.87,3.79,19.41-.85,6.93-2.69,11.09-6.21,13.47-1.76,1.19-3.74,1.88-5.98,2.28-1.64,.2-3.83,.3-6.11,.3,.21-2.48,.16-5.94-.42-8.91l-3.82,31.1h-11.96l11.04-89.93h20.41l1.96-.5,8.37,5.25Zm-25.61,50.91h1.99c.95,0,1.83-.2,2.57-.79,1.05-.79,1.62-2.38,1.95-5.05,.51-4.16,.28-10-3.54-16.04,2.14-5.84,4.88-14.26,6.94-21h-4.65l-5.27,42.88Zm76.71-21c-3.48,2.08-7.36,4.26-11.1,6.14,1.8,9.31,5.67,19.51,9.94,25.75-3.01,2.08-7.52,6.34-9.86,9.21-3.78-6.34-7.17-15.85-9.42-25.35,1.05,13.87-2.61,27.43-7.79,32.48-3.87,4.46-7.65,5.84-13.07,5.94-2.18,0-5.03,0-7.76-.2,.26-3.66-.04-8.91-1.77-12.68,3.27,.4,6.39,.49,8.67,.49s3.67-.49,5.22-3.07c1.23-1.49,2.46-4.56,3.24-8.62-7.45,5.05-16.18,9.61-23.54,12.38-1.51-3.17-4.21-7.43-6.84-10,10.69-2.77,23.72-9.21,31.16-15.65l-.38-3.86c-5.73,4.16-12.79,8.32-18.34,10.99-1.25-2.97-3.73-7.53-5.99-10,7.01-2.18,16.3-6.73,21.65-10.89-.59-1.39-1.19-2.67-1.98-3.96-4.95,3.17-10.13,5.94-14.95,8.12-1.3-2.57-4.46-7.72-6.54-10.1,6.25-2.18,12.69-5.15,18.35-8.72h-13.48l1.51-12.28h13.1c-1.82-2.97-4.37-6.14-6.82-8.62l10.85-6.44c3.95,3.37,7.93,8.12,9.75,11.79l-4.96,3.27h7.31c3.36-4.16,7.42-10.2,9.7-14.86l12.72,3.86c-2.86,3.96-5.8,7.82-8.47,10.99h11.96l-1.51,12.28h-24.58c-1.3,1.29-2.68,2.48-4.15,3.66,1.85,2.67,3.39,5.64,4.53,8.72,5.8-3.17,12.06-7.03,16.37-10.4l7.27,9.61Z"/></g><g><path d="M67.63,98.82h35.98l-2.29,15.5H15.29l2.29-15.5H52.15l1.7-11.53H29.13l2.21-15.02h24.72l1.65-11.18h-19.6l1.56-10.57c-4.58,3.12-9.23,6.01-13.58,8.29-1.37-4.33-4.19-10.45-6.85-14.18,11.03-4.57,23.27-12.62,33.56-21.75h-10.45l2.37-16.1h36.78c6.11,14.42,19.55,28.96,36.25,36.29-3.56,3.72-9.29,11.17-12.12,16.1-3.97-2.4-7.68-5.17-11.26-8.17l-1.49,10.09h-19.7l-1.65,11.18h25.02l-2.21,15.02h-25.02l-1.7,11.53Zm3.56-75.94c-7.23,8.17-16.04,16.1-25.09,22.95h42.71c-7.01-6.97-12.86-15.02-17.52-22.95h-.1Z"/><path d="M183.66,95.45c8.1,3,16.39,6.73,22.42,9.49l-14.77,12.26c-7.4-4.33-20.5-10.21-30.82-13.82l10.62-7.93h-25.73l7.38,7.21c-8.85,5.53-22.79,11.41-33.36,14.3-2.18-3.6-6.29-9.13-9.31-12.5,8.12-1.92,17.58-5.41,24.84-9.01h-13.57l8.01-54.31h75.27l-8.01,54.31h-12.96Zm18.02-57.43h-67.13l4.7-31.84h67.13l-4.7,31.84Zm-64.05,45.9h45.42l.48-3.24h-45.42l-.48,3.24Zm2.07-14.06h45.42l.46-3.12h-45.42l-.46,3.12Zm2.06-13.94h45.42l.46-3.12h-45.42l-.46,3.12Zm47.07-36.41h-36.88l-.76,5.17h36.88l.76-5.17Z"/><path d="M311.66,40.18c-4.43,17.78-9.78,32.92-16.65,45.42,2.97,7.09,7.03,12.98,12.44,17.18-3.69,3.24-9.07,9.73-11.86,14.3-4.69-4.32-8.35-9.49-11.16-15.62-4.79,5.89-10.25,10.93-16.4,15.14-1.23-3.24-5.28-9.85-7.65-12.86,7.59-4.45,13.8-10.45,19-17.78-1.73-7.33-2.74-15.5-3.24-24.39l-1.53,2.16c-1.32-2.64-4.63-7.45-7.2-10.45l-1.19,6.73h5.73l-2.09,14.18h-6.13c-.79,3.97-1.52,7.57-2.1,10.81h6.03l-2.06,13.94h-7.14c-1.52,5.53-2.82,8.89-4.09,10.69-2.7,3.97-5.1,5.29-8.24,6.13-2.82,.72-6.54,.72-10.54,.6,.42-4.21-.07-10.45-1.27-14.54,2.76,.36,5.05,.48,6.68,.36,1.29,.12,2.16-.36,3.32-2.04,.25-.36,.41-.72,.68-1.2h-29.24c1.93-6.97,4.01-15.62,6.16-24.75h-5.93l2.09-14.18h7.03c.82-4.2,1.74-8.41,2.55-12.5-2.41-2.76-6.21-6.25-8.46-8.05,7.21-8.65,13.5-22.71,17.77-36.65l13.09,3.24c-.89,2.64-1.8,5.41-2.79,8.05h31.15l-2.2,14.9h-35.27c-1.06,2.4-2.2,4.69-3.42,6.85h32.86s-.81,4.81-1.09,6.73l-1.14,6.37c7.91-11.41,14.18-28.72,18.68-46.26l13.18,2.64c-1.76,6.49-3.82,12.98-6.05,19.22h23.92l-2.3,15.62h-3.92Zm-76.67,34c-.85,3.72-1.68,7.33-2.5,10.81h6.03c-1.12-2.64-2.58-5.65-4.04-8.05l4.53-2.76h-4.02Zm3.1-14.18h5.02c-.73-2.52-1.92-5.41-3.19-7.69l4.59-2.52h-4.32l-2.11,10.21Zm10.59,24.99c.64-3,1.38-6.61,2.2-10.81h-6.03c1.8,2.76,3.34,6.01,4.09,8.41l-3.77,2.4h3.52Zm4.69-24.99l1.81-10.21h-5.43c1.48,2.88,2.8,6.25,3.23,8.77l-2.52,1.44h2.91Zm34.78-19.82c-.06,9.25,.44,18.14,1.77,26.19,3.16-7.81,5.76-16.58,8.08-26.19h-9.85Z"/><path d="M355.18,68.9c-3.07,1.08-6.13,2.04-9.29,3l-4,27.15c-1.12,7.57-2.78,12.01-6.58,14.66-3.83,2.76-8.54,3.36-15.17,3.36,.34-4.32-.21-11.53-1.23-16.22,3.18,.24,6.5,.24,7.72,.12,1.21,0,1.66-.36,1.89-1.92l3.37-22.83-8.53,2.64-.55-16.7c3.32-.72,7.3-1.8,11.58-2.88l2.73-18.5h-9.45l2.36-15.98h9.45l3.22-21.87h13.37l-3.22,21.87h8.04l-2.36,15.98h-8.04l-2.16,14.66,7.35-2.16-.49,15.62Zm31.72,31.6c2.56,.36,5.16,.48,7.87,.48,3.52,0,14.47,0,19.13-.24-2.22,3.48-4.98,10.57-6.1,14.78h-16.18c-13.16,0-23.73-2.64-30.32-12.5-2.94,5.65-6.38,10.57-10.18,14.54-1.92-2.64-6.84-7.45-9.55-9.49,7.9-7.21,13.08-19.22,16.28-32.68l12.96,2.04c-.95,3.72-2.09,7.33-3.3,10.81,1.58,3.6,3.8,6.25,6.53,8.17l3.31-22.47h-17.89l1.88-12.74h17.89l.57-3.84h-23.92l1.97-13.34h23.92l.51-3.48h-17.89l1.9-12.86h17.89l.5-3.36h-22.01l1.98-13.46h22.01l1.2-8.17h13.47l-1.2,8.17h24.72l-1.98,13.46h-24.72l-.5,3.36h21.11l-2.41,16.34h5.83l-1.97,13.34h-5.83l-2.45,16.58h-21.11l-.74,5.05h21.61l-1.97,13.34h-21.61l-1.2,8.17Zm5.79-39.29h7.64l.57-3.84h-7.64l-.57,3.84Zm2.53-17.18h7.64l.51-3.48h-7.64l-.51,3.48Z"/></g></svg>