<?xml version="1.0" encoding="utf-8"?>
<!-- Generator: Adobe Illustrator 16.2.1, SVG Export Plug-In . SVG Version: 6.00 Build 0)  -->
<!DOCTYPE svg PUBLIC "-//W3C//DTD SVG 1.1//EN" "http://www.w3.org/Graphics/SVG/1.1/DTD/svg11.dtd">
<svg version="1.1" id="Layer_1" xmlns="http://www.w3.org/2000/svg" xmlns:xlink="http://www.w3.org/1999/xlink" x="0px" y="0px"
	 width="2060px" height="400px" viewBox="217.012 672.312 2060 400" enable-background="new 217.012 672.312 2060 400"
	 xml:space="preserve">
<g>
	<path fill="#FFFFFF" d="M369.322,872.84L369.322,872.84l66.446-62.931l-76.642-72.423l-76.291,72.423l0,0L216.39,872.84
		l66.095,62.228l0,0l76.642,72.423l76.642-72.423L369.322,872.84L369.322,872.84z"/>
	<g>
		<path fill="#FFFFFF" d="M712.453,764.205h-48.517c-4.219-10.195-11.251-23.555-17.579-34.102l-22.148,5.977
			c4.219,8.438,9.492,18.984,13.711,28.125h-60.47v19.337h135.354L712.453,764.205L712.453,764.205z M627.725,827.487
			c-1.406-11.602-6.328-28.828-12.656-42.188l-18.281,4.219c5.273,13.711,10.195,31.641,11.602,42.891L627.725,827.487z
			 M600.654,922.411c-6.328,20.039-16.876,41.133-29.181,55.548c4.57,2.461,12.305,8.438,16.173,11.25
			c11.602-15.469,24.609-39.728,31.992-61.524L600.654,922.411z M713.508,905.888v-19.688h-55.899v-32.344h59.415v-19.337h-39.376
			c5.977-13.008,11.602-29.531,17.227-44.648l-21.094-4.219c-3.867,14.062-10.898,34.805-16.876,48.867h-85.431v19.337h63.282
			v32.344h-61.524v19.688h61.524v107.228h22.5V905.888C657.257,905.888,713.508,905.888,713.508,905.888z M671.319,928.739
			c9.141,14.766,20.391,36.211,25.312,49.571l16.524-9.141c-5.274-13.36-16.173-33.399-26.017-48.517L671.319,928.739z
			 M851.674,835.222h-98.439V776.51c32.345-4.922,67.853-12.656,93.166-22.148l-18.282-16.875
			c-22.148,9.141-61.524,18.633-96.329,24.258V868.27c0,41.134-2.461,94.22-28.478,131.135c4.923,2.461,14.063,9.492,17.579,14.062
			c28.125-40.078,32.344-100.899,32.344-145.197v-10.898h42.54v155.393h22.148V856.668h33.751V835.222L851.674,835.222z"/>
		<path fill="#FFFFFF" d="M1103.748,922.06v35.859h-73.479V922.06H1103.748z M1122.732,974.795v-70.313h-112.854v84.376h20.04
			v-14.062H1122.732z M1185.312,829.597h-70.313c8.086-10.898,16.523-24.609,23.906-36.914l-23.203-5.273
			c-4.922,12.305-14.414,29.531-22.5,42.188H950.112v184.222h21.798V848.582h53.086c-4.219,23.906-16.523,36.211-52.734,42.539
			c4.219,3.867,9.141,11.25,11.25,16.173c42.539-9.493,57.306-26.72,61.876-58.712h34.805v19.688
			c0,18.281,3.868,26.367,22.501,26.367h32.344c6.68,0,14.062,0,17.931-1.406c-0.704-4.922-1.406-11.25-1.406-16.523
			c-4.22,1.055-12.306,1.406-16.876,1.406h-27.773c-4.922,0-5.977-2.461-5.977-9.141v-20.039h62.579v139.924
			c0,4.922-1.758,6.328-6.68,6.328c-4.922,0.352-22.853,0.703-42.188,0c3.164,4.922,5.977,11.953,7.031,17.578
			c26.367,0,41.837-0.352,50.978-3.164c9.141-3.516,11.953-8.789,11.953-20.742V829.597H1185.312z M998.277,792.331
			c6.328,11.602,14.766,27.07,19.336,35.859l19.688-8.086c-3.867-9.141-12.657-23.555-19.337-34.453L998.277,792.331z
			 M1084.061,765.26c-3.517-10.195-9.142-23.906-13.36-34.805l-21.445,5.625c3.867,8.789,7.734,19.688,10.898,29.18H932.534v19.688
			h269.653V765.26H1084.061z"/>
		<path fill="#FFFFFF" d="M1379.025,956.513c-20.391,13.36-59.768,25.313-91.408,30.587c4.57,4.219,10.898,11.602,14.062,17.227
			c32.346-7.383,72.775-23.203,94.924-40.079L1379.025,956.513z M1453.91,967.412c29.531,10.898,68.555,26.719,88.945,36.562
			l14.062-14.414c-21.445-9.844-60.469-24.61-89.648-34.454L1453.91,967.412z M1472.191,806.042
			c-4.219,9.141-11.953,21.797-18.281,30.586l10.898,3.516h-85.432l12.656-3.516c-2.812-8.438-9.141-21.094-16.523-30.586H1472.191z
			 M1433.869,921.708v-23.204h96.682v-17.578h-96.682v-22.148h112.15v-18.634h-71.016c6.68-7.734,14.062-18.281,21.445-28.477
			l-20.039-5.625h80.508v-19.336h-47.812c8.086-11.603,18.281-28.829,27.07-44.649l-23.555-6.328
			c-5.273,14.062-15.117,34.453-23.906,47.11l12.305,3.867h-37.266v-54.845h-21.799v54.845h-36.914v-54.845h-21.797v54.845h-37.617
			l15.469-6.328c-4.219-12.306-15.469-31.642-26.367-45.353l-19.338,6.68c9.494,14.062,20.041,32.344,24.611,45.001h-49.924v19.336
			h79.807l-16.523,4.219c6.328,9.141,12.656,21.094,15.82,29.531h-66.799v18.634h108.986v22.148h-93.166v17.578h93.166v23.204
			h-122.346v19.336h122.346v73.478h22.5v-73.478h124.104v-19.336L1433.869,921.708L1433.869,921.708z"/>
		<path fill="#FFFFFF" d="M1814.969,828.19c-5.625-5.625-13.711-11.602-22.148-16.875c6.68-6.328,12.656-13.008,17.93-19.688
			l-16.172-5.273c-4.219,5.977-9.844,11.602-15.469,16.523c-8.086-4.219-16.172-9.141-23.906-12.305l-11.602,10.195
			c7.031,3.516,14.766,7.383,22.148,11.953c-9.141,6.328-19.336,12.305-29.531,16.875c3.867,3.164,10.547,9.141,12.656,11.954
			c10.195-5.626,20.742-11.954,30.938-20.04c9.141,6.328,16.875,12.305,22.148,17.93L1814.969,828.19z M1813.914,772.994
			c-5.625-4.219-13.008-9.141-21.445-14.414c6.328-6.328,11.953-12.305,16.875-18.984l-15.82-4.57
			c-3.867,4.922-9.141,10.195-14.414,15.117c-8.086-4.219-15.82-8.438-23.203-11.602l-11.25,10.195
			c6.68,3.164,14.414,6.68,21.797,11.25c-8.789,5.977-17.93,11.602-27.422,15.82c3.867,2.812,10.547,8.438,13.008,11.251
			c9.492-4.922,19.336-11.603,28.828-18.634c8.438,5.273,16.523,11.25,21.445,15.821L1813.914,772.994z M1670.123,859.48h217.621
			v38.32h22.5v-55.898h-24.258c2.461-27.423,5.273-67.502,6.68-98.088h-71.367v15.82h49.219l-1.055,16.875h-46.758v15.821h45.703
			l-1.055,16.523h-46.055v15.82h45c-0.703,6.328-1.406,11.602-1.758,17.228h-169.457l-1.406-17.228h42.893v-15.82h-43.947
			l-1.406-16.875h43.947v-15.821h-45.002l-1.406-15.117c16.174-3.164,34.455-7.031,47.814-11.953l-10.195-14.062
			c-15.117,4.57-41.838,11.953-59.768,15.117l6.328,91.759h-24.609v55.899h21.797V859.48L1670.123,859.48z M1916.572,934.716
			H1792.82v-5.625c24.609-9.844,50.627-23.907,69.963-38.321l-14.062-11.602l-4.57,1.406H1698.6v17.227h120.941
			c-14.768,9.141-32.697,17.579-49.221,23.556v13.359h-129.025v19.336h129.025v34.806c0,4.219-1.406,5.273-6.328,5.625
			c-4.57,0-21.797,0-41.133-0.703c3.164,5.977,6.68,13.711,8.086,19.336c24.609,0,40.078,0.352,49.922-3.164
			c9.492-3.516,11.953-8.789,11.953-20.742V953.7h123.752V934.716z"/>
		<path fill="#FFFFFF" d="M2272.359,777.213h-90.002l20.041-9.141c-4.922-10.898-15.471-26.367-26.018-37.617l-19.336,8.438
			c9.492,11.602,19.336,27.773,24.609,38.672h-78.047v21.446h168.752V777.213z M2202.047,816.94
			c19.688,19.336,42.891,47.462,52.734,65.743l16.875-14.062c-10.195-17.578-34.102-44.649-54.141-63.282L2202.047,816.94z
			 M2144.74,806.394c-10.898,21.797-30.234,47.813-50.273,63.985c4.922,3.867,12.305,9.844,16.172,14.062
			c20.391-17.93,41.133-44.297,55.195-68.556L2144.74,806.394z M2097.982,891.473c-5.273-9.141-29.182-49.922-36.564-60.47v-12.305
			h34.807v-21.797h-34.807v-65.04h-21.094v65.392h-40.078v21.797h35.859c-8.789,42.54-27.07,91.408-46.055,117.424
			c4.219,5.625,9.844,15.469,12.305,21.797c14.062-21.797,27.773-56.954,37.969-93.517v149.768h21.094V861.238
			c8.439,16.875,18.635,37.266,22.502,47.813L2097.982,891.473z M2214.703,860.535c-6.682,24.609-16.877,46.759-30.939,66.095
			c-15.117-19.336-27.07-40.782-35.508-65.04l-19.688,5.625c10.195,28.477,23.906,54.493,41.133,76.642
			c-20.391,21.797-46.055,39.728-77.344,53.087c4.57,3.867,11.602,12.305,14.414,17.227c30.938-14.062,56.602-31.992,77.344-53.438
			c21.447,22.149,47.814,40.079,78.049,50.978c3.516-6.328,10.195-15.469,15.469-19.688c-30.586-10.195-56.953-27.071-78.75-48.517
			c16.875-22.148,29.531-48.165,37.617-77.696L2214.703,860.535z"/>
	</g>
</g>
</svg>
