<?xml version="1.0" encoding="UTF-8"?>
<svg id="_圖層_1" data-name="圖層 1" xmlns="http://www.w3.org/2000/svg" viewBox="0 0 726.08 171.7">
  <defs>
    <style>
      .cls-1 {
        fill: #fff;
      }

      .cls-2 {
        fill: #da1e5d;
      }

      .cls-3 {
        fill: #3fb18a;
      }

      .cls-4 {
        fill: #ed9226;
      }
    </style>
  </defs>
  <g>
    <path class="cls-2" d="M177.92,16.47l2.34,7.39-105.53,112.28s-39.39-14.69-54.25-43.22l-5.11-15.9s15.16,27.85,52.94,39.21L177.92,16.47Z"/>
    <path class="cls-4" d="M185.66,40.33l2.55,7.89-101.87,123.47s-39.99-19.77-54.12-42.83l-4.08-12.56s14.87,22.75,51.99,36.29L185.66,40.33Z"/>
    <path class="cls-3" d="M0,30.11c18.03,55.28,62.36,68.09,62.36,68.09L172.48,0,0,30.11Zm56.48,48.4s-29.52-9.63-45.89-41.8L159.4,6.38,56.48,78.51Z"/>
  </g>
  <g>
    <path class="cls-1" d="M264.75,58.56c-1.34-.87-3.32-1.76-5.93-2.66-2.61-.91-5.51-1.36-8.68-1.36-1.62,0-3.21,.17-4.76,.48-1.55,.32-2.93,.83-4.13,1.54-1.2,.71-2.16,1.64-2.86,2.77-.71,1.14-1.06,2.49-1.06,4.04,0,2.06,.63,3.8,1.91,5.22,1.27,1.42,2.88,2.76,4.82,4,1.94,1.24,4.02,2.5,6.24,3.77,2.22,1.27,4.31,2.75,6.25,4.44,1.94,1.7,3.55,3.73,4.82,6.1,1.27,2.36,1.91,5.27,1.91,8.73,0,4.17-.72,7.75-2.17,10.75-1.45,3.01-3.5,5.46-6.14,7.36-2.65,1.91-5.82,3.3-9.53,4.18-3.7,.88-7.82,1.32-12.33,1.32-2.47,0-4.82-.14-7.04-.43-2.22-.28-4.29-.63-6.19-1.05-1.91-.43-3.58-.91-5.03-1.43-1.45-.53-2.59-1.04-3.44-1.54l7.09-12.28c.71,.43,1.62,.91,2.76,1.41,1.13,.51,2.41,.98,3.86,1.41,1.45,.43,3.02,.8,4.71,1.09,1.69,.29,3.39,.43,5.08,.43,1.97,0,3.85-.17,5.61-.48,1.76-.32,3.3-.85,4.61-1.6,1.3-.74,2.33-1.68,3.07-2.82,.74-1.13,1.11-2.55,1.11-4.25,0-1.91-.63-3.55-1.91-4.9-1.27-1.34-2.88-2.62-4.82-3.83-1.94-1.2-4.02-2.46-6.25-3.77-2.22-1.3-4.31-2.84-6.25-4.6-1.94-1.77-3.55-3.9-4.81-6.41-1.27-2.51-1.91-5.56-1.91-9.16,0-4.1,.73-7.59,2.17-10.49,1.44-2.9,3.4-5.25,5.88-7.09,2.47-1.83,5.36-3.17,8.68-4.02,3.32-.84,6.88-1.27,10.7-1.27,2.04,0,4.09,.1,6.14,.31,2.05,.21,3.99,.52,5.83,.91,1.84,.39,3.53,.84,5.08,1.37,1.55,.54,2.86,1.12,3.92,1.75l-6.99,12.07Z"/>
    <path class="cls-1" d="M293.76,64.82l-6.88,32.71c-.43,2.12-.64,3.88-.64,5.3s.28,2.51,.85,3.27c.56,.79,1.55,1.17,2.97,1.17,1.2,0,2.41-.3,3.65-.9,1.24-.6,2.42-1.38,3.55-2.33,1.12-.95,2.17-2.01,3.12-3.17s1.75-2.31,2.38-3.44l6.78-32.61h13.03l-6.67,31.76c-.35,1.41-.65,3.07-.9,4.98-.25,1.91-.48,3.87-.69,5.88-.21,2.01-.36,3.93-.43,5.76-.07,1.84-.07,3.36,0,4.56h-10.48l-.53-9.54h-.43c-.99,1.34-2.13,2.67-3.44,3.98-1.3,1.3-2.75,2.49-4.34,3.54-1.59,1.06-3.32,1.91-5.19,2.54-1.87,.64-3.87,.95-5.98,.95-3.32,0-6-.83-8.05-2.49-2.05-1.66-3.07-4.71-3.07-9.16,0-2.62,.35-5.48,1.06-8.58l7.31-34.19h13.02Z"/>
    <path class="cls-1" d="M347.87,64.82l.11,9.51h.42c1.55-2.88,3.44-5.33,5.66-7.33,2.22-2.02,5.03-3.02,8.42-3.02,1.48,0,3.25,.29,5.3,.86l-3.28,11.53c-.7-.21-1.37-.39-2.01-.54-.63-.14-1.3-.21-2.01-.21-2.89,0-5.56,.93-7.99,2.79-2.44,1.87-4.29,4.02-5.56,6.48l-6.89,32.87h-13.02l11.22-52.94h9.64Z"/>
    <path class="cls-1" d="M386.2,92.55l.21,8.16h.32l3.18-8.37,14.5-27.53h14.72l-32.4,53.47h-8.05l-10.38-53.47h14.4l3.49,27.74Z"/>
    <path class="cls-1" d="M454.81,112.67c-2.19,1.84-5.01,3.39-8.47,4.66-3.46,1.27-7.49,1.91-12.07,1.91-5.72,0-10.22-1.67-13.5-5.03-3.28-3.35-4.93-8.03-4.93-14.03,0-5.64,.88-10.75,2.65-15.3,1.76-4.55,4.07-8.42,6.94-11.59,2.86-3.18,6.09-5.63,9.69-7.36,3.6-1.73,7.2-2.6,10.8-2.6,2.9,0,5.38,.38,7.46,1.12,2.08,.74,3.79,1.77,5.14,3.07,1.34,1.3,2.33,2.8,2.96,4.49,.63,1.69,.95,3.5,.95,5.4,0,2.9-.74,5.44-2.22,7.62-1.48,2.19-3.55,4.01-6.2,5.46-2.65,1.44-5.84,2.54-9.58,3.28-3.74,.74-7.83,1.11-12.28,1.11-.56,0-1.09-.02-1.59-.06-.49-.03-1.02-.05-1.59-.05-.14,.85-.25,1.62-.32,2.29-.07,.68-.11,1.29-.11,1.86,0,3.21,.83,5.59,2.49,7.16,1.66,1.56,4,2.34,7.04,2.34s5.89-.46,8.36-1.41c2.47-.94,4.34-1.89,5.61-2.83l2.75,8.47Zm-23.93-26.15c1.97,0,4.07-.07,6.3-.21,2.22-.14,4.29-.47,6.19-.99,1.91-.52,3.5-1.29,4.77-2.28,1.27-1.01,1.91-2.38,1.91-4.12,0-1.04-.39-2.1-1.17-3.17-.78-1.08-2.4-1.62-4.87-1.62-3.11,0-5.81,1.18-8.1,3.54-2.29,2.36-3.97,5.31-5.03,8.85Z"/>
    <path class="cls-1" d="M487.11,94.57l.1,8.26h.64l2.86-8.37,14.4-29.64h13.87l-25.41,47.54c-2.12,3.95-4.11,7.58-5.98,10.9-1.87,3.32-3.76,6.18-5.67,8.57-1.91,2.4-3.88,4.27-5.93,5.61-2.04,1.34-4.23,2.02-6.56,2.02-3.11,0-5.43-.55-6.99-1.62l3.49-10.56c.43,.21,.86,.35,1.33,.43,.46,.06,.9,.1,1.32,.1,1.69,0,3.42-.8,5.19-2.42,1.76-1.62,3.53-4.23,5.29-7.81l-9.95-52.77h14.93l3.07,29.75Z"/>
    <path class="cls-1" d="M565.88,114.69c-4.73,3.03-10.52,4.55-17.37,4.55-4.66,0-8.72-.78-12.18-2.33-3.46-1.55-6.34-3.71-8.63-6.46-2.29-2.76-4.01-5.97-5.14-9.64-1.13-3.67-1.69-7.62-1.69-11.86,0-8.33,1.17-15.45,3.5-21.34,2.33-5.89,5.4-10.73,9.21-14.5,3.82-3.77,8.17-6.55,13.08-8.32,4.91-1.77,9.93-2.65,15.09-2.65,4.02,0,7.46,.3,10.32,.9,2.86,.6,5.1,1.29,6.72,2.06l-5.4,12.28c-1.41-.77-3.1-1.35-5.08-1.74-1.97-.39-4.48-.58-7.51-.58-3.6,0-6.96,.74-10.06,2.22-3.11,1.48-5.79,3.6-8.05,6.35-2.26,2.75-4.04,6.1-5.35,10.05-1.3,3.96-1.96,8.44-1.96,13.45,0,6,1.5,10.7,4.5,14.09,3,3.38,7.01,5.08,12.01,5.08,3.18,0,5.81-.33,7.89-1,2.08-.68,4.04-1.5,5.88-2.49l.21,11.86Z"/>
    <path class="cls-1" d="M617.98,96.58c-.57,2.68-.97,5.4-1.22,8.16-.25,2.75-.37,5.36-.37,7.83,0,.99,.02,1.92,.06,2.8,.03,.89,.09,1.71,.16,2.49h-9.63l-1.48-9.1h-.42c-.78,1.27-1.79,2.52-3.02,3.75-1.24,1.24-2.59,2.37-4.08,3.39-1.48,1.03-3.05,1.84-4.71,2.44-1.66,.59-3.37,.9-5.14,.9-4.66,0-8.1-1.52-10.32-4.55-2.22-3.03-3.33-7.09-3.33-12.18s.65-10.09,1.96-14.82c1.3-4.74,3.33-8.9,6.09-12.5,2.75-3.61,6.23-6.47,10.43-8.63,4.2-2.16,9.19-3.24,14.98-3.24,2.47,0,5.17,.23,8.1,.69,2.93,.46,5.77,1.07,8.52,1.85l-6.56,30.71Zm-24.88,11.86c1.27,0,2.47-.26,3.6-.8,1.13-.54,2.17-1.22,3.12-2.08,.95-.85,1.8-1.78,2.54-2.77,.74-1,1.39-1.91,1.96-2.77l5.3-24.82c-.78-.35-1.68-.62-2.7-.8-1.02-.18-2.03-.27-3.02-.27-2.54,0-4.81,.77-6.78,2.29-1.97,1.53-3.65,3.51-5.03,5.97-1.38,2.45-2.42,5.22-3.13,8.31-.7,3.1-1.06,6.2-1.06,9.32,0,2.27,.37,4.25,1.11,5.92,.74,1.66,2.1,2.5,4.07,2.5Z"/>
    <path class="cls-1" d="M650.59,95.84h-4.24l-4.56,21.92h-13.02l15.67-74.12h13.02l-9.32,43.73,3.92-1.38,14.93-21.17h14.5l-15.77,21.28-6.35,4.02,4.76,4.02,8.05,23.61h-13.98l-7.62-21.92Z"/>
    <path class="cls-1" d="M718.46,112.67c-2.19,1.84-5.01,3.39-8.47,4.66-3.46,1.27-7.49,1.91-12.07,1.91-5.72,0-10.22-1.67-13.5-5.03-3.28-3.35-4.93-8.03-4.93-14.03,0-5.64,.88-10.75,2.65-15.3,1.76-4.55,4.07-8.42,6.94-11.59,2.86-3.18,6.09-5.63,9.69-7.36,3.6-1.73,7.2-2.6,10.8-2.6,2.9,0,5.38,.38,7.46,1.12,2.08,.74,3.79,1.77,5.14,3.07,1.34,1.3,2.33,2.8,2.96,4.49,.63,1.69,.95,3.5,.95,5.4,0,2.9-.74,5.44-2.22,7.62-1.48,2.19-3.55,4.01-6.2,5.46-2.65,1.44-5.84,2.54-9.58,3.28-3.74,.74-7.83,1.11-12.28,1.11-.56,0-1.09-.02-1.59-.06-.49-.03-1.02-.05-1.59-.05-.14,.85-.25,1.62-.32,2.29-.07,.68-.11,1.29-.11,1.86,0,3.21,.83,5.59,2.49,7.16,1.66,1.56,4,2.34,7.04,2.34s5.89-.46,8.36-1.41c2.47-.94,4.34-1.89,5.61-2.83l2.75,8.47Zm-23.93-26.15c1.97,0,4.07-.07,6.3-.21,2.22-.14,4.29-.47,6.19-.99,1.91-.52,3.5-1.29,4.77-2.28,1.27-1.01,1.91-2.38,1.91-4.12,0-1.04-.39-2.1-1.17-3.17-.78-1.08-2.4-1.62-4.87-1.62-3.11,0-5.81,1.18-8.1,3.54-2.29,2.36-3.97,5.31-5.03,8.85Z"/>
  </g>
</svg>